<?xml version="1.0" encoding="utf-8"?>
<!-- Generator: Adobe Illustrator 22.1.0, SVG Export Plug-In . SVG Version: 6.00 Build 0)  -->
<svg version="1.1" id="Layer_1" xmlns="http://www.w3.org/2000/svg" xmlns:xlink="http://www.w3.org/1999/xlink" x="0px" y="0px"
	 viewBox="0 0 16 16" style="enable-background:new 0 0 16 16;" xml:space="preserve">
<style type="text/css">
	.st0{fill:url(#SVGID_1_);}
	.st1{fill:url(#SVGID_2_);}
	.st2{fill:url(#SVGID_3_);}
	.st3{fill:url(#SVGID_4_);}
	.st4{fill:url(#SVGID_5_);}
	.st5{fill:url(#SVGID_6_);}
	.st6{fill:url(#SVGID_7_);}
	.st7{fill:url(#SVGID_8_);}
	.st8{filter:url(#Adobe_OpacityMaskFilter);}
	.st9{filter:url(#Adobe_OpacityMaskFilter_1_);}
	.st10{mask:url(#SVGID_9_);fill:url(#SVGID_10_);}
	.st11{fill:url(#SVGID_11_);}
	.st12{fill:url(#SVGID_12_);}
	.st13{fill:#FFFFFF;}
	.st14{fill:#04171C;}
	.st15{fill:#0FBFAE;}
	.st16{fill:#009ABB;}
	.st17{fill:none;stroke:#FFFFFF;stroke-linecap:round;stroke-miterlimit:10;}
	.st18{fill:none;stroke:#FFFFFF;stroke-linecap:round;stroke-linejoin:round;stroke-miterlimit:10;}
	.st19{fill:#007C92;}
	.st20{fill:none;stroke:#DDDDDD;stroke-width:0.25;stroke-miterlimit:10;}
	.st21{fill:#F2F2F2;}
	.st22{fill:#999999;}
	.st23{fill:none;stroke:#007C92;stroke-width:2;stroke-miterlimit:10;}
	.st24{fill:#DDDDDD;}
	.st25{fill:#09425A;}
	.st26{opacity:0.4;clip-path:url(#SVGID_16_);}
	.st27{opacity:0.4;clip-path:url(#SVGID_18_);}
	.st28{opacity:0.4;}
	.st29{fill:#8C1515;}
	.st30{fill:#062733;}
	.st31{opacity:0.5;}
	.st32{fill:none;stroke:#3B484C;stroke-miterlimit:10;}
	.st33{fill:#035072;}
	.st34{fill:#848484;}
	.st35{fill:none;}
	.st36{fill:none;stroke:#808080;stroke-miterlimit:10;}
	.st37{fill:url(#SVGID_19_);}
	.st38{fill:none;stroke:#333333;stroke-width:0.25;stroke-miterlimit:10;}
	.st39{fill:#333333;}
	.st40{opacity:0.4;clip-path:url(#SVGID_23_);}
	.st41{opacity:0.4;clip-path:url(#SVGID_25_);}
	.st42{fill:#FFFFFF;stroke:#CCCCCC;stroke-miterlimit:10;}
	.st43{fill:none;stroke:#D5D5D5;stroke-miterlimit:10;}
	.st44{fill:url(#SVGID_26_);}
	.st45{fill:#1B2426;}
	.st46{fill:#0B8C75;}
	.st47{fill:none;stroke:#999999;stroke-width:0.25;stroke-miterlimit:10;}
	.st48{fill:#808080;}
	.st49{fill:#0EBFAD;stroke:#0B8D75;stroke-width:2;stroke-miterlimit:10;}
	.st50{stroke:#FFFFFF;stroke-miterlimit:10;}
	.st51{fill:#0B8D75;}
	.st52{clip-path:url(#SVGID_30_);}
	.st53{fill:#0EBFAD;}
	.st54{fill:#5B838B;}
	.st55{clip-path:url(#SVGID_32_);}
	.st56{fill:#3A5159;}
	.st57{fill:#326C7C;}
	.st58{fill:#D94A56;}
	.st59{fill:#233135;}
	.st60{fill:none;stroke:#4D4D4D;stroke-miterlimit:10;}
	.st61{fill:#52F3D4;}
	.st62{fill:none;stroke:#999999;stroke-miterlimit:10;}
	.st63{fill:url(#SVGID_33_);}
	.st64{fill:#F0F4F5;}
	.st65{fill:none;stroke:#808080;stroke-width:0.25;stroke-miterlimit:10;}
	.st66{fill:none;stroke:#999999;stroke-width:0.75;stroke-miterlimit:10;}
	.st67{fill:none;stroke:#009ABB;stroke-width:3;stroke-miterlimit:10;}
	.st68{fill:none;stroke:#0B8D75;stroke-width:2;stroke-miterlimit:10;}
	.st69{fill:none;stroke:#007C92;stroke-miterlimit:10;}
	.st70{fill:none;stroke:#CCCCCC;stroke-miterlimit:10;}
	.st71{fill:url(#SVGID_38_);}
	.st72{fill:url(#SVGID_39_);}
	.st73{fill:url(#SVGID_40_);}
	.st74{fill:url(#SVGID_41_);}
	.st75{fill:url(#SVGID_42_);}
	.st76{fill:url(#SVGID_43_);}
	.st77{fill:url(#SVGID_44_);}
	.st78{fill:url(#SVGID_45_);}
	.st79{filter:url(#Adobe_OpacityMaskFilter_2_);}
	.st80{filter:url(#Adobe_OpacityMaskFilter_3_);}
	.st81{mask:url(#SVGID_46_);fill:url(#SVGID_47_);}
	.st82{fill:url(#SVGID_48_);}
	.st83{fill:url(#SVGID_49_);}
	.st84{fill:url(#SVGID_50_);}
	.st85{fill:url(#SVGID_51_);}
	.st86{fill:url(#SVGID_52_);}
	.st87{fill:url(#SVGID_53_);}
	.st88{fill:url(#SVGID_54_);}
	.st89{fill:url(#SVGID_55_);}
	.st90{fill:url(#SVGID_56_);}
	.st91{fill:url(#SVGID_57_);}
	.st92{filter:url(#Adobe_OpacityMaskFilter_4_);}
	.st93{filter:url(#Adobe_OpacityMaskFilter_5_);}
	.st94{mask:url(#SVGID_58_);fill:url(#SVGID_59_);}
	.st95{fill:url(#SVGID_60_);}
	.st96{fill:url(#SVGID_61_);}
	.st97{opacity:0.4;clip-path:url(#SVGID_65_);}
	.st98{opacity:0.4;clip-path:url(#SVGID_67_);}
	.st99{fill:url(#SVGID_68_);}
	.st100{opacity:0.4;clip-path:url(#SVGID_72_);}
	.st101{opacity:0.4;clip-path:url(#SVGID_74_);}
	.st102{fill:url(#SVGID_75_);}
	.st103{fill:#D0D8DA;}
	.st104{fill:#AABEC6;}
	.st105{fill:#80982A;}
	.st106{fill:#3B484C;}
	.st107{fill:#D0D8DA;stroke:#09425A;stroke-width:5;stroke-miterlimit:10;}
	.st108{fill:url(#SVGID_78_);}
	.st109{fill:url(#SVGID_79_);}
	.st110{fill:url(#SVGID_80_);}
	.st111{fill:url(#SVGID_81_);}
	.st112{fill:url(#SVGID_82_);}
	.st113{fill:url(#SVGID_83_);}
	.st114{fill:url(#SVGID_84_);}
	.st115{fill:url(#SVGID_85_);}
	.st116{filter:url(#Adobe_OpacityMaskFilter_6_);}
	.st117{filter:url(#Adobe_OpacityMaskFilter_7_);}
	.st118{mask:url(#SVGID_86_);fill:url(#SVGID_87_);}
	.st119{fill:url(#SVGID_88_);}
	.st120{fill:url(#SVGID_89_);}
	.st121{clip-path:url(#SVGID_91_);}
	.st122{clip-path:url(#SVGID_93_);}
	.st123{fill:url(#SVGID_94_);}
	.st124{fill:#CCCCCC;}
	.st125{fill:none;stroke:#3A5159;stroke-miterlimit:10;}
	.st126{fill:#FFFFFF;stroke:#999999;stroke-width:0.5;stroke-miterlimit:10;}
	.st127{opacity:0.7;}
	.st128{fill:none;stroke:#999999;stroke-width:0.5;stroke-miterlimit:10;}
	.st129{fill:#4D4D4D;}
	.st130{fill:none;stroke:#C1272D;stroke-width:2;stroke-linecap:round;stroke-linejoin:round;stroke-miterlimit:10;}
	.st131{fill:#C1272D;}
	.st132{fill:none;stroke:#C1272D;stroke-width:2;stroke-miterlimit:10;stroke-dasharray:3;}
	.st133{fill:none;stroke:#3B484C;stroke-miterlimit:10;stroke-dasharray:3;}
	.st134{fill:#B3B3B3;}
	.st135{fill:#D0D8DA;stroke:#999999;stroke-width:0.5;stroke-miterlimit:10;}
	.st136{fill:#F0F4F5;stroke:#3B484C;stroke-width:0.25;stroke-miterlimit:10;}
	.st137{fill:#FF1D25;}
	.st138{fill:url(#SVGID_121_);}
	.st139{fill:url(#SVGID_122_);}
	.st140{fill:none;stroke:#3B484C;stroke-miterlimit:10;stroke-dasharray:3.004,3.004;}
	.st141{fill:#B96D12;}
	.st142{fill:#ACB713;}
</style>
<g>
	<g>
		<path class="st22" d="M8,0C3.6,0,0,3.6,0,8s3.6,8,8,8s8-3.6,8-8S12.4,0,8,0z M14.2,5.1h-2.7c-0.4-1.4-1.1-2.7-2-3.8
			C11.6,1.8,13.3,3.2,14.2,5.1z M8,14.6L8,14.6c-1-1-1.8-2.3-2.3-3.7h4.6C9.9,12.3,9.1,13.5,8,14.6C8,14.6,8,14.6,8,14.6z M5.4,9.7
			c-0.2-1.1-0.2-2.3,0-3.4h5.2c0.2,1.1,0.2,2.3,0,3.4H5.4z M1.1,8c0-0.6,0.1-1.2,0.2-1.7h2.9c-0.2,1.1-0.2,2.3,0,3.4H1.4
			C1.2,9.2,1.1,8.6,1.1,8z M8,1.4C8,1.4,8,1.4,8,1.4c1.1,1,1.9,2.3,2.3,3.7H5.7C6.1,3.7,6.9,2.5,8,1.4C8,1.4,8,1.4,8,1.4z M11.8,6.3
			h2.9c0.3,1.1,0.3,2.3,0,3.4h-2.9C11.9,8.6,11.9,7.4,11.8,6.3z M6.5,1.3c-0.9,1.1-1.6,2.4-2,3.8H1.8C2.7,3.2,4.4,1.8,6.5,1.3z
			 M1.8,10.9h2.7c0.4,1.4,1.1,2.7,2,3.8C4.4,14.2,2.7,12.8,1.8,10.9z M9.5,14.7c0.9-1.1,1.6-2.4,2-3.8h2.7
			C13.3,12.8,11.6,14.2,9.5,14.7L9.5,14.7z"/>
	</g>
</g>
</svg>
