<?xml version="1.0" encoding="utf-8"?>
<!-- Generator: Adobe Illustrator 19.2.1, SVG Export Plug-In . SVG Version: 6.00 Build 0)  -->
<svg version="1.1" id="Layer_1" xmlns="http://www.w3.org/2000/svg" xmlns:xlink="http://www.w3.org/1999/xlink" x="0px" y="0px"
	 viewBox="0 0 161.3 36.5" style="enable-background:new 0 0 161.3 36.5;" xml:space="preserve">
<style type="text/css">
	.Arched_x0020_Green{fill:url(#SVGID_1_);stroke:#FFFFFF;stroke-width:0.25;stroke-miterlimit:1;}
	.st0{fill:#00AB67;}
	.st1{fill:#FFFFFF;}
	.st2{fill:none;}
	.st3{fill:#008348;}
</style>
<linearGradient id="SVGID_1_" gradientUnits="userSpaceOnUse" x1="-2" y1="535.1948" x2="-1.2929" y2="534.4877">
	<stop  offset="0" style="stop-color:#20AC4B"/>
	<stop  offset="0.9831" style="stop-color:#19361A"/>
</linearGradient>
<g>
	<rect x="44.5" y="19.6" class="st0" width="114.3" height="2.2"/>
	<g>
		<path d="M48.9,14.6h-4.4V1.4h14.9v2.3H48.9v3h9.2v2.3h-9.2V14.6z"/>
		<path d="M79.1,10c0,3.5-3.3,5-8.6,5c-1.9,0-4.8-0.3-6.6-1.6c-1.1-0.8-1.6-1.9-1.6-3.2V1.4h4.5V10c0,1.8,1.7,2.7,3.7,2.7
			c3,0,4.2-0.9,4.2-2.5V1.4h4.5V10z"/>
		<path d="M92.2,14.6h-4.4V3.7h-6.3V1.4h17v2.3h-6.3V14.6z"/>
		<path d="M117.9,10c0,3.5-3.3,5-8.6,5c-1.9,0-4.8-0.3-6.6-1.6c-1.1-0.8-1.6-1.9-1.6-3.2V1.4h4.4V10c0,1.8,1.7,2.7,3.7,2.7
			c3,0,4.2-0.9,4.2-2.5V1.4h4.5V10z"/>
		<path d="M122.1,1.4h10.6c5.6,0,6.6,2.6,6.6,3.7c0,1.5-1.2,2.7-3.2,3.2c1.7,0.5,2.6,0.9,2.6,3.4c0,1.9,0,2.4,0.9,2.6v0.3h-4.8
			c-0.3-0.6-0.5-1.3-0.5-2.7c0-1.8-0.2-2.5-3.4-2.5h-4.5v5.2h-4.3V1.4z M131.5,7.2c2.3,0,3.4-0.5,3.4-1.8c0-0.7-0.5-1.7-3.1-1.7
			h-5.4v3.5H131.5z"/>
		<path d="M158.5,3.7h-11.1v2.8h10.2v2.3h-10.2v3.4h11.4v2.3h-15.7V1.4h15.4V3.7z"/>
	</g>
	<g>
		<rect x="2.7" y="0.3" class="st1" width="35.5" height="35.5"/>
		<rect x="3" y="0.7" class="st2" width="34.7" height="34.7"/>
		<path class="st3" d="M37.8,0H3H2.3v0.7v34.7v0.7H3h34.7h0.7v-0.7V0.7V0H37.8z M37.8,35.4H3V0.7h34.7V35.4z"/>
		<g>
			<polygon class="st0" points="18.2,10.9 15.3,13.8 15.3,14.3 18.7,10.9 			"/>
			<polygon class="st0" points="17.8,25.9 17.3,25.9 15.3,28 15.3,28.4 15.3,28.5 17.8,25.9 			"/>
			<path class="st0" d="M37.1,34.4v-32V1.4h-13H3.7v22.7v3.6v7l33.4,0L37.1,34.4z M36.8,34.5H34l2.8-2.8V34.5z M36.8,31.2l-3.3,3.3
				h-3l6.3-6.4V31.2z M36.8,27.6L30,34.5h-3l9.8-9.9V27.6z M36.8,24.1L26.5,34.5h-3L36.8,21V24.1z M36.8,20.5L23,34.5h-3l16.9-17
				V20.5z M36.8,6.3L26.4,16.8l0.2,0.2l0,0L36.8,6.8v3L27.7,19V19v0.4v0l9.1-9.1v3l-9.1,9.1v0.1V23l9.1-9.1v3L19.4,34.5h-3l8.5-8.5
				h-0.4h-0.1l-8.5,8.5h-0.6h-1.5l0,0v-0.9l0,0v0v-0.4v-0.1l0,0v-3l0,0v-0.1v-0.4v0v-3l0,0V26v0v-1.5h1.5l0,0h0.5h0h3l0,0h0.4h0.1
				l0,0h3h0h0.1h0.4h0h0h3l0,0H26h0.2v-0.2v-0.1l0,0v-3l0,0v0v-0.4v-0.1l0,0v-3l0,0v-0.1V17l0,0v-0.5h-2.6L36.8,3.3V6.3z M27.8,1.7
				h3l-3.1,3.2v0.5l3.6-3.7h3l-6.7,6.7v0.5l7.2-7.2h1.9v1.1L23.1,16.6h-3l5.7-5.7h-0.5l-5.7,5.7h-3l5.7-5.7h-0.5l-5.7,5.7h-2.3v-0.8
				v0v-0.5l0,0v-3v0v-0.5l0,0V9.4h2.4h0h0.5l0,0h3h0h0.5l0,0h3h0h0.5l0,0h2.4V6.9l0,0V6.4v0v-3l0,0V2.8v-1V1.7l1.6,0v0H27.8z"/>
			<polygon class="st0" points="21.3,25.9 20.9,25.9 20.9,25.9 15.3,31.5 15.3,31.6 15.3,32 15.3,32 21.4,25.9 			"/>
		</g>
		<g>
			<polygon class="st3" points="26.2,17.5 26.2,17.9 26.2,20.7 26.2,21.1 26.2,23.8 26.2,24.3 26.2,24.4 26,24.4 25.6,24.4 
				22.8,24.4 22.4,24.4 19.7,24.4 19.3,24.4 16.5,24.4 16.1,24.4 13.8,24.4 13.8,26.7 13.8,27.1 13.8,29.9 13.8,30.3 13.8,33.1 
				13.8,33.5 13.8,34.5 15.3,34.5 15.3,32 15.3,31.6 15.3,28.8 15.3,28.4 15.3,25.9 17.8,25.9 18.2,25.9 20.9,25.9 21.3,25.9 
				24.1,25.9 24.5,25.9 27.3,25.9 27.7,25.9 27.7,25.9 27.7,25.8 27.7,25.4 27.7,22.7 27.7,22.2 27.7,19.5 27.7,19 27.7,18.1 
				26.8,17.2 26.6,17 26.2,16.6 			"/>
			<polygon class="st3" points="27.7,9.9 27.7,9.5 27.7,6.7 27.7,6.3 27.7,3.5 27.7,3.1 27.7,1.7 27.7,1.7 26.2,1.7 26.2,1.9 
				26.2,4.7 26.2,5.1 26.2,7.9 26.2,8.3 26.2,9.4 25.1,9.4 24.7,9.4 21.9,9.4 21.5,9.4 18.7,9.4 18.3,9.4 13.8,9.4 13.8,13.9 
				13.8,14.3 13.8,16.6 14.4,16.6 14.8,16.6 15.3,16.6 15.3,16 15.3,15.6 15.3,12.8 15.3,12.4 15.3,10.9 16.8,10.9 17.2,10.9 
				20,10.9 20.4,10.9 23.2,10.9 23.6,10.9 26.4,10.9 26.8,10.9 27.7,10.9 			"/>
		</g>
	</g>
	<g>
		<path d="M49.6,29.9c-0.2-1.1-0.9-1.6-1.8-1.6c-1.6,0-2,1.5-2,2.5c0,1,0.3,2.5,2,2.5c0.8,0,1.6-0.5,1.8-1.6h1.8
			c-0.2,2.1-1.7,3-3.7,3c-2.3,0-3.7-1.1-3.7-3.9c0-2.7,1.4-3.9,3.7-3.9c1.5,0,3.4,0.5,3.7,3H49.6z"/>
		<path d="M55,28.8c1.9,0,3.1,0.9,3.1,2.9c0,2.1-1.2,2.9-3.1,2.9c-1.9,0-3.1-0.9-3.1-2.9C51.9,29.6,53.1,28.8,55,28.8z M55,33.4
			c1,0,1.5-0.6,1.5-1.7c0-1.1-0.6-1.7-1.5-1.7c-1,0-1.5,0.6-1.5,1.7C53.5,32.8,54,33.4,55,33.4z"/>
		<path d="M62.7,31.3c0-0.8-0.3-1.1-1-1.1c-0.7,0-1.3,0.4-1.3,1.6v2.7h-1.5V29h1.5v0.8h0c0.3-0.5,1-0.9,1.9-0.9c0.8,0,2,0.4,2,2v3.7
			h-1.5V31.3z"/>
		<path d="M69.1,31.3c0-0.8-0.3-1.1-1-1.1c-0.7,0-1.3,0.4-1.3,1.6v2.7h-1.5V29h1.5v0.8h0c0.3-0.5,1-0.9,1.9-0.9c0.8,0,2,0.4,2,2v3.7
			h-1.5V31.3z"/>
		<path d="M77.4,32.8c-0.4,1.3-1.5,1.8-2.9,1.8c-1.9,0-3.1-0.9-3.1-2.9c0-2.1,1.2-2.9,3.1-2.9c2,0,3,1.2,3,3.3v0.2h-4.5v0
			c0,0.5,0.5,1.3,1.5,1.3c0.6,0,1.1-0.2,1.3-0.7H77.4z M75.8,31.1L75.8,31.1c0-0.3-0.3-1.2-1.5-1.2c-1.2,0-1.5,1.1-1.5,1.2v0H75.8z"
			/>
		<path d="M82.3,31c-0.2-0.7-0.7-1-1.3-1c-1,0-1.5,0.6-1.5,1.7c0,1.1,0.6,1.7,1.5,1.7c0.7,0,1.2-0.4,1.3-1.1h1.6
			c-0.3,1.9-1.5,2.4-3,2.4c-1.8,0-3-0.9-3-2.9c0-2.1,1.2-2.9,3.1-2.9c1.2,0,2.6,0.4,2.9,2.2H82.3z"/>
		<path d="M85,27.3h1.5V29h1.2v1.2h-1.2v2.6c0,0.4,0.1,0.6,0.5,0.6c0.3,0,0.5,0,0.8,0v1.2c-0.3,0-0.9,0.1-1.2,0.1
			c-1.5,0-1.6-0.6-1.6-1.6v-2.8h-1V29h1V27.3z"/>
		<path d="M88.3,27h1.5v1.3h-1.5V27z M88.3,29h1.5v5.5h-1.5V29z"/>
		<path d="M90.2,29h1.8l1.3,3.9l1.3-3.9h1.8l-2.2,5.5h-1.8L90.2,29z"/>
		<path d="M96.6,27h1.5v1.3h-1.5V27z M96.6,29h1.5v5.5h-1.5V29z"/>
		<path d="M99.6,27.3h1.5V29h1.2v1.2h-1.2v2.6c0,0.4,0.1,0.6,0.5,0.6c0.3,0,0.5,0,0.8,0v1.2c-0.3,0-0.9,0.1-1.2,0.1
			c-1.5,0-1.6-0.6-1.6-1.6v-2.8h-1V29h1V27.3z"/>
		<path d="M108.1,29l-2.6,6.4c-0.4,0.9-0.8,1.1-1.6,1.1c-0.4,0-0.7,0-1.1,0v-1.3c0.2,0,0.4,0,0.7,0c0.4,0,0.6-0.2,0.7-0.6l0.2-0.4
			l-2.2-5.3h1.7l1.3,3.6l1.3-3.6H108.1z"/>
		<path d="M115.9,29.3c-0.1-1-0.9-1.1-1.6-1.1c-0.7,0-1.2,0.4-1.2,0.9c0,0.4,0.3,0.6,0.7,0.7l2.1,0.4c1.1,0.2,2,0.7,2,2
			c0,1.4-0.8,2.5-3.2,2.5c-1.5,0-3.5-0.2-3.5-2.5h1.9c0,1,0.9,1.2,1.6,1.2c0.8,0,1.3-0.3,1.3-0.9c0-0.6-0.4-0.7-1.1-0.8l-1.6-0.3
			c-1.1-0.2-2.1-0.6-2.1-2.1c0-1.6,1.1-2.3,3.1-2.3c1.3,0,3.2,0.3,3.3,2.3H115.9z"/>
		<path d="M121.5,28.8c1.9,0,3.1,0.9,3.1,2.9c0,2.1-1.2,2.9-3.1,2.9c-1.9,0-3.1-0.9-3.1-2.9C118.4,29.6,119.6,28.8,121.5,28.8z
			 M121.5,33.4c1,0,1.5-0.6,1.5-1.7c0-1.1-0.6-1.7-1.5-1.7c-1,0-1.5,0.6-1.5,1.7C120,32.8,120.5,33.4,121.5,33.4z"/>
		<path d="M125.3,27h1.5v7.4h-1.5V27z"/>
		<path d="M131.8,33.7L131.8,33.7c-0.3,0.5-1,0.9-1.9,0.9c-0.8,0-2-0.4-2-2V29h1.5v3.2c0,0.8,0.3,1.1,1.1,1.1c0.8,0,1.3-0.5,1.3-1.6
			V29h1.5v5.5h-1.5V33.7z"/>
		<path d="M134.7,27.3h1.5V29h1.2v1.2h-1.2v2.6c0,0.4,0.1,0.6,0.5,0.6c0.3,0,0.5,0,0.8,0v1.2c-0.3,0-0.9,0.1-1.2,0.1
			c-1.5,0-1.6-0.6-1.6-1.6v-2.8h-1V29h1V27.3z"/>
		<path d="M138,27h1.5v1.3H138V27z M138,29h1.5v5.5H138V29z"/>
		<path d="M143.4,28.8c1.9,0,3.1,0.9,3.1,2.9c0,2.1-1.2,2.9-3.1,2.9c-1.9,0-3.1-0.9-3.1-2.9C140.3,29.6,141.5,28.8,143.4,28.8z
			 M143.4,33.4c1,0,1.5-0.6,1.5-1.7c0-1.1-0.6-1.7-1.5-1.7c-1,0-1.5,0.6-1.5,1.7C141.9,32.8,142.4,33.4,143.4,33.4z"/>
		<path d="M151.1,31.3c0-0.8-0.3-1.1-1-1.1c-0.7,0-1.3,0.4-1.3,1.6v2.7h-1.5V29h1.5v0.8h0c0.3-0.5,1-0.9,1.9-0.9c0.8,0,2,0.4,2,2
			v3.7h-1.5V31.3z"/>
		<path d="M155,32.7c0.1,0.5,0.4,0.8,1.1,0.8c0.7,0,1.1-0.2,1.1-0.6c0-0.3-0.1-0.4-0.9-0.6l-1.4-0.2c-1-0.2-1.5-0.5-1.5-1.6
			c0-1.5,1.3-1.8,2.6-1.8c2.2,0,2.7,0.8,2.8,1.9h-1.7c-0.1-0.6-0.6-0.7-1-0.7c-0.4,0-1,0-1,0.6c0,0.3,0.1,0.4,0.8,0.5l1.1,0.1
			c1.6,0.2,2.1,0.7,2.1,1.7c0,1.6-1.6,1.9-2.9,1.9c-1.8,0-2.7-0.6-2.8-1.9H155z"/>
	</g>
</g>
</svg>
