<?xml version="1.0" encoding="utf-8"?>
<!-- Generator: Adobe Illustrator 22.1.0, SVG Export Plug-In . SVG Version: 6.00 Build 0)  -->
<svg version="1.1" id="Layer_1" xmlns="http://www.w3.org/2000/svg" xmlns:xlink="http://www.w3.org/1999/xlink" x="0px" y="0px"
	 viewBox="0 0 49 49" style="enable-background:new 0 0 49 49;" xml:space="preserve">
<style type="text/css">
	.st0{fill:#FFB55A;}
	.st1{fill:#FFFFFF;}
	.st2{fill:#FF8C00;}
	.st3{fill:#BCBCBC;}
	.st4{fill:#38B9D6;}
	.st5{fill:none;stroke:#CC5464;stroke-width:2;stroke-miterlimit:10;}
	.st6{fill:none;stroke:#BCBCBC;stroke-width:4;stroke-linecap:round;stroke-linejoin:round;stroke-miterlimit:10;}
	.st7{fill:#CC5464;}
	.st8{fill:#FCC717;}
	.st9{fill:#777777;}
	.st10{fill:#E90088;}
	.st11{opacity:0.32;fill:#1DBC68;}
	.st12{fill:#1DBC68;}
	.st13{fill:#D3D3D3;}
	.st14{fill:#5E9CD2;}
	.st15{fill:none;stroke:#CC5464;stroke-linecap:round;stroke-linejoin:round;stroke-miterlimit:10;}
	.st16{fill:none;stroke:#1DBC68;stroke-linecap:round;stroke-miterlimit:10;}
	.st17{fill:#606060;}
	.st18{fill:none;stroke:#D3D3D3;stroke-width:2;stroke-linecap:round;stroke-linejoin:round;stroke-miterlimit:10;}
	.st19{fill:none;stroke:#D3D3D3;stroke-width:2;stroke-miterlimit:10;}
	.st20{fill:none;stroke:#D3D3D3;stroke-width:2;stroke-linecap:round;stroke-miterlimit:10;}
	.st21{fill:none;stroke:#CC5464;stroke-width:2;stroke-linecap:round;stroke-linejoin:round;stroke-miterlimit:10;}
	.st22{fill:none;stroke:#1DBC68;stroke-width:2;stroke-linecap:round;stroke-miterlimit:10;}
	.st23{fill:none;stroke:#1DBC68;stroke-width:3;stroke-linecap:round;stroke-linejoin:round;stroke-miterlimit:10;}
	.st24{fill:#1CBB68;}
	.st25{fill:#CC5363;}
	.st26{opacity:0.4;}
	.st27{fill:#F4821F;}
	.st28{fill:#D6690A;}
	.st29{fill:#F5F5F5;}
	.st30{opacity:0.5;fill:#38B8D5;enable-background:new    ;}
	.st31{fill:#38B8D5;}
	.st32{fill:#3FB8D3;}
	.st33{fill:#178598;}
	.st34{fill:#2EA3BB;}
	.st35{fill:#E0EBFB;}
	.st36{fill:#CA5666;}
	.st37{fill:#A9CCFC;}
	.st38{fill:#F9A7A7;}
</style>
<g>
	<g>
		<path class="st32" d="M31.2,12.7L9.8,21.6c-0.2,0.1-0.4,0.3-0.6,0.5L1,35.6c-0.3,0.5,0,1.1,0.6,1.2l25.6,3.3
			c0.3,0,0.7,0.2,0.9,0.4l7.7,7.5c0.3,0.3,0.7,0.2,0.9-0.1l8.9-13.8c0.2-0.2,0.2-0.6,0-0.8l-5.5-9.8L32.4,13
			C32.1,12.7,31.6,12.5,31.2,12.7z"/>
	</g>
	<g>
		<path class="st33" d="M36.3,48.3l-0.7-11.7l-3.6-23.9c0,0,0,0,0,0l-2.8,18.2l-1.6,9.4l0,0c0.2,0.1,0.3,0.2,0.5,0.3l2.8,2.7
			L36.3,48.3C36.2,48.3,36.3,48.3,36.3,48.3z"/>
	</g>
	<g>
		<path class="st34" d="M0.4,49c-0.1,0-0.2,0-0.3-0.1c-0.2-0.2-0.1-0.4,0-0.6l18-16.7V0.4c0-0.2,0.2-0.4,0.4-0.4S19,0.2,19,0.4v31.3
			c0,0.1,0,0.2-0.1,0.3L0.7,48.9C0.6,49,0.5,49,0.4,49z"/>
	</g>
	<g>
		<path class="st34" d="M48.6,37.6C48.6,37.6,48.6,37.6,48.6,37.6l-30.1-5.4c-0.2,0-0.4-0.2-0.3-0.5c0-0.2,0.2-0.4,0.5-0.3l30,5.4
			c0.2,0,0.4,0.2,0.3,0.5C49,37.4,48.8,37.6,48.6,37.6z"/>
	</g>
	<g>
		<path class="st35" d="M40.2,23.5L32.4,13c-0.3-0.4-0.8-0.5-1.2-0.3l-16.8,7l-3.3,5.5c-0.9,1.4,0,3.3,1.7,3.5l15.8,2
			c0.4,0.1,0.8,0.3,1.1,0.6l5.3,5.2c0.3,0.3,0.7,0.2,0.9-0.1l6.1-9.5L40.2,23.5z"/>
	</g>
	<g>
		<path class="st36" d="M18.9,17.8l-0.3,0.5c-0.6,0.8,0,2,1,2.1l19.9,2.3l0.4,0.4L32.4,13c-0.3-0.4-0.8-0.5-1.2-0.3L18.9,17.8z"/>
	</g>
	<g>
		<path class="st37" d="M35.5,36.6l-3.6-23.9c0,0,0,0,0,0l-2.8,18.2c0.2,0.1,0.4,0.2,0.6,0.4l5.3,5.2C35.2,36.5,35.4,36.6,35.5,36.6
			z"/>
	</g>
	<g>
		<polygon class="st38" points="31.9,12.7 30.6,21.7 33.3,22 31.9,12.7 		"/>
	</g>
</g>
</svg>
