<?xml version="1.0" encoding="utf-8"?>
<!-- Generator: Adobe Illustrator 22.1.0, SVG Export Plug-In . SVG Version: 6.00 Build 0)  -->
<svg version="1.1" id="Layer_1" xmlns="http://www.w3.org/2000/svg" xmlns:xlink="http://www.w3.org/1999/xlink" x="0px" y="0px"
	 viewBox="0 0 33.8 46.6" style="enable-background:new 0 0 33.8 46.6;" xml:space="preserve">
<style type="text/css">
	.st0{fill:#FFB55A;}
	.st1{fill:#FFFFFF;}
	.st2{fill:#FF8C00;}
	.st3{fill:#BCBCBC;}
	.st4{fill:#38B9D6;}
	.st5{fill:none;stroke:#CC5464;stroke-width:2;stroke-miterlimit:10;}
	.st6{fill:none;stroke:#BCBCBC;stroke-width:4;stroke-linecap:round;stroke-linejoin:round;stroke-miterlimit:10;}
	.st7{fill:#CC5464;}
	.st8{fill:#FCC717;}
	.st9{fill:#777777;}
	.st10{fill:#E90088;}
	.st11{opacity:0.32;fill:#1DBC68;}
	.st12{fill:#1DBC68;}
	.st13{fill:#D3D3D3;}
	.st14{fill:#5E9CD2;}
	.st15{fill:none;stroke:#CC5464;stroke-linecap:round;stroke-linejoin:round;stroke-miterlimit:10;}
	.st16{fill:none;stroke:#1DBC68;stroke-linecap:round;stroke-miterlimit:10;}
	.st17{fill:#606060;}
	.st18{fill:none;stroke:#D3D3D3;stroke-width:2;stroke-linecap:round;stroke-linejoin:round;stroke-miterlimit:10;}
	.st19{fill:none;stroke:#D3D3D3;stroke-width:2;stroke-miterlimit:10;}
	.st20{fill:none;stroke:#D3D3D3;stroke-width:2;stroke-linecap:round;stroke-miterlimit:10;}
	.st21{fill:none;stroke:#CC5464;stroke-width:2;stroke-linecap:round;stroke-linejoin:round;stroke-miterlimit:10;}
	.st22{fill:none;stroke:#1DBC68;stroke-width:2;stroke-linecap:round;stroke-miterlimit:10;}
	.st23{fill:none;stroke:#1DBC68;stroke-width:3;stroke-linecap:round;stroke-linejoin:round;stroke-miterlimit:10;}
	.st24{fill:#1CBB68;}
	.st25{fill:#CC5363;}
	.st26{opacity:0.4;}
	.st27{fill:#F4821F;}
	.st28{fill:#D6690A;}
	.st29{fill:#F5F5F5;}
	.st30{opacity:0.5;fill:#38B8D5;enable-background:new    ;}
	.st31{fill:#38B8D5;}
	.st32{fill:#3FB8D3;}
	.st33{fill:#178598;}
	.st34{fill:#2EA3BB;}
	.st35{fill:#E0EBFB;}
	.st36{fill:#CA5666;}
	.st37{fill:#A9CCFC;}
	.st38{fill:#F9A7A7;}
</style>
<g>
	<g>
		<path class="st25" d="M33.5,37.8l-2.3-4.3V23c0-6.5-4.4-12-10.3-13.7V4c0-2.2-1.8-4-4-4s-4,1.8-4,4v5.3C7,11,2.6,16.5,2.6,23v10.5
			l-2.3,4.3c-0.4,0.8-0.4,1.8,0.1,2.6c0.5,0.8,1.3,1.3,2.3,1.3h9c0.2,2.8,2.4,5,5.2,5c2.8,0,5.1-2.2,5.2-5h9c0.9,0,1.8-0.5,2.3-1.3
			C33.9,39.6,33.9,38.6,33.5,37.8z M15,4c0-1,0.8-1.9,1.9-1.9c1,0,1.9,0.8,1.9,1.9v4.8c-0.6-0.1-1.2-0.1-1.9-0.1
			c-0.6,0-1.3,0-1.9,0.1L15,4L15,4z M4.7,23c0-6.7,5.5-12.2,12.2-12.2S29.1,16.2,29.1,23v9.7H4.7V23z M16.9,44.5
			c-1.6,0-3-1.3-3.1-2.9H20C19.9,43.2,18.5,44.5,16.9,44.5z M31.6,39.3c0,0.1-0.2,0.3-0.5,0.3H2.6c-0.3,0-0.4-0.2-0.5-0.3
			c0-0.1-0.1-0.3,0-0.5l2.1-4h25.2l2.1,4C31.7,39,31.7,39.2,31.6,39.3z"/>
	</g>
</g>
<g class="st26">
	<g>
		<path class="st25" d="M16.9,13.6c-5.2,0-9.4,4.2-9.4,9.4C7.5,23.6,8,24,8.5,24c0.6,0,1.1-0.5,1.1-1.1c0-4,3.3-7.3,7.3-7.3
			c0.6,0,1.1-0.5,1.1-1.1C17.9,14,17.5,13.6,16.9,13.6z"/>
	</g>
</g>
</svg>
