<?xml version="1.0" encoding="utf-8"?>
<!-- Generator: Adobe Illustrator 22.1.0, SVG Export Plug-In . SVG Version: 6.00 Build 0)  -->
<svg version="1.1" id="Layer_1" xmlns="http://www.w3.org/2000/svg" xmlns:xlink="http://www.w3.org/1999/xlink" x="0px" y="0px"
	 viewBox="0 0 63.1 36.2" style="enable-background:new 0 0 63.1 36.2;" xml:space="preserve">
<style type="text/css">
	.st0{fill:#FFB55A;}
	.st1{fill:#FFFFFF;}
	.st2{fill:#FF8C00;}
	.st3{fill:#BCBCBC;}
	.st4{fill:#38B9D6;}
	.st5{fill:none;stroke:#CC5464;stroke-width:2;stroke-miterlimit:10;}
	.st6{fill:none;stroke:#BCBCBC;stroke-width:4;stroke-linecap:round;stroke-linejoin:round;stroke-miterlimit:10;}
	.st7{fill:#CC5464;}
	.st8{fill:#FCC717;}
	.st9{fill:#777777;}
	.st10{fill:#E90088;}
	.st11{opacity:0.32;fill:#1DBC68;}
	.st12{fill:#1DBC68;}
	.st13{fill:#D3D3D3;}
	.st14{fill:#5E9CD2;}
	.st15{fill:#606060;}
	.st16{fill:none;stroke:#1DBC68;stroke-width:3;stroke-linecap:round;stroke-linejoin:round;stroke-miterlimit:10;}
	.st17{fill:#1CBB68;}
	.st18{fill:#CC5363;}
	.st19{opacity:0.4;}
	.st20{fill:#F4821F;}
	.st21{fill:#D6690A;}
	.st22{fill:#F5F5F5;}
	.st23{opacity:0.5;fill:#38B8D5;enable-background:new    ;}
	.st24{fill:#38B8D5;}
	.st25{fill:#3FB8D3;}
	.st26{fill:#178598;}
	.st27{fill:#2EA3BB;}
	.st28{fill:#E0EBFB;}
	.st29{fill:#CA5666;}
	.st30{fill:#A9CCFC;}
	.st31{fill:#F9A7A7;}
</style>
<g id="XMLID_6034_">
	<g id="XMLID_1428_">
		<path id="XMLID_6300_" class="st20" d="M60.4,22.6H2.6C1.2,22.6,0,21.4,0,20L0,2.6C0,1.2,1.2,0,2.6,0l57.8,0
			c1.4,0,2.6,1.2,2.6,2.6V20C63.1,21.4,61.9,22.6,60.4,22.6z"/>
	</g>
	<g id="XMLID_1294_">
		<g id="XMLID_1305_">
			<g id="XMLID_1309_">
				<path id="XMLID_2719_" class="st1" d="M57,29.5c1.1-0.8,1.5-2.2,0.9-3.5c-0.8-1.8-1.7-4.4-3.6-7.8c-0.8-1.5-3.4-4.6-3.4-4.6
					l-0.7-0.9c-0.6-0.8-1.8-1.1-2.7-0.6c-1,0.6-1.3,1.9-0.6,2.9l-1-1.4c-0.6-0.8-1.8-1.1-2.7-0.6c-1,0.6-1.3,1.9-0.6,2.9l-0.9-1.2
					c-0.6-0.8-1.8-1.1-2.7-0.6c-1,0.6-1.3,1.9-0.6,2.9l-4.1-5.5c-0.7-0.9-2-1.2-2.9-0.7c-1.1,0.7-1.4,2.2-0.6,3.2l9.5,12.8
					c-0.1,0-0.1,0-0.2-0.1C38,25.7,36.7,25,36.7,25l-0.9-0.4c-0.9-0.5-1.5-0.5-2.3,0c-0.5,0.3-0.7,0.7-0.8,1.4
					c-0.1,1.1,0.4,1.5,0.8,1.9l0.2,0.1c0,0,3.8,2.1,8.5,4.2c2,0.9,3.3,1.8,4.4,2.5c1,0.7,2.4,0.7,3.4,0L57,29.5z"/>
				<path id="XMLID_2720_" class="st21" d="M47.7,36.1c-0.6-0.1-1.2-0.3-1.7-0.7c-1.2-0.9-2.6-1.7-4.2-2.4c-4.6-2.1-8.5-4.2-8.5-4.3
					c0,0-0.1,0-0.1-0.1L33,28.6c0,0,0,0,0,0c-0.5-0.4-1.3-1.1-1.1-2.7c0.1-0.9,0.5-1.6,1.2-2c1.2-0.8,2.1-0.6,3.2-0.1l0.9,0.4
					c0,0,0,0,0.1,0c0,0,0.1,0.1,0.3,0.2l-7.2-9.8c-0.5-0.7-0.7-1.6-0.6-2.5c0.2-0.9,0.7-1.6,1.5-2.1c1.4-0.8,3.2-0.4,4.2,0.9
					l2.4,3.3c0.2-0.4,0.6-0.7,1-0.9c0.9-0.6,2.1-0.5,3,0c0.2-0.5,0.6-0.9,1.1-1.2c1-0.6,2.3-0.5,3.2,0.2c0.2-0.4,0.6-0.8,1-1.1
					c1.3-0.8,3-0.4,3.9,0.8l0.7,0.9c0.3,0.3,2.7,3.2,3.5,4.7c1.5,2.8,2.4,5,3.1,6.7c0.2,0.4,0.3,0.8,0.5,1.2
					c0.7,1.6,0.2,3.5-1.2,4.6l-7,5.2C49.7,36,48.7,36.3,47.7,36.1z M34.2,27.2c0.5,0.3,4.1,2.2,8.3,4.2c1.7,0.8,3.2,1.6,4.5,2.6
					c0.7,0.5,1.6,0.5,2.3,0l7-5.2c0.7-0.5,1-1.5,0.6-2.4c-0.2-0.4-0.3-0.8-0.5-1.2c-0.7-1.7-1.6-3.8-3-6.5c-0.7-1.4-3.2-4.4-3.3-4.4
					c0,0,0,0,0,0l-0.7-0.9c-0.3-0.5-1-0.6-1.4-0.3c-0.3,0.2-0.4,0.4-0.5,0.7c-0.1,0.3,0,0.6,0.2,0.8l0,0c0.3,0.4,0.2,1-0.2,1.3
					c-0.4,0.3-1,0.2-1.3-0.2l0,0l-1-1.4c-0.3-0.5-1-0.6-1.4-0.3c-0.3,0.2-0.4,0.4-0.5,0.7c-0.1,0.3,0,0.6,0.2,0.8
					c0.2,0.2,0.2,0.5,0.2,0.7c0,0.2-0.2,0.5-0.4,0.6c-0.4,0.3-1,0.2-1.3-0.2l-0.9-1.2c-0.3-0.5-1-0.6-1.4-0.3
					c-0.3,0.2-0.4,0.4-0.5,0.7c-0.1,0.3,0,0.6,0.2,0.8c0.2,0.2,0.2,0.5,0.2,0.7s-0.2,0.5-0.4,0.6c-0.4,0.3-1,0.2-1.3-0.2l-4.1-5.5
					c-0.4-0.6-1.2-0.7-1.7-0.4c-0.3,0.2-0.5,0.5-0.6,0.8c-0.1,0.4,0,0.7,0.2,1l9.5,12.8c0.2,0.3,0.2,0.8,0,1.1
					c-0.3,0.3-0.7,0.4-1.1,0.3c-0.1,0-0.1-0.1-0.2-0.1c-2.2-1-3.5-1.7-3.7-1.8l-0.9-0.4c0,0,0,0,0,0c-0.8-0.4-0.9-0.3-1.3,0
					c-0.2,0.2-0.4,0.3-0.4,0.7C33.6,26.6,33.7,26.8,34.2,27.2L34.2,27.2z"/>
			</g>
			<g id="XMLID_1308_">
				<line id="XMLID_2717_" class="st1" x1="42.8" y1="15.9" x2="45.1" y2="19"/>
				<path id="XMLID_2718_" class="st21" d="M44.9,19.9c-0.2,0-0.5-0.2-0.6-0.4L42,16.4c-0.3-0.4-0.2-1,0.2-1.3
					c0.4-0.3,1-0.2,1.3,0.2l2.3,3.1c0.3,0.4,0.2,1-0.2,1.3C45.4,19.9,45.2,20,44.9,19.9z"/>
			</g>
			<g id="XMLID_1307_">
				<line id="XMLID_2715_" class="st1" x1="38.7" y1="17" x2="41.9" y2="21.4"/>
				<path id="XMLID_2716_" class="st21" d="M41.8,22.3c-0.2,0-0.5-0.2-0.6-0.4l-3.2-4.4c-0.3-0.4-0.2-1,0.2-1.3
					c0.4-0.3,1-0.2,1.3,0.2l3.2,4.4c0.3,0.4,0.2,1-0.2,1.3C42.2,22.3,42,22.3,41.8,22.3z"/>
			</g>
			<g id="XMLID_1306_">
				<line id="XMLID_2713_" class="st1" x1="47" y1="15" x2="48.2" y2="16.7"/>
				<path id="XMLID_2714_" class="st21" d="M48.1,17.6c-0.2,0-0.5-0.2-0.6-0.4l-1.2-1.6c-0.3-0.4-0.2-1,0.2-1.3
					c0.4-0.3,1-0.2,1.3,0.2l1.2,1.6c0.3,0.4,0.2,1-0.2,1.3C48.6,17.6,48.3,17.6,48.1,17.6z"/>
			</g>
		</g>
		<g id="XMLID_1295_">
			<g id="XMLID_1302_">
				<g id="XMLID_1304_">
					<line id="XMLID_2711_" class="st15" x1="23.8" y1="19.6" x2="27.2" y2="17.1"/>
					<path id="XMLID_2712_" class="st22" d="M23.7,20.5c-0.2,0-0.5-0.2-0.6-0.4c-0.3-0.4-0.2-1,0.2-1.3l3.4-2.5
						c0.4-0.3,1-0.2,1.3,0.2c0.3,0.4,0.2,1-0.2,1.3l-3.4,2.5C24.1,20.5,23.9,20.6,23.7,20.5z"/>
				</g>
				<g id="XMLID_1303_">
					<line id="XMLID_2709_" class="st15" x1="38.7" y1="8.6" x2="42.1" y2="6.1"/>
					<path id="XMLID_2710_" class="st22" d="M38.6,9.5c-0.2,0-0.5-0.2-0.6-0.4c-0.3-0.4-0.2-1,0.2-1.3l3.4-2.5
						c0.4-0.3,1-0.2,1.3,0.2c0.3,0.4,0.2,1-0.2,1.3l-3.4,2.5C39.1,9.5,38.8,9.5,38.6,9.5z"/>
				</g>
			</g>
			<g id="XMLID_1300_">
				<g id="XMLID_1301_">
					<line id="XMLID_2707_" class="st15" x1="34" y1="5.7" x2="34.6" y2="1.6"/>
					<path id="XMLID_2708_" class="st22" d="M33.9,6.6c-0.5-0.1-0.9-0.5-0.8-1l0.6-4.2c0.1-0.5,0.5-0.9,1-0.8c0.5,0.1,0.9,0.5,0.8,1
						l-0.6,4.2C34.8,6.4,34.4,6.7,33.9,6.6z"/>
				</g>
			</g>
			<g id="XMLID_1298_">
				<g id="XMLID_1299_">
					<line id="XMLID_2705_" class="st15" x1="28.7" y1="7.1" x2="26.2" y2="3.7"/>
					<path id="XMLID_2706_" class="st22" d="M28.5,8c-0.2,0-0.5-0.2-0.6-0.4l-2.5-3.4c-0.3-0.4-0.2-1,0.2-1.3c0.4-0.3,1-0.2,1.3,0.2
						l2.5,3.4c0.3,0.4,0.2,1-0.2,1.3C29,8,28.8,8,28.5,8z"/>
				</g>
			</g>
			<g id="XMLID_1296_">
				<g id="XMLID_1297_">
					<line id="XMLID_2703_" class="st15" x1="25.8" y1="11.8" x2="21.7" y2="11.2"/>
					<path id="XMLID_2704_" class="st22" d="M25.7,12.7l-4.2-0.6c-0.5-0.1-0.9-0.5-0.8-1c0.1-0.5,0.5-0.9,1-0.8l4.2,0.6
						c0.5,0.1,0.9,0.5,0.8,1C26.7,12.4,26.2,12.8,25.7,12.7z"/>
				</g>
			</g>
		</g>
	</g>
</g>
</svg>
