<?xml version="1.0" encoding="utf-8"?>
<!-- Generator: Adobe Illustrator 22.1.0, SVG Export Plug-In . SVG Version: 6.00 Build 0)  -->
<svg version="1.1" id="Layer_1" xmlns="http://www.w3.org/2000/svg" xmlns:xlink="http://www.w3.org/1999/xlink" x="0px" y="0px"
	 viewBox="0 0 50.4 25.2" style="enable-background:new 0 0 50.4 25.2;" xml:space="preserve">
<style type="text/css">
	.st0{fill:#FFB55A;}
	.st1{fill:#FFFFFF;}
	.st2{fill:#FF8C00;}
	.st3{fill:#BCBCBC;}
	.st4{fill:#38B9D6;}
	.st5{fill:none;stroke:#CC5464;stroke-width:2;stroke-miterlimit:10;}
	.st6{fill:none;stroke:#BCBCBC;stroke-width:4;stroke-linecap:round;stroke-linejoin:round;stroke-miterlimit:10;}
	.st7{fill:#CC5464;}
	.st8{fill:#FCC717;}
	.st9{fill:#777777;}
	.st10{fill:#E90088;}
	.st11{opacity:0.32;fill:#1DBC68;}
	.st12{fill:#1DBC68;}
	.st13{fill:#D3D3D3;}
	.st14{fill:#5E9CD2;}
	.st15{fill:none;stroke:#CC5464;stroke-linecap:round;stroke-linejoin:round;stroke-miterlimit:10;}
	.st16{fill:none;stroke:#1DBC68;stroke-linecap:round;stroke-miterlimit:10;}
	.st17{fill:#606060;}
	.st18{fill:none;stroke:#D3D3D3;stroke-width:2;stroke-linecap:round;stroke-linejoin:round;stroke-miterlimit:10;}
	.st19{fill:none;stroke:#D3D3D3;stroke-width:2;stroke-miterlimit:10;}
	.st20{fill:none;stroke:#D3D3D3;stroke-width:2;stroke-linecap:round;stroke-miterlimit:10;}
	.st21{fill:none;stroke:#CC5464;stroke-width:2;stroke-linecap:round;stroke-linejoin:round;stroke-miterlimit:10;}
	.st22{fill:none;stroke:#1DBC68;stroke-width:2;stroke-linecap:round;stroke-miterlimit:10;}
	.st23{fill:none;stroke:#1DBC68;stroke-width:3;stroke-linecap:round;stroke-linejoin:round;stroke-miterlimit:10;}
	.st24{font-family:'NewsGothicMT-Bold';}
	.st25{font-size:23.1059px;}
	.st26{font-size:14.9664px;}
	.st27{fill:#1CBB68;}
	.st28{fill:#CC5363;}
	.st29{opacity:0.4;}
	.st30{fill:#F4821F;}
	.st31{fill:#D6690A;}
	.st32{fill:#F5F5F5;}
	.st33{opacity:0.5;fill:#38B8D5;enable-background:new    ;}
	.st34{fill:#38B8D5;}
	.st35{fill:#3FB8D3;}
	.st36{fill:#178598;}
	.st37{fill:#2EA3BB;}
	.st38{fill:#E0EBFB;}
	.st39{fill:#CA5666;}
	.st40{fill:#A9CCFC;}
	.st41{fill:#F9A7A7;}
</style>
<rect x="0.8" y="0.6" class="st0" width="48.7" height="23.4"/>
<path class="st2" d="M47.9,0H2.5C1.1,0,0,1.1,0,2.5v20.2c0,1.4,1.1,2.5,2.5,2.5h45.4c1.4,0,2.5-1.1,2.5-2.5V2.5
	C50.4,1.1,49.3,0,47.9,0z M17.7,1.7h14.3v21.9H2.5c-0.5,0-0.8-0.3-0.8-0.8V2.5C1.7,2,2,1.7,2.5,1.7H16H17.7z M48.8,13.5v9.2
	c0,0.5-0.3,0.8-0.8,0.8H33.6V13.5 M33.6,11.8V1.7h14.3c0.5,0,0.8,0.3,0.8,0.8v9.2"/>
<text transform="matrix(1 0 0 1 5.6739 15.2438)" class="st1 st24 st25">...</text>
<path class="st0" d="M47.2,14H35.2c-0.8,0-1.5-0.7-1.5-1.5v0c0-0.8,0.7-1.5,1.5-1.5h12.1c0.8,0,1.5,0.7,1.5,1.5v0
	C48.8,13.3,48.1,14,47.2,14z"/>
<text transform="matrix(1 0 0 1 35.9405 17.4089)" class="st1 st24 st26">#</text>
</svg>
