<?xml version="1.0" encoding="utf-8"?>
<!-- Generator: Adobe Illustrator 22.1.0, SVG Export Plug-In . SVG Version: 6.00 Build 0)  -->
<svg version="1.1" id="Layer_1" xmlns="http://www.w3.org/2000/svg" xmlns:xlink="http://www.w3.org/1999/xlink" x="0px" y="0px"
	 viewBox="0 0 48.9 49" style="enable-background:new 0 0 48.9 49;" xml:space="preserve">
<style type="text/css">
	.st0{fill:#FFB55A;}
	.st1{fill:#FFFFFF;}
	.st2{fill:#FF8C00;}
	.st3{fill:#BCBCBC;}
	.st4{fill:#38B9D6;}
	.st5{fill:none;stroke:#CC5464;stroke-width:2;stroke-miterlimit:10;}
	.st6{fill:none;stroke:#BCBCBC;stroke-width:4;stroke-linecap:round;stroke-linejoin:round;stroke-miterlimit:10;}
	.st7{fill:#CC5464;}
	.st8{fill:#FCC717;}
	.st9{fill:#777777;}
	.st10{fill:#E90088;}
	.st11{opacity:0.32;fill:#1DBC68;}
	.st12{fill:#1DBC68;}
	.st13{fill:#D3D3D3;}
	.st14{fill:#5E9CD2;}
	.st15{fill:none;stroke:#CC5464;stroke-linecap:round;stroke-linejoin:round;stroke-miterlimit:10;}
	.st16{fill:none;stroke:#1DBC68;stroke-linecap:round;stroke-miterlimit:10;}
	.st17{fill:#606060;}
	.st18{fill:none;stroke:#D3D3D3;stroke-width:2;stroke-linecap:round;stroke-linejoin:round;stroke-miterlimit:10;}
	.st19{fill:none;stroke:#D3D3D3;stroke-width:2;stroke-miterlimit:10;}
	.st20{fill:none;stroke:#D3D3D3;stroke-width:2;stroke-linecap:round;stroke-miterlimit:10;}
	.st21{fill:none;stroke:#CC5464;stroke-width:2;stroke-linecap:round;stroke-linejoin:round;stroke-miterlimit:10;}
	.st22{fill:none;stroke:#1DBC68;stroke-width:2;stroke-linecap:round;stroke-miterlimit:10;}
	.st23{fill:none;stroke:#1DBC68;stroke-width:3;stroke-linecap:round;stroke-linejoin:round;stroke-miterlimit:10;}
	.st24{fill:#1CBB68;}
	.st25{fill:#CC5363;}
	.st26{opacity:0.4;}
	.st27{fill:#F4821F;}
	.st28{fill:#D6690A;}
	.st29{fill:#F5F5F5;}
	.st30{opacity:0.5;fill:#38B8D5;enable-background:new    ;}
	.st31{fill:#38B8D5;}
	.st32{fill:#3FB8D3;}
	.st33{fill:#178598;}
	.st34{fill:#2EA3BB;}
	.st35{fill:#E0EBFB;}
	.st36{fill:#CA5666;}
	.st37{fill:#A9CCFC;}
	.st38{fill:#F9A7A7;}
</style>
<g>
	<path class="st4" d="M31.3,37.3C31,36.9,30.5,36.8,30,37c-2.1,1.2-4.5,1.8-6.9,1.8c-7.3-0.2-13.1-6.3-12.9-13.6
		c0.2-6.5,5.2-12,11.7-12.8c0.5-0.1,0.9-0.5,0.9-1L23,3.2c0-0.6-0.4-1-1-1C10.2,1.8,0.3,12.1,0,25s9.9,23.7,22.8,24
		c5.8,0.1,8.9-0.8,13-4c0.4-0.3,0.5-1,0.2-1.4L31.3,37.3z"/>
	<path class="st8" d="M25.5,10.2c7.3,0,13.2,5.9,13.2,13.2c0,0.6,0.5,1,1,1h8.1c0.6,0,1-0.5,1-1C48.9,10.5,38.4,0,25.5,0
		c-0.6,0-1,0.5-1,1v8.1C24.4,9.7,24.9,10.2,25.5,10.2z"/>
	<path class="st7" d="M47.8,26.5h-8.3c-0.5,0-0.9,0.4-1,0.9c-0.5,3.2-2.1,6.1-4.6,8.2c-0.4,0.4-0.5,1-0.1,1.4l6.1,7.5
		c0.2,0.2,0.4,0.4,0.7,0.4c0,0,0,0,0.1,0c0.3,0,0.5-0.1,0.7-0.3c4.7-4.4,7.4-10.7,7.4-17.1C48.9,26.9,48.4,26.5,47.8,26.5z"/>
</g>
</svg>
