<?xml version="1.0" encoding="utf-8"?>
<!-- Generator: Adobe Illustrator 22.1.0, SVG Export Plug-In . SVG Version: 6.00 Build 0)  -->
<svg version="1.1" id="Layer_1" xmlns="http://www.w3.org/2000/svg" xmlns:xlink="http://www.w3.org/1999/xlink" x="0px" y="0px"
	 viewBox="0 0 52 49.6" style="enable-background:new 0 0 52 49.6;" xml:space="preserve">
<style type="text/css">
	.st0{fill:#FFB55A;}
	.st1{fill:#FFFFFF;}
	.st2{fill:#FF8C00;}
	.st3{fill:#BCBCBC;}
	.st4{fill:#38B9D6;}
	.st5{fill:none;stroke:#CC5464;stroke-width:2;stroke-miterlimit:10;}
	.st6{fill:none;stroke:#BCBCBC;stroke-width:4;stroke-linecap:round;stroke-linejoin:round;stroke-miterlimit:10;}
	.st7{fill:#CC5464;}
	.st8{fill:#FCC717;}
	.st9{fill:#777777;}
	.st10{fill:#E90088;}
	.st11{opacity:0.32;fill:#1DBC68;}
	.st12{fill:#1DBC68;}
	.st13{fill:#D3D3D3;}
	.st14{fill:#5E9CD2;}
	.st15{fill:#606060;}
	.st16{fill:none;stroke:#1DBC68;stroke-width:3;stroke-linecap:round;stroke-linejoin:round;stroke-miterlimit:10;}
	.st17{fill:#1CBB68;}
	.st18{fill:#CC5363;}
	.st19{opacity:0.4;}
	.st20{fill:#F4821F;}
	.st21{fill:#D6690A;}
	.st22{fill:#F5F5F5;}
	.st23{opacity:0.5;fill:#38B8D5;enable-background:new    ;}
	.st24{fill:#38B8D5;}
	.st25{fill:#3FB8D3;}
	.st26{fill:#178598;}
	.st27{fill:#2EA3BB;}
	.st28{fill:#E0EBFB;}
	.st29{fill:#CA5666;}
	.st30{fill:#A9CCFC;}
	.st31{fill:#F9A7A7;}
	.st32{fill:url(#SVGID_1_);}
	.st33{fill:#FCC717;stroke:#777777;stroke-miterlimit:10;}
	.st34{fill:none;stroke:#777777;stroke-miterlimit:10;}
	.st35{fill:#2E92A3;}
	.st36{fill:#056575;}
	.st37{fill:#F2932C;}
	.st38{fill:#A5384A;}
	.st39{fill:#701629;}
</style>
<g>
	<rect x="0.1" y="46.7" class="st9" width="51.9" height="2.8"/>
	
		<linearGradient id="SVGID_1_" gradientUnits="userSpaceOnUse" x1="5.3343" y1="-65.5293" x2="47.0179" y2="-65.5293" gradientTransform="matrix(1 0 0 1 0 89)">
		<stop  offset="0" style="stop-color:#97D7E5"/>
		<stop  offset="1" style="stop-color:#43BBD7"/>
	</linearGradient>
	<path class="st32" d="M35.4,8.4c0-3.2,2.6-5.8,5.8-5.8c3.2,0,5.8,2.6,5.8,5.8s-2.6,5.8-5.8,5.8C38,14.2,35.4,11.6,35.4,8.4z
		 M39.3,8.4c0,1.1,0.9,1.9,1.9,1.9c1.1,0,1.9-0.9,1.9-1.9s-0.9-1.9-1.9-1.9C40.2,6.5,39.3,7.4,39.3,8.4z M10.2,24.5
		c0-3.2,2.6-5.8,5.8-5.8s5.8,2.6,5.8,5.8s-2.6,5.8-5.8,5.8S10.2,27.7,10.2,24.5z M14,24.5c0,1.1,0.9,1.9,1.9,1.9s1.9-0.9,1.9-1.9
		c0-1.1-0.9-1.9-1.9-1.9S14,23.5,14,24.5z M5.3,38.5c0-3.2,2.6-5.8,5.8-5.8s5.8,2.6,5.8,5.8s-2.6,5.8-5.8,5.8S5.3,41.7,5.3,38.5z
		 M9.2,38.5c0,1.1,0.9,1.9,1.9,1.9s1.9-0.9,1.9-1.9s-0.9-1.9-1.9-1.9S9.2,37.5,9.2,38.5z M32.1,36.4c0,3.2-2.6,5.8-5.8,5.8
		s-5.8-2.6-5.8-5.8s2.6-5.8,5.8-5.8S32.1,33.2,32.1,36.4z M28.2,36.4c0-1.1-0.9-1.9-1.9-1.9s-1.9,0.9-1.9,1.9s0.9,1.9,1.9,1.9
		S28.2,37.5,28.2,36.4z M31.1,24.8c0-3.2,2.6-5.8,5.8-5.8c3.2,0,5.8,2.6,5.8,5.8s-2.6,5.8-5.8,5.8C33.7,30.6,31.1,28,31.1,24.8z
		 M35,24.8c0,1.1,0.9,1.9,1.9,1.9c1.1,0,1.9-0.9,1.9-1.9c0-1.1-0.9-1.9-1.9-1.9C35.8,22.9,35,23.8,35,24.8z M20.5,13.2
		c0-3.2,2.6-5.8,5.8-5.8s5.8,2.6,5.8,5.8S29.5,19,26.3,19S20.5,16.4,20.5,13.2z M24.3,13.2c0,1.1,0.9,1.9,1.9,1.9s1.9-0.9,1.9-1.9
		s-0.9-1.9-1.9-1.9S24.3,12.2,24.3,13.2z"/>
</g>
</svg>
