<?xml version="1.0" encoding="utf-8"?>
<!-- Generator: Adobe Illustrator 22.1.0, SVG Export Plug-In . SVG Version: 6.00 Build 0)  -->
<svg version="1.1" id="Layer_1" xmlns="http://www.w3.org/2000/svg" xmlns:xlink="http://www.w3.org/1999/xlink" x="0px" y="0px"
	 viewBox="0 0 53.4 48.6" style="enable-background:new 0 0 53.4 48.6;" xml:space="preserve">
<style type="text/css">
	.st0{fill:#FFB55A;}
	.st1{fill:#FFFFFF;}
	.st2{fill:#FF8C00;}
	.st3{fill:#BCBCBC;}
	.st4{fill:#38B9D6;}
	.st5{fill:none;stroke:#CC5464;stroke-width:2;stroke-miterlimit:10;}
	.st6{fill:none;stroke:#BCBCBC;stroke-width:4;stroke-linecap:round;stroke-linejoin:round;stroke-miterlimit:10;}
	.st7{fill:#CC5464;}
	.st8{fill:#FCC717;}
	.st9{fill:#777777;}
	.st10{fill:#E90088;}
	.st11{opacity:0.32;fill:#1DBC68;}
	.st12{fill:#1DBC68;}
	.st13{fill:#D3D3D3;}
	.st14{fill:#5E9CD2;}
	.st15{fill:#606060;}
	.st16{fill:none;stroke:#1DBC68;stroke-width:3;stroke-linecap:round;stroke-linejoin:round;stroke-miterlimit:10;}
	.st17{fill:#1CBB68;}
	.st18{fill:#CC5363;}
	.st19{opacity:0.4;}
	.st20{fill:#F4821F;}
	.st21{fill:#D6690A;}
	.st22{fill:#F5F5F5;}
	.st23{opacity:0.5;fill:#38B8D5;enable-background:new    ;}
	.st24{fill:#38B8D5;}
	.st25{fill:#3FB8D3;}
	.st26{fill:#178598;}
	.st27{fill:#2EA3BB;}
	.st28{fill:#E0EBFB;}
	.st29{fill:#CA5666;}
	.st30{fill:#A9CCFC;}
	.st31{fill:#F9A7A7;}
</style>
<g>
	<path class="st4" d="M36.5,0c1.5,0.1,1-0.3,1.5,0.7c0.2,2.6,0.2,2.6,0.9,10.5c0.2,2.7,0.1,1.7,0.3,3c0.1-0.7,0.2-1.4,0.4-2.1
		c0.2-1.1,1.8-1.1,1.9,0c0.2,1.7,0.5,3.4,0.7,5.2c0.5,3.6,0.3,2.3,0.6,4.1c0.2-0.8,0.5-1.6,0.7-2.4c0.3-1,1.8-0.9,1.9,0.1
		c0.2,1.8,0.2,1.8,0.9,7.3l0.1,0.4c0.2-1.2,0.4-2.4,0.6-3.7l0-0.2c0.3-0.9,0.3-0.9,1.3-3.6c1-2.7,1-2.7,1.3-3.6l1.8,0.7
		c-0.3,0.9-0.7,1.8-1,2.7c-0.5,1.5-1.1,2.9-1.6,4.4c-0.3,1.7-0.5,3.4-0.8,5.2c-0.6,4-0.6,4-0.8,5.3c-0.2,1.1-1.8,1.1-1.9,0
		c-0.2-1.8-0.2-1.8-0.9-7.3c-0.3-2.1-0.1-1.2-0.3-2.6c-0.2,0.7-0.4,1.5-0.6,2.2c-0.3,1-1.7,0.9-1.9-0.1c-0.2-1.7-0.2-1.7-1-6.9
		l-0.1-0.7c-0.2,1.2-0.4,2.3-0.6,3.5c-0.2,1.1-1.8,1.1-1.9-0.1c-0.2-2.6-0.2-2.6-0.9-10.5c-0.3-3.1-0.1-1.7-0.3-4
		c-0.4,2.1-0.9,4.2-1.3,6.2c-0.2,1-1.6,1-1.9,0c-0.3-1-0.5-2.1-0.8-3.1c-0.4,1.7-0.2,0.8-0.6,2.9c-1.1,5.2-1.1,5.2-1.5,7
		c-0.2,1-1.7,1-1.9,0c-0.1-0.7-0.3-1.5-0.4-2.2c-0.4,1.7-0.1,0.7-0.6,3c-1.3,5.9-1.3,5.9-1.7,7.8c-0.2,1-1.6,1-1.9,0
		c-0.2-0.9-0.5-1.8-0.7-2.7l-0.2,1c-0.8,3.7-0.8,3.7-1,4.9c-0.2,1-1.6,1-1.9,0.1c-0.4-1.3-0.4-1.3-1.4-5.2c-0.5-1.7-0.2-0.9-0.7-2.5
		l0,0c-0.8,1.9-0.8,1.9-1.1,2.5c-0.4,0.9-1.6,0.7-1.8-0.2c-0.2-0.9-0.4-1.7-0.5-2.6c-0.3,1.6-0.1,0.6-0.6,2.9
		c-1.1,5.7-1.1,5.7-1.5,7.6c-0.2,1.1-1.7,1-1.9,0c-0.2-1.1-0.4-2.2-0.6-3.4c-0.2,0.9-0.1,0.3-0.5,1.9c-1.2,4.7-1.2,4.7-1.6,6.2
		c-0.2,0.9-1.6,1-1.9,0c-0.2-0.6-0.1-0.3-0.3-1.1c-0.3,1.4-0.5,2.8-0.8,4.2L3,42.2c0.2-1,0.4-2,0.6-3c0.3-1.7,0.6-3.4,0.9-5.1
		c0.2-1,1.6-1.1,1.9-0.1c0.2,0.5,0.3,1.1,0.5,1.6c0.5-1.9,0.2-0.9,0.8-2.9c1.2-4.7,1.2-4.7,1.6-6.2c0.3-1,1.7-0.9,1.9,0.1
		c0.1,0.9,0.3,1.7,0.4,2.6c0.2-1.2,0.1-0.4,0.5-2.5c1.1-5.7,1.1-5.7,1.5-7.6c0.2-1,1.7-1,1.9,0c0.2,0.9,0.2,0.9,0.7,3.7l0.1,0.7
		c0.3-0.8,0.7-1.5,1-2.3c0.4-0.8,1.6-0.7,1.8,0.1c0.4,1.3,0.4,1.3,1.4,5.2c0.4,1.3,0.2,0.9,0.4,1.3l0.2-1c0.8-3.7,0.8-3.7,1-4.9
		c0.2-1,1.6-1,1.9-0.1c0.2,0.9,0.5,1.8,0.8,2.8l0.4-2c0.7-3.2,1.4-6.5,2.1-9.7c0.2-1,1.7-1,1.9,0c0.1,0.7,0.3,1.5,0.4,2.2
		c0.2-0.9,0.1-0.2,0.4-2.1c1.1-5.2,1.1-5.2,1.5-7c0.2-1,1.6-1,1.9,0c0.3,1,0.5,2.1,0.8,3.1c0.2-1.2,0.1-0.4,0.5-2.2
		c1-4.7,1-4.7,1.3-6.3L36.5,0z"/>
</g>
<rect x="0.4" y="45.4" class="st9" width="53" height="2.9"/>
</svg>
