<?xml version="1.0" encoding="utf-8"?>
<!-- Generator: Adobe Illustrator 22.1.0, SVG Export Plug-In . SVG Version: 6.00 Build 0)  -->
<svg version="1.1" id="Layer_1" xmlns="http://www.w3.org/2000/svg" xmlns:xlink="http://www.w3.org/1999/xlink" x="0px" y="0px"
	 viewBox="0 0 58.1 29" style="enable-background:new 0 0 58.1 29;" xml:space="preserve">
<style type="text/css">
	.st0{fill:#FFB55A;}
	.st1{fill:#FFFFFF;}
	.st2{fill:#FF8C00;}
	.st3{fill:#BCBCBC;}
	.st4{fill:#38B9D6;}
	.st5{fill:none;stroke:#CC5464;stroke-width:2;stroke-miterlimit:10;}
	.st6{fill:none;stroke:#BCBCBC;stroke-width:4;stroke-linecap:round;stroke-linejoin:round;stroke-miterlimit:10;}
	.st7{fill:#CC5464;}
	.st8{fill:#FCC717;}
	.st9{fill:#777777;}
	.st10{fill:#E90088;}
	.st11{opacity:0.32;fill:#1DBC68;}
	.st12{fill:#1DBC68;}
	.st13{fill:#D3D3D3;}
	.st14{fill:#5E9CD2;}
	.st15{fill:none;stroke:#CC5464;stroke-linecap:round;stroke-linejoin:round;stroke-miterlimit:10;}
	.st16{fill:none;stroke:#1DBC68;stroke-linecap:round;stroke-miterlimit:10;}
	.st17{fill:#606060;}
	.st18{fill:none;stroke:#D3D3D3;stroke-width:2;stroke-linecap:round;stroke-linejoin:round;stroke-miterlimit:10;}
	.st19{fill:none;stroke:#D3D3D3;stroke-width:2;stroke-miterlimit:10;}
	.st20{fill:none;stroke:#D3D3D3;stroke-width:2;stroke-linecap:round;stroke-miterlimit:10;}
	.st21{fill:none;stroke:#CC5464;stroke-width:2;stroke-linecap:round;stroke-linejoin:round;stroke-miterlimit:10;}
	.st22{fill:none;stroke:#1DBC68;stroke-width:2;stroke-linecap:round;stroke-miterlimit:10;}
	.st23{fill:none;stroke:#1DBC68;stroke-width:3;stroke-linecap:round;stroke-linejoin:round;stroke-miterlimit:10;}
	.st24{fill:#1CBB68;}
	.st25{fill:#CC5363;}
	.st26{opacity:0.4;}
	.st27{fill:#F4821F;}
	.st28{fill:#D6690A;}
	.st29{fill:#F5F5F5;}
	.st30{opacity:0.5;fill:#38B8D5;enable-background:new    ;}
	.st31{fill:#38B8D5;}
	.st32{fill:#3FB8D3;}
	.st33{fill:#178598;}
	.st34{fill:#2EA3BB;}
	.st35{fill:#E0EBFB;}
	.st36{fill:#CA5666;}
	.st37{fill:#A9CCFC;}
	.st38{fill:#F9A7A7;}
</style>
<g>
	<g>
		<path class="st3" d="M58.1,29H47.2c0-10-8.2-18.2-18.2-18.2c-4.9,0-9.4,1.9-12.8,5.3L8.5,8.5C14,3,21.3,0,29,0
			C45,0,58.1,13,58.1,29z"/>
	</g>
	<g>
		<path class="st4" d="M10.9,29H0c0-7.8,3-15,8.5-20.5l7.7,7.7C12.8,19.6,10.9,24.2,10.9,29z"/>
	</g>
</g>
<g>
	<path class="st4" d="M17.8,27.4l0.9-1.2c0.5,0.5,1.1,0.8,1.8,0.8c0.8,0,1.4-0.4,1.4-1c0-0.7-0.4-1.2-2.2-1.2v-1.4
		c1.5,0,2-0.4,2-1.1c0-0.6-0.4-0.9-1-0.9c-0.6,0-1,0.3-1.6,0.7L18,21c0.8-0.7,1.6-1.1,2.6-1.1c1.7,0,2.9,0.8,2.9,2.3
		c0,0.9-0.5,1.5-1.4,1.8v0.1c1,0.3,1.7,1,1.7,2c0,1.5-1.4,2.4-3.1,2.4C19.3,28.6,18.4,28.1,17.8,27.4z"/>
	<path class="st4" d="M24.9,24.2c0-2.8,1.2-4.3,3-4.3c1.8,0,3,1.5,3,4.3s-1.2,4.4-3,4.4C26.1,28.6,24.9,27,24.9,24.2z M29,24.2
		c0-2.3-0.5-2.8-1.2-2.8c-0.6,0-1.2,0.5-1.2,2.8c0,2.3,0.5,2.9,1.2,2.9C28.5,27.1,29,26.5,29,24.2z"/>
	<path class="st4" d="M31.7,22.4c0-1.7,0.9-2.7,2.1-2.7c1.2,0,2.1,1,2.1,2.7c0,1.7-0.9,2.7-2.1,2.7C32.5,25.1,31.7,24.1,31.7,22.4z
		 M34.6,22.4c0-1.2-0.4-1.6-0.8-1.6S33,21.2,33,22.4s0.4,1.7,0.8,1.7S34.6,23.6,34.6,22.4z M38.7,19.7h1.1l-4.6,8.9h-1.1L38.7,19.7z
		 M38,25.8c0-1.7,0.9-2.7,2.1-2.7c1.2,0,2.1,1,2.1,2.7c0,1.7-0.9,2.7-2.1,2.7C38.9,28.6,38,27.5,38,25.8z M40.9,25.8
		c0-1.2-0.4-1.6-0.8-1.6s-0.8,0.4-0.8,1.6s0.4,1.7,0.8,1.7S40.9,27,40.9,25.8z"/>
</g>
</svg>
