<?xml version="1.0" encoding="utf-8"?>
<!-- Generator: Adobe Illustrator 22.1.0, SVG Export Plug-In . SVG Version: 6.00 Build 0)  -->
<svg version="1.1" id="Layer_1" xmlns="http://www.w3.org/2000/svg" xmlns:xlink="http://www.w3.org/1999/xlink" x="0px" y="0px"
	 viewBox="0 0 48 48" style="enable-background:new 0 0 48 48;" xml:space="preserve">
<style type="text/css">
	.st0{fill:#FFB55A;}
	.st1{fill:#FFFFFF;}
	.st2{fill:#FF8C00;}
	.st3{fill:none;stroke:#BCBCBC;stroke-width:18;stroke-miterlimit:10;}
	.st4{fill:none;stroke:#38B9D6;stroke-width:18;stroke-miterlimit:10;}
	.st5{fill:#38B9D6;}
	.st6{fill:none;stroke:#CC5464;stroke-width:2;stroke-miterlimit:10;}
	.st7{fill:none;stroke:#BCBCBC;stroke-width:4;stroke-linecap:round;stroke-linejoin:round;stroke-miterlimit:10;}
	.st8{fill:#CC5464;}
	.st9{fill:#FCC717;}
	.st10{fill:#777777;}
	.st11{fill:#E90088;}
	.st12{opacity:0.32;fill:#1DBC68;}
	.st13{fill:#1DBC68;}
	.st14{fill:#D3D3D3;}
	.st15{fill:#BCBCBC;}
	.st16{fill:#5E9CD2;}
	.st17{fill:#606060;}
	.st18{fill:none;stroke:#1DBC68;stroke-width:3;stroke-linecap:round;stroke-linejoin:round;stroke-miterlimit:10;}
	.st19{fill:none;stroke:#D3D3D3;stroke-width:3;stroke-miterlimit:10;}
</style>
<g>
	<path class="st19" d="M1.5,7.1v33.8c0,3.1,2.5,5.6,5.6,5.6h33.8c3.1,0,5.6-2.5,5.6-5.6V7.1c0-3.1-2.5-5.6-5.6-5.6H7.1
		C4,1.5,1.5,4,1.5,7.1z"/>
	<path class="st11" d="M15.9,43H7.7C6.2,43,5,41.8,5,40.3v-2.7h10.9V43z"/>
	<rect x="5" y="29.5" class="st11" width="10.9" height="5.4"/>
	<rect x="5" y="21.3" class="st11" width="10.9" height="5.4"/>
	<rect x="18.6" y="29.5" class="st11" width="10.9" height="5.4"/>
	<rect x="18.6" y="13.2" class="st13" width="10.9" height="5.4"/>
	<path class="st13" d="M40.3,43h-8.1v-5.4H43v2.7C43,41.8,41.8,43,40.3,43z"/>
	<rect x="32.1" y="29.5" class="st13" width="10.9" height="5.4"/>
	<rect x="32.1" y="21.3" class="st13" width="10.9" height="5.4"/>
	<path class="st9" d="M43,10.5H32.1V5h8.1C41.8,5,43,6.3,43,7.8V10.5z"/>
</g>
</svg>
