<?xml version="1.0" encoding="utf-8"?>
<!-- Generator: Adobe Illustrator 22.1.0, SVG Export Plug-In . SVG Version: 6.00 Build 0)  -->
<svg version="1.1" id="Layer_1" xmlns="http://www.w3.org/2000/svg" xmlns:xlink="http://www.w3.org/1999/xlink" x="0px" y="0px"
	 viewBox="0 0 65.3 49.6" style="enable-background:new 0 0 65.3 49.6;" xml:space="preserve">
<style type="text/css">
	.st0{fill:#FFB55A;}
	.st1{fill:#FFFFFF;}
	.st2{fill:#FF8C00;}
	.st3{fill:#BCBCBC;}
	.st4{fill:#38B9D6;}
	.st5{fill:none;stroke:#CC5464;stroke-width:2;stroke-miterlimit:10;}
	.st6{fill:none;stroke:#BCBCBC;stroke-width:4;stroke-linecap:round;stroke-linejoin:round;stroke-miterlimit:10;}
	.st7{fill:#CC5464;}
	.st8{fill:#FCC717;}
	.st9{fill:#777777;}
	.st10{fill:#E90088;}
	.st11{opacity:0.32;fill:#1DBC68;}
	.st12{fill:#1DBC68;}
	.st13{fill:#D3D3D3;}
	.st14{fill:#5E9CD2;}
	.st15{fill:#606060;}
	.st16{fill:none;stroke:#1DBC68;stroke-width:3;stroke-linecap:round;stroke-linejoin:round;stroke-miterlimit:10;}
	.st17{fill:#1CBB68;}
	.st18{fill:#CC5363;}
	.st19{opacity:0.4;}
	.st20{fill:#F4821F;}
	.st21{fill:#D6690A;}
	.st22{fill:#F5F5F5;}
	.st23{opacity:0.5;fill:#38B8D5;enable-background:new    ;}
	.st24{fill:#38B8D5;}
	.st25{fill:#3FB8D3;}
	.st26{fill:#178598;}
	.st27{fill:#2EA3BB;}
	.st28{fill:#E0EBFB;}
	.st29{fill:#CA5666;}
	.st30{fill:#A9CCFC;}
	.st31{fill:#F9A7A7;}
	.st32{fill:#FCC717;stroke:#777777;stroke-miterlimit:10;}
	.st33{fill:none;stroke:#777777;stroke-miterlimit:10;}
	.st34{fill:#2E92A3;}
	.st35{fill:#056575;}
	.st36{fill:#F2932C;}
	.st37{fill:#A5384A;}
	.st38{fill:#701629;}
</style>
<g>
	<rect x="8.2" y="8.2" class="st34" width="8.2" height="8.3"/>
	<rect y="8.2" class="st35" width="8.2" height="8.3"/>
	<rect x="24.5" y="8.2" class="st35" width="8.2" height="8.3"/>
	<rect x="16.3" y="8.2" class="st4" width="8.2" height="8.3"/>
	<rect x="40.8" y="8.2" class="st4" width="8.2" height="8.3"/>
	<rect x="32.7" y="8.2" class="st34" width="8.2" height="8.3"/>
	<rect x="57.2" y="8.2" class="st8" width="8.2" height="8.3"/>
	<rect x="49" y="8.2" class="st35" width="8.2" height="8.3"/>
</g>
<g>
	<rect x="8.2" y="-0.1" class="st35" width="8.2" height="8.3"/>
	<rect y="-0.1" class="st34" width="8.2" height="8.3"/>
	<rect x="24.5" y="-0.1" class="st4" width="8.2" height="8.3"/>
	<rect x="16.3" y="-0.1" class="st34" width="8.2" height="8.3"/>
	<rect x="40.8" y="-0.1" class="st34" width="8.2" height="8.3"/>
	<rect x="32.7" y="-0.1" class="st35" width="8.2" height="8.3"/>
	<rect x="57.2" y="-0.1" class="st35" width="8.2" height="8.3"/>
	<rect x="49" y="-0.1" class="st4" width="8.2" height="8.3"/>
</g>
<g>
	<rect x="16.3" y="24.2" class="st34" width="8.2" height="8.3"/>
	<rect x="8.2" y="24.2" class="st35" width="8.2" height="8.3"/>
	<rect x="32.7" y="24.2" class="st35" width="8.2" height="8.3"/>
	<rect x="24.5" y="24.2" class="st4" width="8.2" height="8.3"/>
	<rect y="24.2" class="st4" width="8.2" height="8.3"/>
	<rect x="49" y="24.2" class="st36" width="8.2" height="8.3"/>
	<rect x="40.8" y="24.2" class="st8" width="8.2" height="8.3"/>
	<rect x="57.2" y="24.2" class="st18" width="8.2" height="8.3"/>
</g>
<g>
	<rect x="8.2" y="32.5" class="st34" width="8.2" height="8.3"/>
	<rect y="32.5" class="st35" width="8.2" height="8.3"/>
	<rect x="24.5" y="32.5" class="st35" width="8.2" height="8.3"/>
	<rect x="16.3" y="32.5" class="st4" width="8.2" height="8.3"/>
	<rect x="40.8" y="32.5" class="st36" width="8.2" height="8.3"/>
	<rect x="32.7" y="32.5" class="st8" width="8.2" height="8.3"/>
	<rect x="57.2" y="32.5" class="st37" width="8.2" height="8.3"/>
	<rect x="49" y="32.5" class="st18" width="8.2" height="8.3"/>
</g>
<g>
	<rect x="0.2" y="40.7" class="st34" width="8.2" height="8.3"/>
	<rect x="16.5" y="40.7" class="st35" width="8.2" height="8.3"/>
	<rect x="8.3" y="40.7" class="st4" width="8.2" height="8.3"/>
	<rect x="32.8" y="40.7" class="st36" width="8.2" height="8.3"/>
	<rect x="57.2" y="40.7" class="st38" width="8.2" height="8.3"/>
	<rect x="24.7" y="40.7" class="st8" width="8.2" height="8.3"/>
	<rect x="49.2" y="40.7" class="st37" width="8.2" height="8.3"/>
	<rect x="41" y="40.7" class="st18" width="8.2" height="8.3"/>
</g>
<g>
	<rect x="16.3" y="15.9" class="st35" width="8.2" height="8.3"/>
	<rect x="8.2" y="15.9" class="st4" width="8.2" height="8.3"/>
	<rect x="32.7" y="15.9" class="st4" width="8.2" height="8.3"/>
	<rect x="24.5" y="15.9" class="st34" width="8.2" height="8.3"/>
	<rect y="15.9" class="st34" width="8.2" height="8.3"/>
	<rect x="49" y="15.9" class="st8" width="8.2" height="8.3"/>
	<rect x="40.8" y="15.9" class="st35" width="8.2" height="8.3"/>
	<rect x="57.2" y="15.9" class="st36" width="8.2" height="8.3"/>
</g>
</svg>
