<?xml version="1.0" encoding="utf-8"?>
<!-- Generator: Adobe Illustrator 22.1.0, SVG Export Plug-In . SVG Version: 6.00 Build 0)  -->
<svg version="1.1" id="Layer_1" xmlns="http://www.w3.org/2000/svg" xmlns:xlink="http://www.w3.org/1999/xlink" x="0px" y="0px"
	 viewBox="0 0 48.1 48" style="enable-background:new 0 0 48.1 48;" xml:space="preserve">
<style type="text/css">
	.st0{fill:#FFB55A;}
	.st1{fill:#FFFFFF;}
	.st2{fill:#FF8C00;}
	.st3{fill:none;stroke:#BCBCBC;stroke-width:18;stroke-miterlimit:10;}
	.st4{fill:none;stroke:#38B9D6;stroke-width:18;stroke-miterlimit:10;}
	.st5{fill:#38B9D6;}
	.st6{fill:none;stroke:#CC5464;stroke-width:2;stroke-miterlimit:10;}
	.st7{fill:none;stroke:#BCBCBC;stroke-width:4;stroke-linecap:round;stroke-linejoin:round;stroke-miterlimit:10;}
	.st8{fill:#CC5464;}
	.st9{fill:#FCC717;}
	.st10{fill:#777777;}
	.st11{fill:#E90088;}
	.st12{opacity:0.32;fill:#1DBC68;}
	.st13{fill:#1DBC68;}
	.st14{fill:#D3D3D3;}
	.st15{fill:#BCBCBC;}
	.st16{fill:#5E9CD2;}
	.st17{fill:#606060;}
	.st18{fill:none;stroke:#1DBC68;stroke-width:3;stroke-linecap:round;stroke-linejoin:round;stroke-miterlimit:10;}
	.st19{fill:none;stroke:#D3D3D3;stroke-width:3;stroke-miterlimit:10;}
</style>
<g>
	<g>
		<path class="st5" d="M40,31.7l-2.8-5.3l0,0l-0.1-0.2c-0.5-1.1-2-3.9-3.4-7c-0.4-0.8-0.7-1.5-1-2.3H0v20.7l14-11l11.3,9.9l6.6-9.2
			L43,38.7V26c-0.2,0.4-0.3,0.7-0.3,0.7L40,31.7z M20.5,27.8c-2,0-3.6-1.6-3.6-3.6c0-2,1.6-3.6,3.6-3.6s3.6,1.6,3.6,3.6
			C24.1,26.2,22.5,27.8,20.5,27.8z"/>
	</g>
	<g>
		<polygon class="st13" points="26.8,38 38.2,48 43,48 43,41.6 32.1,30.5 		"/>
	</g>
	<g>
		<polygon class="st13" points="0,40.3 0,48 35.1,48 14,29.3 		"/>
	</g>
	<g>
		<path class="st8" d="M46.3,3.2C44.7,1.2,42.3,0,40,0c-2.3,0-4.8,1.2-6.3,3.2c-1.5,1.8-2.1,4-1.6,6.2c0.4,1.8,1.5,4.8,3.5,9
			c1.8,3.8,3.6,7.2,3.6,7.3l0.9,1.7l0.9-1.7c0,0,0.9-1.7,2-4c2.9-6,4.6-10.1,5-12.3S47.8,5,46.3,3.2z M40,13c-2.5,0-4.6-2.1-4.6-4.6
			c0-2.5,2.1-4.6,4.6-4.6c2.5,0,4.6,2.1,4.6,4.6C44.6,11,42.5,13,40,13z"/>
	</g>
</g>
</svg>
