<?xml version="1.0" encoding="utf-8"?>
<!-- Generator: Adobe Illustrator 22.1.0, SVG Export Plug-In . SVG Version: 6.00 Build 0)  -->
<svg version="1.1" id="Layer_1" xmlns="http://www.w3.org/2000/svg" xmlns:xlink="http://www.w3.org/1999/xlink" x="0px" y="0px"
	 viewBox="0 0 52.4 49.2" style="enable-background:new 0 0 52.4 49.2;" xml:space="preserve">
<style type="text/css">
	.st0{fill:#FFB55A;}
	.st1{fill:#FFFFFF;}
	.st2{fill:#FF8C00;}
	.st3{fill:#BCBCBC;}
	.st4{fill:#38B9D6;}
	.st5{fill:none;stroke:#CC5464;stroke-width:2;stroke-miterlimit:10;}
	.st6{fill:none;stroke:#BCBCBC;stroke-width:4;stroke-linecap:round;stroke-linejoin:round;stroke-miterlimit:10;}
	.st7{fill:#CC5464;}
	.st8{fill:#FCC717;}
	.st9{fill:#777777;}
	.st10{fill:#E90088;}
	.st11{opacity:0.32;fill:#1DBC68;}
	.st12{fill:#1DBC68;}
	.st13{fill:#D3D3D3;}
	.st14{fill:#5E9CD2;}
	.st15{fill:none;stroke:#CC5464;stroke-linecap:round;stroke-linejoin:round;stroke-miterlimit:10;}
	.st16{fill:none;stroke:#1DBC68;stroke-linecap:round;stroke-miterlimit:10;}
	.st17{fill:#606060;}
	.st18{fill:none;stroke:#D3D3D3;stroke-width:2;stroke-linecap:round;stroke-linejoin:round;stroke-miterlimit:10;}
	.st19{fill:none;stroke:#D3D3D3;stroke-width:2;stroke-miterlimit:10;}
	.st20{fill:none;stroke:#D3D3D3;stroke-width:2;stroke-linecap:round;stroke-miterlimit:10;}
	.st21{fill:none;stroke:#CC5464;stroke-width:2;stroke-linecap:round;stroke-linejoin:round;stroke-miterlimit:10;}
	.st22{fill:none;stroke:#1DBC68;stroke-width:2;stroke-linecap:round;stroke-miterlimit:10;}
	.st23{fill:none;stroke:#1DBC68;stroke-width:3;stroke-linecap:round;stroke-linejoin:round;stroke-miterlimit:10;}
	.st24{fill:#1CBB68;}
	.st25{fill:#CC5363;}
	.st26{opacity:0.4;}
	.st27{fill:#F4821F;}
	.st28{fill:#D6690A;}
	.st29{fill:#F5F5F5;}
	.st30{opacity:0.5;fill:#38B8D5;enable-background:new    ;}
	.st31{fill:#38B8D5;}
	.st32{fill:#3FB8D3;}
	.st33{fill:#178598;}
	.st34{fill:#2EA3BB;}
	.st35{fill:#E0EBFB;}
	.st36{fill:#CA5666;}
	.st37{fill:#A9CCFC;}
	.st38{fill:#F9A7A7;}
</style>
<g transform="translate(0,-952.36216)">
	<g>
		<path class="st10" d="M47.7,952.4c-1.5,0-2.7,1.2-2.7,2.7c0,0.6,0.2,1.2,0.6,1.7L39,972.7c-0.3,0-0.7,0.1-1,0.3l-4.4-3
			c0-0.1,0-0.2,0-0.3c0-1.5-1.2-2.7-2.7-2.7h0c-1.5,0-2.7,1.2-2.7,2.7v0c0,0.5,0.1,0.9,0.3,1.3l-5.8,9c-0.1,0-0.1,0-0.2,0
			c-0.4,0-0.7,0.1-1.1,0.2l-4.7-3.7c0-0.2,0-0.3,0-0.5c0-1.5-1.2-2.7-2.7-2.7h0c-1.5,0-2.7,1.2-2.7,2.7v0c0,0.5,0.1,0.9,0.4,1.4
			l-5.9,9.7c0,0-0.1,0-0.1,0c-1.5,0-2.7,1.2-2.7,2.7c0,1.5,1.2,2.7,2.7,2.7c1.5,0,2.7-1.2,2.7-2.7v0c0-0.5-0.1-0.9-0.4-1.4l5.9-9.7
			c0,0,0.1,0,0.1,0c0.4,0,0.7-0.1,1.1-0.2l4.7,3.7c0,0.2,0,0.3,0,0.5c0,1.5,1.2,2.7,2.7,2.7c1.5,0,2.7-1.2,2.7-2.7v0
			c0-0.5-0.1-0.9-0.3-1.3l5.8-9c0.1,0,0.1,0,0.2,0c0.4,0,0.9-0.1,1.3-0.3l4.4,3c0,0.1,0,0.2,0,0.3c0,1.5,1.2,2.7,2.7,2.7h0
			c1.5,0,2.7-1.2,2.7-2.7c0-0.6-0.2-1.2-0.6-1.7l6.6-15.9c1.4-0.1,2.4-1.3,2.4-2.7C50.4,953.6,49.1,952.4,47.7,952.4L47.7,952.4
			L47.7,952.4z"/>
	</g>
</g>
<rect x="0.4" y="45.6" class="st9" width="52" height="2.7"/>
</svg>
