<?xml version="1.0" encoding="utf-8"?>
<!-- Generator: Adobe Illustrator 22.1.0, SVG Export Plug-In . SVG Version: 6.00 Build 0)  -->
<svg version="1.1" id="Layer_1" xmlns="http://www.w3.org/2000/svg" xmlns:xlink="http://www.w3.org/1999/xlink" x="0px" y="0px"
	 viewBox="0 0 85.8 29.8" style="enable-background:new 0 0 85.8 29.8;" xml:space="preserve">
<style type="text/css">
	.st0{fill:#FFB55A;}
	.st1{fill:#FFFFFF;}
	.st2{fill:#FF8C00;}
	.st3{fill:#BCBCBC;}
	.st4{fill:#38B9D6;}
	.st5{fill:none;stroke:#CC5464;stroke-width:2;stroke-miterlimit:10;}
	.st6{fill:none;stroke:#BCBCBC;stroke-width:4;stroke-linecap:round;stroke-linejoin:round;stroke-miterlimit:10;}
	.st7{fill:#CC5464;}
	.st8{fill:#FCC717;}
	.st9{fill:#777777;}
	.st10{fill:#E90088;}
	.st11{opacity:0.32;fill:#1DBC68;}
	.st12{fill:#1DBC68;}
	.st13{fill:#D3D3D3;}
	.st14{fill:#5E9CD2;}
	.st15{fill:none;stroke:#CC5464;stroke-linecap:round;stroke-linejoin:round;stroke-miterlimit:10;}
	.st16{fill:none;stroke:#1DBC68;stroke-linecap:round;stroke-miterlimit:10;}
	.st17{fill:#606060;}
	.st18{fill:none;stroke:#D3D3D3;stroke-width:2;stroke-linecap:round;stroke-linejoin:round;stroke-miterlimit:10;}
	.st19{fill:none;stroke:#D3D3D3;stroke-width:2;stroke-miterlimit:10;}
	.st20{fill:none;stroke:#D3D3D3;stroke-width:2;stroke-linecap:round;stroke-miterlimit:10;}
	.st21{fill:none;stroke:#CC5464;stroke-width:2;stroke-linecap:round;stroke-linejoin:round;stroke-miterlimit:10;}
	.st22{fill:none;stroke:#1DBC68;stroke-width:2;stroke-linecap:round;stroke-miterlimit:10;}
	.st23{fill:none;stroke:#1DBC68;stroke-width:3;stroke-linecap:round;stroke-linejoin:round;stroke-miterlimit:10;}
	.st24{fill:#1CBB68;}
	.st25{fill:#CC5363;}
	.st26{opacity:0.4;}
	.st27{fill:#F4821F;}
	.st28{fill:#D6690A;}
	.st29{fill:#F5F5F5;}
	.st30{opacity:0.5;fill:#38B8D5;enable-background:new    ;}
	.st31{fill:#38B8D5;}
	.st32{fill:#3FB8D3;}
	.st33{fill:#178598;}
	.st34{fill:#2EA3BB;}
	.st35{fill:#E0EBFB;}
	.st36{fill:#CA5666;}
	.st37{fill:#A9CCFC;}
	.st38{fill:#F9A7A7;}
</style>
<g>
	<rect x="3.2" y="1.8" class="st0" width="79.4" height="24.7"/>
	<g transform="translate(0,-288.53332)">
		<path class="st1" d="M68.3,289.3c-0.9,0-1.6,0.7-1.6,1.6c0,0,0,0,0,0c0,3.2,0.9,6.2,2.8,8.1c1,1,2.2,1.5,3.5,1.6
			c1.3,0,2.5-0.5,3.5-1.5c2-1.9,2.9-4.9,2.9-8.1c0-0.9-0.7-1.6-1.6-1.6c-0.9,0-1.6,0.7-1.6,1.6c0,2.5-0.9,4.8-1.9,5.8
			c-0.5,0.5-0.9,0.6-1.3,0.6c-0.4,0-0.8-0.2-1.3-0.7c-1-1-1.9-3.3-1.9-5.8C69.9,290.1,69.2,289.4,68.3,289.3
			C68.3,289.3,68.3,289.3,68.3,289.3L68.3,289.3z"/>
		<path class="st1" d="M73.1,303.6c-1.6,0-3.2,0.9-4.3,2.3c-2.2,2.8-2.7,7.2-1.7,11c0.2,0.9,1.1,1.4,2,1.1s1.4-1.1,1.1-2l0,0
			c-0.8-2.9-0.2-6.5,1.1-8.2c0.7-0.8,1.2-1.1,1.7-1.1c0.5,0,1,0.2,1.7,1.1c1.3,1.7,1.9,5.4,1.1,8.2c-0.3,0.8,0.1,1.7,0.9,2.1
			c0.8,0.3,1.7-0.1,2.1-0.9c0-0.1,0.1-0.2,0.1-0.3c1.1-3.8,0.6-8.1-1.6-11C76.2,304.6,74.7,303.6,73.1,303.6L73.1,303.6z"/>
		<path class="st2" d="M1.4,288.5c-0.8,0.1-1.4,0.8-1.4,1.6v26.5c0,0.9,0.7,1.6,1.6,1.6h82.6c0.9,0,1.6-0.7,1.6-1.6v-26.5
			c0-0.9-0.7-1.6-1.6-1.6C51.2,288.5,34.4,288.5,1.4,288.5z M3.2,291.7h79.4V315H3.2V291.7z"/>
		<path class="st2" d="M60.3,290.3v26.3h3.2v-26.3H60.3z"/>
		<g>
			<path class="st1" d="M9.2,311v-2.1l3.7-3.7c0.7-0.7,1.2-1.3,1.7-1.8c0.4-0.5,0.7-0.9,1-1.3c0.2-0.4,0.4-0.8,0.4-1.1
				c0.1-0.3,0.1-0.7,0.1-1c0-0.3,0-0.6-0.1-0.8c-0.1-0.3-0.2-0.5-0.4-0.7c-0.2-0.2-0.4-0.3-0.7-0.5s-0.6-0.2-0.9-0.2
				c-0.6,0-1.2,0.1-1.7,0.4c-0.5,0.3-1,0.6-1.5,1.1l-1.5-2c0.7-0.6,1.4-1.1,2.3-1.5c0.8-0.4,1.8-0.6,2.7-0.6c0.8,0,1.4,0.1,2.1,0.3
				c0.6,0.2,1.1,0.5,1.6,0.9c0.4,0.4,0.8,0.9,1,1.4c0.2,0.6,0.4,1.2,0.4,2c0,0.6-0.1,1.2-0.2,1.7c-0.2,0.5-0.4,1.1-0.7,1.6
				c-0.3,0.5-0.7,1-1.2,1.5c-0.5,0.5-1,1-1.6,1.6l-2.3,2.1h6.5v2.7H9.2z"/>
		</g>
		<g>
			<path class="st1" d="M34.8,307.8v3.2H32v-3.2h-7.2v-2.5l6.1-9.9h4v9.8h2.3v2.6H34.8z M32,298.3l-4.4,7H32V298.3z"/>
		</g>
		<g>
			<path class="st1" d="M44.5,311v-2.6h4v-10l-3.4,1.9l-0.9-2.4l4.9-2.6h2.4v13h3.4v2.6H44.5z"/>
		</g>
	</g>
</g>
</svg>
