<?xml version="1.0" encoding="utf-8"?>
<!-- Generator: Adobe Illustrator 22.1.0, SVG Export Plug-In . SVG Version: 6.00 Build 0)  -->
<svg version="1.1" id="Layer_1" xmlns="http://www.w3.org/2000/svg" xmlns:xlink="http://www.w3.org/1999/xlink" x="0px" y="0px"
	 viewBox="0 0 59 48.9" style="enable-background:new 0 0 59 48.9;" xml:space="preserve">
<style type="text/css">
	.st0{fill:#FFB55A;}
	.st1{fill:#FFFFFF;}
	.st2{fill:#FF8C00;}
	.st3{fill:#BCBCBC;}
	.st4{fill:#38B9D6;}
	.st5{fill:none;stroke:#CC5464;stroke-width:2;stroke-miterlimit:10;}
	.st6{fill:none;stroke:#BCBCBC;stroke-width:4;stroke-linecap:round;stroke-linejoin:round;stroke-miterlimit:10;}
	.st7{fill:#CC5464;}
	.st8{fill:#FCC717;}
	.st9{fill:#777777;}
	.st10{fill:#E90088;}
	.st11{opacity:0.32;fill:#1DBC68;}
	.st12{fill:#1DBC68;}
	.st13{fill:#D3D3D3;}
	.st14{fill:#5E9CD2;}
	.st15{fill:none;stroke:#CC5464;stroke-linecap:round;stroke-linejoin:round;stroke-miterlimit:10;}
	.st16{fill:none;stroke:#1DBC68;stroke-linecap:round;stroke-miterlimit:10;}
	.st17{fill:#606060;}
	.st18{fill:none;stroke:#D3D3D3;stroke-width:2;stroke-linecap:round;stroke-linejoin:round;stroke-miterlimit:10;}
	.st19{fill:none;stroke:#D3D3D3;stroke-width:2;stroke-miterlimit:10;}
	.st20{fill:none;stroke:#D3D3D3;stroke-width:2;stroke-linecap:round;stroke-miterlimit:10;}
	.st21{fill:none;stroke:#CC5464;stroke-width:2;stroke-linecap:round;stroke-linejoin:round;stroke-miterlimit:10;}
	.st22{fill:none;stroke:#1DBC68;stroke-width:2;stroke-linecap:round;stroke-miterlimit:10;}
	.st23{fill:none;stroke:#1DBC68;stroke-width:3;stroke-linecap:round;stroke-linejoin:round;stroke-miterlimit:10;}
	.st24{fill:#1CBB68;}
	.st25{fill:#CC5363;}
	.st26{opacity:0.4;}
	.st27{fill:#F4821F;}
	.st28{fill:#D6690A;}
	.st29{fill:#F5F5F5;}
	.st30{opacity:0.5;fill:#38B8D5;enable-background:new    ;}
	.st31{fill:#38B8D5;}
	.st32{fill:#3FB8D3;}
	.st33{fill:#178598;}
	.st34{fill:#2EA3BB;}
	.st35{fill:#E0EBFB;}
	.st36{fill:#CA5666;}
	.st37{fill:#A9CCFC;}
	.st38{fill:#F9A7A7;}
</style>
<g>
	<g>
		<line class="st5" x1="29.5" y1="2" x2="29.5" y2="9.2"/>
		<line class="st5" x1="15.7" y1="5.7" x2="19.3" y2="11.9"/>
		<line class="st5" x1="5.7" y1="15.7" x2="11.9" y2="19.3"/>
		<line class="st5" x1="2" y1="29.5" x2="9.2" y2="29.5"/>
		<line class="st5" x1="57" y1="29.5" x2="49.8" y2="29.5"/>
		<line class="st5" x1="53.3" y1="15.7" x2="47.1" y2="19.3"/>
		<line class="st5" x1="43.2" y1="5.7" x2="39.7" y2="11.9"/>
		<g>
			<path class="st6" d="M8.3,46.9C4.4,42.2,2,36.1,2,29.5C2,14.3,14.3,2,29.5,2S57,14.3,57,29.5c0,6.3-2.2,12.2-5.7,16.9"/>
		</g>
	</g>
	<path class="st7" d="M35.5,35c-0.5-1-1.4-1.4-2.3-1.9c-1.2-0.7-3.9-3.7-3.9-3.7l-5-4.9l1.6,6.9c0,0,1.2,3.9,1.2,5.4
		c0,1,0,2,0.6,2.9c1.3,2.2,4.1,3,6.2,1.7C36.1,40,36.8,37.3,35.5,35z"/>
</g>
</svg>
