<?xml version="1.0" encoding="utf-8"?>
<!-- Generator: Adobe Illustrator 22.1.0, SVG Export Plug-In . SVG Version: 6.00 Build 0)  -->
<svg version="1.1" id="Layer_1" xmlns="http://www.w3.org/2000/svg" xmlns:xlink="http://www.w3.org/1999/xlink" x="0px" y="0px"
	 viewBox="0 0 57.7 53.5" style="enable-background:new 0 0 57.7 53.5;" xml:space="preserve">
<style type="text/css">
	.st0{opacity:0.5;fill:#38B8D5;}
	.st1{fill:#38B8D5;}
</style>
<title>wind-rose</title>
<path class="st0" d="M29.3,48.8v-24l17.3,17C41.9,46.1,35.7,48.6,29.3,48.8"/>
<path class="st1" d="M16,32.2c-2.7,3-5.6,6-8.8,9.1c-5-4.2-6.9-10.3-7.1-17h12.7C12.9,27.2,14.1,30,16,32.2"/>
<path class="st0" d="M31.9,24.2H53c0,5.5-2.2,10.7-6.1,14.6L31.9,24.2"/>
<path class="st1" d="M10.1,6.4l16,15.6H3.5C3.1,17.4,6.1,10.3,10.1,6.4"/>
<path class="st0" d="M12.8,39.5l14.3-14.6v19.6C21.7,44.4,16.9,42.9,12.8,39.5"/>
<path class="st1" d="M11.4,40.5c4.4,3.8,10,5.8,15.8,5.8v7.1c-7.5-0.2-14.7-3.1-20.3-8.1L11.4,40.5"/>
<path class="st1" d="M42.4,10.7c2.9,3.1,4.5,7.1,4.7,11.4h-7.7c-0.2-2.2-1.1-4.2-2.5-5.9L42.4,10.7"/>
<path class="st0" d="M39.1,11.3l-9.8,9.2V7C33,7.3,36.4,8.8,39.1,11.3"/>
<path class="st0" d="M18.1,10.4c2.6-2.1,5.7-3.3,9-3.6v12.8L18.1,10.4"/>
<path class="st1" d="M27.2,0v5.1c-4,0.3-7.8,1.8-10.8,4.4l-3.5-3.8C16.8,2.2,21.9,0.2,27.2,0"/>
<path class="st1" d="M29.3,53.4v-2.9c6.9-0.2,13.5-2.9,18.6-7.5c0.4,0.3,0.8,0.7,1.1,1s0.7,0.7,1,1.1C44.3,50.4,36.9,53.4,29.3,53.4
	"/>
<path class="st1" d="M50.1,42.1L48,40c4.1-4.2,6.5-9.8,6.7-15.7h3C57.5,30.9,54.8,37.3,50.1,42.1"/>
<path class="st0" d="M17.9,31.2c-1.8-1.9-2.8-4.3-2.9-6.9c0.3,0,0.9,0,1.2,0c2.9,0,5.6-0.1,8.2-0.1L17.9,31.2"/>
<path class="st1" d="M42.5,7.4l-2.1,2.3c-3.1-2.6-7-4.2-11.1-4.5v-3C34.1,2.4,38.8,4.2,42.5,7.4"/>
<path class="st0" d="M37.6,22.1H31l4.6-4.5C36.7,18.9,37.4,20.4,37.6,22.1"/>
</svg>
