<?xml version="1.0" encoding="utf-8"?>
<!-- Generator: Adobe Illustrator 25.2.3, SVG Export Plug-In . SVG Version: 6.00 Build 0)  -->
<svg version="1.1"
	 id="Layer_1" xmlns:cc="http://creativecommons.org/ns#" xmlns:dc="http://purl.org/dc/elements/1.1/" xmlns:rdf="http://www.w3.org/1999/02/22-rdf-syntax-ns#" xmlns:svg="http://www.w3.org/2000/svg"
	 xmlns="http://www.w3.org/2000/svg" xmlns:xlink="http://www.w3.org/1999/xlink" x="0px" y="0px" viewBox="0 0 20 20"
	 style="enable-background:new 0 0 20 20;" xml:space="preserve">
<style type="text/css">
	.st0{fill:#999999;}
</style>
<g transform="translate(0,40)">
	<path class="st0" d="M5-40c-0.4,0-0.7,0.3-0.7,0.7v0.7H2.9c-1.6,0-2.9,1.3-2.9,2.9v12.9C0-21.3,1.3-20,2.9-20h14.3
		c1.6,0,2.9-1.3,2.9-2.9v-12.9c0-1.6-1.3-2.9-2.9-2.9h-1.4v-0.7c0-0.4-0.3-0.7-0.7-0.7s-0.7,0.3-0.7,0.7v0.7h-3.6v-0.7
		c0-0.4-0.3-0.7-0.7-0.7c-0.4,0-0.7,0.3-0.7,0.7v0.7H5.7v-0.7C5.7-39.7,5.4-40,5-40z M2.9-37.1h1.4v0.7c0,0.4,0.3,0.7,0.7,0.7
		s0.7-0.3,0.7-0.7v-0.7h3.6v0.7c0,0.4,0.3,0.7,0.7,0.7c0.4,0,0.7-0.3,0.7-0.7v-0.7h3.6v0.7c0,0.4,0.3,0.7,0.7,0.7s0.7-0.3,0.7-0.7
		v-0.7h1.4c0.8,0,1.4,0.6,1.4,1.4v1.4H1.4v-1.4C1.4-36.5,2.1-37.1,2.9-37.1z M1.4-32.9h17.1v10c0,0.8-0.6,1.4-1.4,1.4H2.9
		c-0.8,0-1.4-0.6-1.4-1.4V-32.9z"/>
	<path class="st0" d="M3.9-30.7h1.4c0.2,0,0.4,0.2,0.4,0.4v1.4c0,0.2-0.2,0.4-0.4,0.4H3.9c-0.2,0-0.4-0.2-0.4-0.4v-1.4
		C3.6-30.6,3.7-30.7,3.9-30.7z"/>
	<path class="st0" d="M7.5-30.7h1.4c0.2,0,0.4,0.2,0.4,0.4v1.4c0,0.2-0.2,0.4-0.4,0.4H7.5c-0.2,0-0.4-0.2-0.4-0.4v-1.4
		C7.1-30.6,7.3-30.7,7.5-30.7z"/>
	<path class="st0" d="M11.1-30.7h1.4c0.2,0,0.4,0.2,0.4,0.4v1.4c0,0.2-0.2,0.4-0.4,0.4h-1.4c-0.2,0-0.4-0.2-0.4-0.4v-1.4
		C10.7-30.6,10.9-30.7,11.1-30.7z"/>
	<path class="st0" d="M14.6-30.7h1.4c0.2,0,0.4,0.2,0.4,0.4v1.4c0,0.2-0.2,0.4-0.4,0.4h-1.4c-0.2,0-0.4-0.2-0.4-0.4v-1.4
		C14.3-30.6,14.4-30.7,14.6-30.7z"/>
	<path class="st0" d="M3.9-26.4h1.4c0.2,0,0.4,0.2,0.4,0.4v1.4c0,0.2-0.2,0.4-0.4,0.4H3.9c-0.2,0-0.4-0.2-0.4-0.4v-1.4
		C3.6-26.3,3.7-26.4,3.9-26.4z"/>
	<path class="st0" d="M7.5-26.4h1.4c0.2,0,0.4,0.2,0.4,0.4v1.4c0,0.2-0.2,0.4-0.4,0.4H7.5c-0.2,0-0.4-0.2-0.4-0.4v-1.4
		C7.1-26.3,7.3-26.4,7.5-26.4z"/>
	<path class="st0" d="M11.1-26.4h1.4c0.2,0,0.4,0.2,0.4,0.4v1.4c0,0.2-0.2,0.4-0.4,0.4h-1.4c-0.2,0-0.4-0.2-0.4-0.4v-1.4
		C10.7-26.3,10.9-26.4,11.1-26.4z"/>
	<path class="st0" d="M14.6-26.4h1.4c0.2,0,0.4,0.2,0.4,0.4v1.4c0,0.2-0.2,0.4-0.4,0.4h-1.4c-0.2,0-0.4-0.2-0.4-0.4v-1.4
		C14.3-26.3,14.4-26.4,14.6-26.4z"/>
</g>
</svg>
