<?xml version="1.0" encoding="utf-8"?>
<!-- Generator: Adobe Illustrator 25.2.3, SVG Export Plug-In . SVG Version: 6.00 Build 0)  -->
<svg version="1.1" id="Layer_1" xmlns="http://www.w3.org/2000/svg" xmlns:xlink="http://www.w3.org/1999/xlink" x="0px" y="0px"
	 viewBox="0 0 64 64" style="enable-background:new 0 0 64 64;" xml:space="preserve">
<style type="text/css">
	.st0{fill:#53C3FF;}
</style>
<g>
	<g>
		<path class="st0" d="M32,64C14.4,64,0,49.6,0,32C0,14.4,14.4,0,32,0c17.6,0,32,14.4,32,32C64,49.6,49.6,64,32,64z M32,2
			C15.5,2,2,15.5,2,32c0,16.5,13.5,30,30,30s30-13.5,30-30C62,15.5,48.5,2,32,2z"/>
	</g>
	<g>
		<path class="st0" d="M32,36c-2.2,0-4-1.8-4-4s1.8-4,4-4s4,1.8,4,4S34.2,36,32,36z M32,30c-1.1,0-2,0.9-2,2c0,1.1,0.9,2,2,2
			c1.1,0,2-0.9,2-2C34,30.9,33.1,30,32,30z"/>
	</g>
	<g>
		<g>
			<path class="st0" d="M32,9.9c-0.6,0-1-0.4-1-1V6.4c0-0.6,0.4-1,1-1s1,0.4,1,1v2.5C33,9.4,32.5,9.9,32,9.9z"/>
		</g>
		<g>
			<path class="st0" d="M32,58.6c-0.6,0-1-0.4-1-1v-2.5c0-0.6,0.4-1,1-1s1,0.4,1,1v2.5C33,58.2,32.5,58.6,32,58.6z"/>
		</g>
	</g>
	<g>
		<g>
			<path class="st0" d="M48.3,16.7c-0.3,0-0.5-0.1-0.7-0.3c-0.4-0.4-0.4-1,0-1.4l1.8-1.8c0.4-0.4,1-0.4,1.4,0s0.4,1,0,1.4L49,16.4
				C48.9,16.6,48.6,16.7,48.3,16.7z"/>
		</g>
		<g>
			<path class="st0" d="M13.9,51.1c-0.3,0-0.5-0.1-0.7-0.3c-0.4-0.4-0.4-1,0-1.4l1.8-1.8c0.4-0.4,1-0.4,1.4,0s0.4,1,0,1.4l-1.8,1.8
				C14.4,51,14.1,51.1,13.9,51.1z"/>
		</g>
	</g>
	<g>
		<g>
			<path class="st0" d="M57.6,33h-2.5c-0.6,0-1-0.4-1-1s0.4-1,1-1h2.5c0.6,0,1,0.4,1,1S58.2,33,57.6,33z"/>
		</g>
		<g>
			<path class="st0" d="M8.9,33H6.4c-0.6,0-1-0.4-1-1s0.4-1,1-1h2.5c0.6,0,1,0.4,1,1S9.4,33,8.9,33z"/>
		</g>
	</g>
	<g>
		<g>
			<path class="st0" d="M50.1,51.1c-0.3,0-0.5-0.1-0.7-0.3l-1.8-1.8c-0.4-0.4-0.4-1,0-1.4s1-0.4,1.4,0l1.8,1.8c0.4,0.4,0.4,1,0,1.4
				C50.6,51,50.4,51.1,50.1,51.1z"/>
		</g>
		<g>
			<path class="st0" d="M15.6,16.7c-0.3,0-0.5-0.1-0.7-0.3l-1.8-1.8c-0.4-0.4-0.4-1,0-1.4s1-0.4,1.4,0l1.8,1.8c0.4,0.4,0.4,1,0,1.4
				C16.2,16.6,15.9,16.7,15.6,16.7z"/>
		</g>
	</g>
	<g>
		<path class="st0" d="M32,30c-0.6,0-1-0.4-1-1V16.9c0-0.6,0.4-1,1-1s1,0.4,1,1V29C33,29.5,32.5,30,32,30z"/>
	</g>
	<g>
		<path class="st0" d="M52.4,40.8c-0.1,0-0.2,0-0.4-0.1L34.5,34c-0.5-0.2-0.8-0.8-0.6-1.3c0.2-0.5,0.8-0.8,1.3-0.6l17.5,6.8
			c0.5,0.2,0.8,0.8,0.6,1.3C53.1,40.6,52.8,40.8,52.4,40.8z"/>
	</g>
</g>
</svg>
