<?xml version="1.0" encoding="utf-8"?>
<!-- Generator: Adobe Illustrator 25.2.3, SVG Export Plug-In . SVG Version: 6.00 Build 0)  -->
<svg version="1.1" id="Layer_1" xmlns="http://www.w3.org/2000/svg" xmlns:xlink="http://www.w3.org/1999/xlink" x="0px" y="0px"
	 viewBox="0 0 136 118" style="enable-background:new 0 0 136 118;" xml:space="preserve">
<style type="text/css">
	.st0{fill:#53C3FF;}
</style>
<g>
	<g transform="translate(30.000000, 47.000000)">
		<path class="st0" d="M106,10c0,5.1-1.2,10.1-3.4,14.5c-0.7,1.5-2.5,2.1-4,1.3c-1.5-0.7-2.1-2.5-1.3-4C99,18.2,100,14.2,100,10
			c0-13.6-10.3-24.9-23.6-25.9c-1.1-0.1-2.1-0.8-2.5-1.8C67.8-31.7,54-41,38.5-41C17.3-41,0.1-23.9,0-2.8c0,1.8-1.6,3.2-3.4,2.9
			C-4.3,0.1-5.1,0-6,0c-9.9,0-18,8.1-18,18s8.1,18,18,18H6.2c1.7,0,3,1.3,3,3s-1.3,3-3,3H-6c-13.3,0-24-10.7-24-24S-19.3-6-6-6
			c0,0,0.1,0,0.1,0c1.8-23,21-41,44.4-41c17.3,0,32.8,10,40.1,25.3C94.2-19.7,106-6.2,106,10z M92.5,28.5c1.2-1.2,3.1-1.2,4.2,0
			c1.2,1.2,1.2,3.1,0,4.2c-0.8,0.8-1.6,1.5-2.4,2.2c-1.3,1.1-3.2,0.9-4.2-0.4c-1.1-1.3-0.9-3.2,0.4-4.2
			C91.2,29.7,91.8,29.1,92.5,28.5z"/>
		<path class="st0" d="M44,54c1.7,0,3,1.3,3,3l0,0v11c0,1.7-1.3,3-3,3s-3-1.3-3-3l0,0V57C41,55.3,42.3,54,44,54z M31,54
			c1.7,0,3,1.3,3,3l0,0v11c0,1.7-1.3,3-3,3s-3-1.3-3-3l0,0V57C28,55.3,29.3,54,31,54z M57,54c1.7,0,3,1.3,3,3l0,0v11
			c0,1.7-1.3,3-3,3s-3-1.3-3-3l0,0V57C54,55.3,55.3,54,57,54z M70,54c1.7,0,3,1.3,3,3l0,0v11c0,1.7-1.3,3-3,3s-3-1.3-3-3l0,0V57
			C67,55.3,68.3,54,70,54z"/>
		<path class="st0" d="M18.8,13.9L29.2-0.4c0.8-1,2-1.6,3.2-1.6H80c1.7,0,3,1.3,3,3v54c0,1.7-1.3,3-3,3H21c-1.7,0-3-1.3-3-3V16.3
			C18,15.4,18.3,14.6,18.8,13.9z M24,52h53V4H33.4L24,16.9V52z"/>
		<path class="st0" d="M57.8,37.9c1.2,1.2,1.2,3.1,0,4.2c-1.2,1.2-3.1,1.2-4.2,0c-2-2-5.1-2-7.1,0c-1.2,1.2-3.1,1.2-4.2,0
			c-1.2-1.2-1.2-3.1,0-4.2C46.5,33.6,53.5,33.6,57.8,37.9z M64.6,30.4c1.2,1.2,1.2,3.1,0,4.2c-1.2,1.2-3.1,1.2-4.2,0
			c-5.5-5.5-14.3-5.5-19.8,0c-1.2,1.2-3.1,1.2-4.2,0c-1.2-1.2-1.2-3.1,0-4.2C44.2,22.6,56.8,22.6,64.6,30.4z M70.3,22.4
			c1.2,1.2,1.2,3.1,0,4.2c-1.2,1.2-3.1,1.2-4.2,0c-8.6-8.6-22.5-8.6-31.1,0c-1.2,1.2-3.1,1.2-4.2,0c-1.2-1.2-1.2-3.1,0-4.2
			C41.6,11.4,59.4,11.4,70.3,22.4z"/>
	</g>
</g>
</svg>
