<?xml version="1.0" encoding="utf-8"?>
<!-- Generator: Adobe Illustrator 25.2.3, SVG Export Plug-In . SVG Version: 6.00 Build 0)  -->
<svg version="1.1"
	 id="Layer_1" xmlns:cc="http://creativecommons.org/ns#" xmlns:dc="http://purl.org/dc/elements/1.1/" xmlns:inkscape="http://www.inkscape.org/namespaces/inkscape" xmlns:rdf="http://www.w3.org/1999/02/22-rdf-syntax-ns#" xmlns:sodipodi="http://sodipodi.sourceforge.net/DTD/sodipodi-0.dtd" xmlns:svg="http://www.w3.org/2000/svg"
	 xmlns="http://www.w3.org/2000/svg" xmlns:xlink="http://www.w3.org/1999/xlink" x="0px" y="0px" viewBox="0 0 61.9 87.9"
	 style="enable-background:new 0 0 61.9 87.9;" xml:space="preserve">
<style type="text/css">
	.st0{fill:#53C3FF;}
</style>
<g transform="translate(0,-952.36218)">
	<path class="st0" d="M30.9,952.4c-13.6-0.1-26.2,9-29.9,22.8c-0.8,3.1-1,6.2-1,9.1c0.1,10.4,5.6,19.4,11.9,28.1
		c6.3,8.7,13.4,17.3,17.2,26.7c0.4,1,1.6,1.5,2.6,1.1c0.5-0.2,0.9-0.6,1.1-1.1c3.8-9.4,10.9-18,17.2-26.7
		c6.3-8.7,11.9-17.7,11.9-28.1c0-2.9-0.2-6-1-9.1C57.2,961.3,44.6,952.3,30.9,952.4C31,952.4,31,952.4,30.9,952.4z M30.9,956.4
		C31,956.4,31,956.4,30.9,956.4c11.9-0.1,22.9,7.8,26.1,19.8c0.7,2.6,0.9,5.3,0.9,8.1c0,9-5,17.2-11.2,25.8
		c-5.4,7.5-11.5,15.2-15.8,23.7c-4.2-8.6-10.4-16.3-15.8-23.7C9,1001.4,4,993.2,4,984.2c0-2.7,0.2-5.4,0.9-8.1
		C8.1,964.1,19.1,956.3,30.9,956.4z M30.9,970.2c-7.1,0-12.9,5.8-12.8,12.8c0,7.1,5.8,12.8,12.9,12.8c7.1,0,12.8-5.7,12.8-12.8
		C43.7,976,38,970.2,30.9,970.2z M30.9,974.2c4.9,0,8.8,3.9,8.8,8.8c0,4.9-3.9,8.8-8.8,8.8c-4.9,0-8.8-3.9-8.8-8.8
		C22.1,978.2,26,974.2,30.9,974.2z"/>
</g>
</svg>
