<?xml version="1.0" encoding="utf-8"?>
<!-- Generator: Adobe Illustrator 25.2.3, SVG Export Plug-In . SVG Version: 6.00 Build 0)  -->
<svg version="1.1" id="Layer_1" xmlns="http://www.w3.org/2000/svg" xmlns:xlink="http://www.w3.org/1999/xlink" x="0px" y="0px"
	 viewBox="0 0 56 54" style="enable-background:new 0 0 56 54;" xml:space="preserve">
<style type="text/css">
	.st0{fill:#53C3FF;}
</style>
<g>
	<path class="st0" d="M12,28H8v-2h4V28z M12,34H8v2h4V34z M12,42H8v2h4V42z M48,26h-4v2h4V26z M48,34h-4v2h4V34z M48,42h-4v2h4V42z
		 M26,10h-4v2h4V10z M34,10h-4v2h4V10z M26,18h-4v2h4V18z M34,18h-4v2h4V18z M26,26h-4v2h4V26z M34,26h-4v2h4V26z M26,34h-4v2h4V34z
		 M34,34h-4v2h4V34z M26,42h-4v2h4V42z M34,42h-4v2h4V42z M56,52v2H0v-2h3V17c0-0.6,0.4-1,1-1h11V1c0-0.6,0.4-1,1-1h24
		c0.6,0,1,0.4,1,1v15h11c0.6,0,1,0.4,1,1v35H56z M15,18H5v34h10V18z M39,2H17v50h22V2z M51,18H41v34h10V18z"/>
</g>
</svg>
