<?xml version="1.0" encoding="utf-8"?>
<!-- Generator: Adobe Illustrator 25.2.3, SVG Export Plug-In . SVG Version: 6.00 Build 0)  -->
<svg version="1.1" id="Ñëîé_1" xmlns="http://www.w3.org/2000/svg" xmlns:xlink="http://www.w3.org/1999/xlink" x="0px" y="0px"
	 viewBox="0 0 951 425" style="enable-background:new 0 0 951 425;" xml:space="preserve">
<style type="text/css">
	.st0{fill:url(#SVGID_1_);}
	.st1{opacity:0.73;fill:url(#SVGID_2_);}
	.st2{opacity:0.36;fill:url(#SVGID_3_);}
	.st3{fill:url(#SVGID_4_);}
	.st4{fill:url(#SVGID_5_);}
	.st5{fill:url(#SVGID_6_);}
	.st6{fill:#BEBBF8;}
	.st7{fill:url(#SVGID_7_);}
	.st8{fill:#FFFFFF;}
	.st9{fill:url(#SVGID_8_);}
	.st10{fill:url(#SVGID_9_);}
	.st11{fill:url(#SVGID_10_);}
	.st12{opacity:0.36;fill:url(#SVGID_11_);}
	.st13{fill:url(#SVGID_12_);}
	.st14{fill:url(#SVGID_13_);}
	.st15{fill:url(#SVGID_14_);}
	.st16{opacity:0.35;}
	.st17{fill:#D8E8EF;}
	.st18{fill:url(#SVGID_15_);}
	.st19{opacity:0.39;fill:url(#SVGID_16_);}
	.st20{opacity:0.41;fill:url(#SVGID_17_);}
	.st21{opacity:0.6;fill:url(#SVGID_18_);}
	.st22{opacity:0.6;fill:url(#SVGID_19_);}
	.st23{opacity:0.6;fill:url(#SVGID_20_);}
	.st24{opacity:0.6;fill:url(#SVGID_21_);}
	.st25{opacity:0.6;fill:url(#SVGID_22_);}
	.st26{opacity:0.36;fill:url(#SVGID_23_);}
	.st27{opacity:0.41;fill:url(#SVGID_24_);}
	.st28{opacity:0.36;fill:url(#SVGID_25_);}
	.st29{opacity:0.36;fill:url(#SVGID_26_);}
	.st30{opacity:0.36;fill:url(#SVGID_27_);}
	.st31{opacity:0.36;fill:url(#SVGID_28_);}
	.st32{opacity:0.31;fill:url(#SVGID_29_);}
	.st33{fill:url(#SVGID_30_);}
	.st34{fill:url(#SVGID_31_);}
	.st35{opacity:0.31;fill:url(#SVGID_32_);}
	.st36{fill:url(#SVGID_33_);}
	.st37{fill:url(#SVGID_34_);}
	.st38{fill:url(#SVGID_35_);}
	.st39{opacity:0.81;}
	.st40{fill:#DCEDFF;}
	.st41{fill:url(#SVGID_36_);}
	.st42{fill:url(#SVGID_37_);}
	.st43{fill:url(#SVGID_38_);}
	.st44{opacity:0.63;fill:url(#SVGID_39_);}
	.st45{fill:url(#SVGID_40_);}
	.st46{opacity:0.63;fill:url(#SVGID_41_);}
	.st47{fill:url(#SVGID_42_);}
	.st48{opacity:0.63;fill:url(#SVGID_43_);}
	.st49{fill:url(#SVGID_44_);}
	.st50{opacity:0.63;fill:url(#SVGID_45_);}
	.st51{opacity:0.63;fill:url(#SVGID_46_);}
	.st52{opacity:0.38;fill:#DCEDFF;}
	.st53{fill:url(#SVGID_47_);}
	.st54{fill:#D2E0FF;}
	.st55{fill:#B7C9EA;}
	.st56{fill:url(#SVGID_48_);}
	.st57{fill:url(#SVGID_49_);}
	.st58{opacity:0.38;fill:url(#SVGID_50_);}
	.st59{fill:#D8D5FF;}
	.st60{fill:url(#SVGID_51_);}
	.st61{opacity:0.73;fill:url(#SVGID_52_);}
	.st62{opacity:0.36;fill:url(#SVGID_53_);}
	.st63{fill:url(#SVGID_54_);}
	.st64{fill:url(#SVGID_55_);}
	.st65{fill:url(#SVGID_56_);}
	.st66{fill:url(#SVGID_57_);}
	.st67{fill:url(#SVGID_58_);}
	.st68{fill:url(#SVGID_59_);}
	.st69{fill:url(#SVGID_60_);}
	.st70{fill:url(#SVGID_61_);}
	.st71{fill:url(#SVGID_62_);}
	.st72{fill:url(#SVGID_63_);}
	.st73{fill:url(#SVGID_64_);}
	.st74{opacity:0.39;fill:url(#SVGID_65_);}
	.st75{opacity:0.41;fill:url(#SVGID_66_);}
	.st76{opacity:0.6;fill:url(#SVGID_67_);}
	.st77{opacity:0.6;fill:url(#SVGID_68_);}
	.st78{opacity:0.6;fill:url(#SVGID_69_);}
	.st79{opacity:0.6;fill:url(#SVGID_70_);}
	.st80{opacity:0.6;fill:url(#SVGID_71_);}
	.st81{opacity:0.41;fill:url(#SVGID_72_);}
	.st82{opacity:0.36;fill:url(#SVGID_73_);}
	.st83{opacity:0.36;fill:url(#SVGID_74_);}
	.st84{opacity:0.36;fill:url(#SVGID_75_);}
	.st85{opacity:0.36;fill:url(#SVGID_76_);}
	.st86{opacity:0.31;fill:url(#SVGID_77_);}
	.st87{fill:url(#SVGID_78_);}
	.st88{fill:url(#SVGID_79_);}
	.st89{opacity:0.31;fill:url(#SVGID_80_);}
	.st90{fill:url(#SVGID_81_);}
	.st91{fill:url(#SVGID_82_);}
	.st92{fill:url(#SVGID_83_);}
	.st93{fill:#FF8C00;}
	.st94{fill:#C8CADC;}
	.st95{fill:#FEFEFD;}
	.st96{fill:#888888;}
	.st97{fill:#8676A7;}
	.st98{fill:#FF88AE;}
	.st99{fill:#5CBEFF;}
	.st100{fill:#F8CE82;}
	.st101{fill:#BCBCBC;}
</style>
<g>
	<g>
		<g>
			<g>
				<path class="st93" d="M636.4,198.2h-9c-0.2,0-0.3,0-0.5,0c-5.6-0.4-10.4-4.6-14.1-14.7c-3.1-8.5,1.2-18.5,3-21.9
					c0.3-0.6,0.7-1.2,1.2-1.7l2.5-2.5c2.6-2.6,2.6-6.8,0-9.4l-17.1-17.1c-2.6-2.6-6.8-2.6-9.4,0l-6.2,6.2c-0.2,0.2-0.5,0.5-0.8,0.7
					c-4.1,2.9-10.1,3.2-19.1-0.5c-10.4-4.2-14.7-18.3-14.7-18.3l-0.1,0.5v-5.4c0-3.7-3-6.6-6.6-6.6h-24.2c-3.7,0-6.6,3-6.6,6.6v8.1
					c0,5.9-4,11-14.4,15.1c-8.6,3.4-18.9-0.9-22.2-2.5c-0.7-0.3-1.3-0.8-1.8-1.3l-2.4-2.4c-2.6-2.6-6.8-2.6-9.4,0l-17.1,17.1
					c-2.6,2.6-2.6,6.8,0,9.4l6.3,6.3c0.4,0.4,0.8,0.8,1,1.3c2.3,3.9,2.4,9.6-0.5,17.8c-3,8.4-12.5,13.3-16.2,14.9
					c-0.8,0.4-1.8,0.6-2.7,0.6h-4.9c-3.7,0-6.6,3-6.6,6.6v24.2c0,3.7,3,6.6,6.6,6.6h7.2c0,0,0,0,0.1,0c5.9-0.4,11.2,3.3,15.9,13.5
					c3.4,7.4,1,16.5-0.6,20.8c-0.3,0.9-0.9,1.7-1.5,2.4l-4.1,4.1c-2.6,2.6-2.6,6.8,0,9.4l17.1,17.1c2.6,2.6,6.8,2.6,9.4,0l4-4
					c0.3-0.3,0.6-0.6,0.9-0.8c0.1-0.1,0.3-0.2,0.4-0.4c4-4.3,10.5-5.2,20.8-1c8.2,3.3,12.6,12.7,14.2,16.6c0.3,0.8,0.5,1.6,0.5,2.4
					v4.1c0,3.7,3,6.6,6.6,6.6h24.2c3.7,0,6.6-3,6.6-6.6v-7.4c0-0.4,0.1-0.9,0.1-1.3c0-0.1,0-0.3,0-0.4c0.3-5.9,4.6-10.8,15.2-14.3
					c10.6-3.6,23.1,4.3,23.1,4.3l-0.2-0.3l2.5,2.5c2.6,2.6,6.8,2.6,9.4,0l17.1-17.1c2.6-2.6,2.6-6.8,0-9.4l-4.6-4.6
					c-0.4-0.4-0.7-0.8-1-1.2c-0.1-0.1-0.2-0.3-0.3-0.4c-4-4.3-4.6-10.7,0.1-20.9c4.8-10.1,19.1-13.7,19.1-13.7l-0.1,0h3.7
					c3.7,0,6.6-3,6.6-6.6v-24.2C643.1,201.2,640.1,198.2,636.4,198.2z M535.4,279.6c-36.2,1.2-66-28.6-64.8-64.8
					c1.1-32.9,27.8-59.6,60.6-60.6c36.2-1.2,66,28.6,64.8,64.8C595,251.8,568.3,278.5,535.4,279.6z"/>
			</g>
		</g>
		<g>
			<g>
				<path class="st93" d="M762,113.6l-2.6-0.6c-0.1,0-0.1,0-0.1,0c-1.6-0.5-2.8-2-3.2-5.2c-0.4-2.7,1.5-5.3,2.3-6.2
					c0.1-0.2,0.3-0.3,0.5-0.4l0.9-0.6c0.9-0.6,1.2-1.8,0.6-2.7l-3.9-6.1c-0.6-0.9-1.8-1.2-2.7-0.6l-2.2,1.4
					c-0.1,0.1-0.2,0.1-0.3,0.1c-1.4,0.6-3.2,0.3-5.6-1.4c-2.8-1.9-3.1-6.3-3.1-6.3l-0.1,0.1l0.3-1.6c0.2-1.1-0.4-2.1-1.5-2.4
					l-7.1-1.5c-1.1-0.2-2.1,0.4-2.4,1.5l-0.5,2.4c-0.4,1.7-1.9,3-5.2,3.5c-2.7,0.4-5.5-1.5-6.3-2.2c-0.2-0.1-0.3-0.3-0.4-0.5
					l-0.6-0.9c-0.6-0.9-1.8-1.2-2.7-0.6l-6.1,3.9c-0.9,0.6-1.2,1.8-0.6,2.7l1.4,2.2c0.1,0.1,0.2,0.3,0.2,0.5c0.4,1.3,0.1,3-1.3,5.2
					c-1.4,2.3-4.5,3.1-5.7,3.3c-0.3,0.1-0.5,0.1-0.8,0l-1.4-0.3c-1.1-0.2-2.1,0.4-2.4,1.5l-1.5,7.1c-0.2,1.1,0.4,2.1,1.5,2.4
					l2.1,0.5c0,0,0,0,0,0c1.7,0.3,3.1,1.7,3.8,5c0.5,2.4-0.8,4.9-1.5,6c-0.2,0.2-0.4,0.5-0.6,0.6l-1.5,0.9c-0.9,0.6-1.2,1.8-0.6,2.7
					l3.9,6.1c0.6,0.9,1.8,1.2,2.7,0.6l1.4-0.9c0.1-0.1,0.2-0.1,0.3-0.2c0,0,0.1,0,0.2-0.1c1.5-1,3.4-0.9,6.2,1
					c2.2,1.5,2.9,4.5,3.1,5.7c0,0.2,0,0.5,0,0.7l-0.3,1.2c-0.2,1.1,0.4,2.1,1.5,2.4l7.1,1.5c1.1,0.2,2.1-0.4,2.4-1.5l0.5-2.2
					c0-0.1,0.1-0.2,0.1-0.4c0,0,0-0.1,0-0.1c0.5-1.7,2-2.9,5.3-3.2c3.3-0.4,6.5,2.7,6.5,2.7l0-0.1l0.6,0.9c0.6,0.9,1.8,1.2,2.7,0.6
					l6.1-3.9c0.9-0.6,1.2-1.8,0.6-2.7l-1-1.6c-0.1-0.1-0.2-0.3-0.2-0.4c0,0,0-0.1-0.1-0.2c-0.9-1.5-0.7-3.4,1.4-6.1
					c2-2.7,6.5-2.8,6.5-2.8l0,0l1.1,0.2c1.1,0.2,2.1-0.4,2.4-1.5l1.5-7.1C763.7,114.9,763.1,113.8,762,113.6z M727.3,130.9
					c-10.7-2-17.4-12.5-14.8-23.1c2.4-9.5,11.9-15.6,21.6-13.8c10.7,2,17.4,12.5,14.8,23.1C746.5,126.6,737,132.7,727.3,130.9z"/>
			</g>
		</g>
		<g>
			<g>
				<path class="st93" d="M694.3,365.2l-2.6-0.6c-0.1,0-0.1,0-0.1,0c-1.6-0.5-2.8-2-3.2-5.2c-0.4-2.7,1.5-5.3,2.3-6.2
					c0.1-0.2,0.3-0.3,0.5-0.4l0.9-0.6c0.9-0.6,1.2-1.8,0.6-2.7l-3.9-6.1c-0.6-0.9-1.8-1.2-2.7-0.6l-2.2,1.4
					c-0.1,0.1-0.2,0.1-0.3,0.1c-1.4,0.6-3.2,0.3-5.6-1.4c-2.8-1.9-3.1-6.3-3.1-6.3l-0.1,0.1l0.3-1.6c0.2-1.1-0.4-2.1-1.5-2.4
					l-7.1-1.5c-1.1-0.2-2.1,0.4-2.4,1.5l-0.5,2.4c-0.4,1.7-1.9,3-5.2,3.5c-2.7,0.4-5.5-1.5-6.3-2.2c-0.2-0.1-0.3-0.3-0.4-0.5
					l-0.6-0.9c-0.6-0.9-1.8-1.2-2.7-0.6l-6.1,3.9c-0.9,0.6-1.2,1.8-0.6,2.7l1.4,2.2c0.1,0.1,0.2,0.3,0.2,0.5c0.4,1.3,0.1,3-1.3,5.2
					c-1.4,2.3-4.5,3.1-5.7,3.3c-0.3,0.1-0.5,0.1-0.8,0l-1.4-0.3c-1.1-0.2-2.1,0.4-2.4,1.5l-1.5,7.1c-0.2,1.1,0.4,2.1,1.5,2.4
					l2.1,0.5c0,0,0,0,0,0c1.7,0.3,3.1,1.7,3.8,5c0.5,2.4-0.8,4.9-1.5,6c-0.2,0.2-0.4,0.5-0.6,0.6l-1.5,0.9c-0.9,0.6-1.2,1.8-0.6,2.7
					l3.9,6.1c0.6,0.9,1.8,1.2,2.7,0.6l1.4-0.9c0.1-0.1,0.2-0.1,0.3-0.2c0,0,0.1,0,0.2-0.1c1.5-1,3.4-0.9,6.2,1
					c2.2,1.5,2.9,4.5,3.1,5.7c0,0.2,0,0.5,0,0.7L651,393c-0.2,1.1,0.4,2.1,1.5,2.4l7.1,1.5c1.1,0.2,2.1-0.4,2.4-1.5l0.5-2.2
					c0-0.1,0.1-0.2,0.1-0.4c0,0,0-0.1,0-0.1c0.5-1.7,2-2.9,5.3-3.2c3.3-0.4,6.5,2.7,6.5,2.7l0-0.1l0.6,0.9c0.6,0.9,1.8,1.2,2.7,0.6
					l6.1-3.9c0.9-0.6,1.2-1.8,0.6-2.7l-1-1.6c-0.1-0.1-0.2-0.3-0.2-0.4c0,0,0-0.1-0.1-0.2c-0.9-1.5-0.7-3.4,1.4-6.1
					c2-2.7,6.5-2.8,6.5-2.8l0,0l1.1,0.2c1.1,0.2,2.1-0.4,2.4-1.5l1.5-7.1C696.1,366.5,695.4,365.4,694.3,365.2z M659.6,382.5
					c-10.7-2-17.4-12.5-14.8-23.1c2.4-9.5,11.9-15.6,21.6-13.8c10.7,2,17.4,12.5,14.8,23.1C678.8,378.2,669.3,384.3,659.6,382.5z"/>
			</g>
		</g>
		<g>
			<g>
				<g>
					<path class="st94" d="M407.3,96.3h-81.2c-0.4,0-0.8-0.3-0.8-0.8s0.3-0.8,0.8-0.8h81.2c0.4,0,0.8,0.3,0.8,0.8
						S407.8,96.3,407.3,96.3z"/>
				</g>
				<g>
					<g>
						<path class="st94" d="M326.1,96.3c-0.4,0-0.8-0.3-0.8-0.8V79.4h-31.8c-0.4,0-0.8-0.3-0.8-0.8c0-0.4,0.3-0.8,0.8-0.8h33.3v17.7
							C326.9,96,326.6,96.3,326.1,96.3z"/>
					</g>
				</g>
				<g>
					<g>
						<path class="st94" d="M379.7,96.3h-54.3V77.6h54.3V96.3z M326.9,94.8h51.3V79.1h-51.3V94.8z"/>
					</g>
				</g>
				<g>
					<g>
						<path class="st94" d="M354.3,113.5h-53.6c-0.4,0-0.8-0.3-0.8-0.8c0-0.4,0.3-0.8,0.8-0.8h52V96.3h-52c-0.4,0-0.8-0.3-0.8-0.8
							s0.3-0.8,0.8-0.8h53.6V113.5z"/>
					</g>
				</g>
				<g>
					<g>
						<path class="st94" d="M405.3,79.1h-53.6v-18c0-0.4,0.3-0.8,0.8-0.8s0.8,0.3,0.8,0.8v16.4h52c0.4,0,0.8,0.3,0.8,0.8
							C406.1,78.8,405.8,79.1,405.3,79.1z"/>
					</g>
				</g>
			</g>
			<g>
				<g>
					<g>
						<rect x="652.3" y="256" class="st94" width="75.2" height="1.5"/>
					</g>
				</g>
				<g>
					<g>
						<rect x="698.1" y="239.8" class="st94" width="64.9" height="1.5"/>
					</g>
				</g>
			</g>
			<g>
				<g>
					<g>
						<rect x="165" y="271.7" class="st94" width="75.2" height="1.5"/>
					</g>
				</g>
				<g>
					<g>
						<rect x="210.8" y="255.5" class="st94" width="64.9" height="1.5"/>
					</g>
				</g>
			</g>
			<g>
				<g>
					<g>
						<path class="st94" d="M735.6,272.1c-0.4,0-0.8-0.3-0.8-0.8v-21.9c0-0.4,0.3-0.8,0.8-0.8c0.4,0,0.8,0.3,0.8,0.8v21.9
							C736.3,271.7,736,272.1,735.6,272.1z"/>
					</g>
				</g>
				<g>
					<g>
						<path class="st94" d="M784.4,272.1H668.1c-0.4,0-0.8-0.3-0.8-0.8c0-0.4,0.3-0.8,0.8-0.8h116.3c0.4,0,0.8,0.3,0.8,0.8
							C785.1,271.7,784.8,272.1,784.4,272.1z"/>
					</g>
				</g>
				<g>
					<g>
						<path class="st94" d="M760.9,290.9c-0.4,0-0.8-0.3-0.8-0.8v-18.8c0-0.4,0.3-0.8,0.8-0.8s0.8,0.3,0.8,0.8v18.8
							C761.6,290.6,761.3,290.9,760.9,290.9z"/>
					</g>
				</g>
				<g>
					<g>
						<path class="st94" d="M713.5,292.6c-0.4,0-0.8-0.3-0.8-0.8v-20.5c0-0.4,0.3-0.8,0.8-0.8c0.4,0,0.8,0.3,0.8,0.8v20.5
							C714.3,292.2,714,292.6,713.5,292.6z"/>
					</g>
				</g>
				<g>
					<g>
						<path class="st94" d="M773,293.3h-77.8c-0.4,0-0.8-0.3-0.8-0.8c0-0.4,0.3-0.8,0.8-0.8H773c0.4,0,0.8,0.3,0.8,0.8
							C773.8,293,773.4,293.3,773,293.3z"/>
					</g>
				</g>
				<g>
					<g>
						<path class="st94" d="M738.3,311.8c-0.4,0-0.8-0.3-0.8-0.8v-18.5c0-0.4,0.3-0.8,0.8-0.8c0.4,0,0.8,0.3,0.8,0.8v18.5
							C739,311.5,738.7,311.8,738.3,311.8z"/>
					</g>
				</g>
			</g>
		</g>
		<g>
			<g>
				<g>
					<path class="st93" d="M521.8,90.8l-3.3-1.5c-0.1,0-0.1-0.1-0.2-0.1c-2-1.1-3.1-3.4-2.9-7.8c0.2-3.7,3.4-6.7,4.6-7.7
						c0.2-0.2,0.5-0.3,0.7-0.4l1.3-0.5c1.4-0.5,2.1-2.1,1.5-3.5l-3.6-9.1c-0.5-1.4-2.1-2.1-3.5-1.5l-3.3,1.3c-0.1,0-0.3,0.1-0.4,0.1
						c-2,0.4-4.3-0.4-7-3.3c-3.2-3.2-2.5-9.2-2.5-9.2l-0.1,0.2l0.9-2c0.6-1.4,0-2.9-1.4-3.5l-9-3.9c-1.4-0.6-2.9,0-3.5,1.4l-1.3,3
						c-0.9,2.2-3.3,3.4-7.8,3.3c-3.7-0.1-6.9-3.4-7.9-4.5c-0.2-0.2-0.4-0.5-0.5-0.8l-0.5-1.3c-0.5-1.4-2.1-2.1-3.5-1.5l-9.1,3.6
						c-1.4,0.5-2.1,2.1-1.5,3.5l1.3,3.3c0.1,0.2,0.1,0.4,0.2,0.7c0.2,1.8-0.7,4-3.1,6.5c-2.5,2.7-6.8,2.9-8.4,2.9
						c-0.4,0-0.7-0.1-1.1-0.2l-1.8-0.8c-1.4-0.6-2.9,0-3.5,1.4l-3.9,9c-0.6,1.4,0,2.9,1.4,3.5l2.7,1.2c0,0,0,0,0,0
						c2.2,0.8,3.6,3,3.8,7.6c0.1,3.3-2.3,6.3-3.6,7.6c-0.3,0.3-0.6,0.5-1,0.7l-2.2,0.9c-1.4,0.5-2.1,2.1-1.5,3.5l3.6,9.1
						c0.5,1.4,2.1,2.1,3.5,1.5l2.1-0.8c0.2-0.1,0.3-0.1,0.5-0.1c0.1,0,0.1,0,0.2-0.1c2.2-0.9,4.7-0.3,7.9,3c2.5,2.5,2.6,6.8,2.6,8.4
						c0,0.3-0.1,0.7-0.2,1l-0.7,1.5c-0.6,1.4,0,2.9,1.4,3.5l9,3.9c1.4,0.6,2.9,0,3.5-1.4l1.2-2.8c0.1-0.2,0.2-0.3,0.3-0.5
						c0,0,0.1-0.1,0.1-0.1c1.1-2.1,3.4-3.3,7.9-2.9c4.5,0.4,7.9,5.3,7.9,5.3l0-0.1l0.5,1.4c0.5,1.4,2.1,2.1,3.5,1.5l9.1-3.6
						c1.4-0.5,2.1-2.1,1.5-3.5l-1-2.4c-0.1-0.2-0.1-0.4-0.2-0.6c0-0.1,0-0.1-0.1-0.2c-0.8-2.2,0-4.7,3.4-7.7c3.4-3,9.3-2,9.3-2l0,0
						l1.4,0.6c1.4,0.6,2.9,0,3.5-1.4l3.9-9C523.8,93,523.2,91.4,521.8,90.8z M471.2,104.8c-13.7-5.4-19.9-21.2-13.6-34.5
						c5.7-12,19.9-17.7,32.3-12.8c13.7,5.4,19.9,21.2,13.6,34.5C497.8,104.1,483.6,109.7,471.2,104.8z"/>
				</g>
			</g>
			<g>
				<g>
					<g>
						<g>
							<g>
								<path class="st93" d="M461.8,125.3c-5.4-1.7-10.4-4.4-14.8-7.8c-0.2-0.1-0.2-0.4-0.1-0.6c0.1-0.2,0.4-0.2,0.6-0.1
									c4.4,3.4,9.3,6,14.6,7.7c0.2,0.1,0.3,0.3,0.3,0.5C462.2,125.2,462,125.4,461.8,125.3z"/>
							</g>
						</g>
						<g>
							<g>
								<path class="st93" d="M441.7,112.6c-0.1,0-0.1-0.1-0.2-0.1c-5.1-5.4-8.9-12-11.1-19c-0.1-0.2,0.1-0.4,0.3-0.5
									c0.2-0.1,0.4,0.1,0.5,0.3c2.1,7,5.9,13.4,10.9,18.7c0.1,0.2,0.1,0.4,0,0.6C441.9,112.6,441.8,112.6,441.7,112.6z"/>
							</g>
						</g>
						<g>
							<g>
								<path class="st93" d="M429.5,88.9c-0.1,0-0.2-0.2-0.3-0.3c-1.1-5.7-1.2-11.5-0.2-17.3c0-0.2,0.2-0.4,0.5-0.3
									c0.2,0,0.4,0.2,0.3,0.5c-1,5.6-0.9,11.4,0.2,17c0,0.2-0.1,0.4-0.3,0.5C429.6,88.9,429.5,88.9,429.5,88.9z"/>
							</g>
						</g>
						<g>
							<g>
								<polygon class="st93" points="426.8,72.4 431,64.6 431.3,73.4 								"/>
							</g>
						</g>
					</g>
					<g>
						<g>
							<path class="st93" d="M445.3,116.1c-0.1,0-0.1,0-0.1-0.1l-2-1.8c-0.2-0.1-0.2-0.4,0-0.6c0.1-0.2,0.4-0.2,0.6,0l2,1.8
								c0.2,0.1,0.2,0.4,0,0.6C445.6,116.1,445.4,116.2,445.3,116.1z"/>
						</g>
					</g>
					<g>
						<g>
							<path class="st93" d="M429.9,90.9c-0.1,0-0.2-0.1-0.3-0.3l-0.2-0.9c0-0.2,0.1-0.4,0.3-0.5c0.2,0,0.4,0.1,0.5,0.3l0.2,0.9
								c0,0.2-0.1,0.4-0.3,0.5C430.1,91,430,91,429.9,90.9z"/>
						</g>
					</g>
				</g>
				<g>
					<g>
						<g>
							<g>
								<path class="st93" d="M510.8,40c0,0-0.1,0-0.1-0.1c-4.4-3.4-9.3-6-14.6-7.7c-0.2-0.1-0.3-0.3-0.3-0.5
									c0.1-0.2,0.3-0.3,0.5-0.3c5.4,1.7,10.4,4.4,14.8,7.8c0.2,0.1,0.2,0.4,0.1,0.6C511.1,40,510.9,40,510.8,40z"/>
							</g>
						</g>
						<g>
							<g>
								<path class="st93" d="M527.2,63.8c-0.1,0-0.2-0.1-0.3-0.3c-2.1-7-5.9-13.4-10.9-18.7c-0.1-0.2-0.1-0.4,0-0.6
									c0.2-0.1,0.4-0.1,0.6,0c5.1,5.4,8.9,12,11.1,19c0.1,0.2-0.1,0.4-0.3,0.5C527.3,63.8,527.2,63.8,527.2,63.8z"/>
							</g>
						</g>
						<g>
							<g>
								<path class="st93" d="M528.6,85.8c-0.2-0.1-0.3-0.2-0.3-0.4c1-5.6,0.9-11.4-0.2-17c0-0.2,0.1-0.4,0.3-0.5
									c0.2,0,0.4,0.1,0.5,0.3c1.1,5.7,1.2,11.5,0.2,17.3C529.1,85.7,528.9,85.9,528.6,85.8C528.6,85.8,528.6,85.8,528.6,85.8z"/>
							</g>
						</g>
						<g>
							<g>
								<polygon class="st93" points="531.2,84.4 527,92.2 526.8,83.4 								"/>
							</g>
						</g>
					</g>
					<g>
						<g>
							<path class="st93" d="M514.5,43.2c-0.1,0-0.1,0-0.1-0.1l-2-1.8c-0.2-0.1-0.2-0.4,0-0.6c0.1-0.2,0.4-0.2,0.6,0l2,1.8
								c0.2,0.1,0.2,0.4,0,0.6C514.8,43.2,514.7,43.3,514.5,43.2z"/>
						</g>
					</g>
					<g>
						<g>
							<path class="st93" d="M528.1,67.5c-0.1,0-0.2-0.1-0.3-0.3l-0.2-0.9c0-0.2,0.1-0.4,0.3-0.5c0.2,0,0.4,0.1,0.5,0.3l0.2,0.9
								c0,0.2-0.1,0.4-0.3,0.5C528.3,67.5,528.2,67.5,528.1,67.5z"/>
						</g>
					</g>
				</g>
			</g>
		</g>
		<g>
			<g>
				<g>
					<path class="st93" d="M714.8,173.6l-3.3-1.5c-0.1,0-0.1-0.1-0.2-0.1c-2-1.1-3.1-3.4-2.9-7.8c0.2-3.7,3.4-6.7,4.6-7.7
						c0.2-0.2,0.5-0.3,0.7-0.4l1.3-0.5c1.4-0.5,2.1-2.1,1.5-3.5L713,143c-0.5-1.4-2.1-2.1-3.5-1.5l-3.3,1.3c-0.1,0-0.3,0.1-0.4,0.1
						c-2,0.4-4.3-0.4-7-3.3c-3.2-3.2-2.5-9.2-2.5-9.2l-0.1,0.2l0.9-2c0.6-1.4,0-2.9-1.4-3.5l-9-3.9c-1.4-0.6-2.9,0-3.5,1.4l-1.3,3
						c-0.9,2.2-3.3,3.4-7.8,3.3c-3.7-0.1-6.9-3.4-7.9-4.5c-0.2-0.2-0.4-0.5-0.5-0.8l-0.5-1.3c-0.5-1.4-2.1-2.1-3.5-1.5l-9.1,3.6
						c-1.4,0.5-2.1,2.1-1.5,3.5l1.3,3.3c0.1,0.2,0.1,0.4,0.2,0.7c0.2,1.8-0.7,4-3.1,6.5c-2.5,2.7-6.8,2.9-8.4,2.9
						c-0.4,0-0.7-0.1-1.1-0.2l-1.8-0.8c-1.4-0.6-2.9,0-3.5,1.4l-3.9,9c-0.6,1.4,0,2.9,1.4,3.5l2.7,1.2c0,0,0,0,0,0
						c2.2,0.8,3.6,3,3.8,7.6c0.1,3.3-2.3,6.3-3.6,7.6c-0.3,0.3-0.6,0.5-1,0.7l-2.2,0.9c-1.4,0.5-2.1,2.1-1.5,3.5l3.6,9.1
						c0.5,1.4,2.1,2.1,3.5,1.5l2.1-0.8c0.2-0.1,0.3-0.1,0.5-0.1c0.1,0,0.1,0,0.2-0.1c2.2-0.9,4.7-0.3,7.9,3c2.5,2.5,2.6,6.8,2.6,8.4
						c0,0.3-0.1,0.7-0.2,1l-0.7,1.5c-0.6,1.4,0,2.9,1.4,3.5l9,3.9c1.4,0.6,2.9,0,3.5-1.4l1.2-2.8c0.1-0.2,0.2-0.3,0.3-0.5
						c0,0,0.1-0.1,0.1-0.1c1.1-2.1,3.4-3.3,7.9-2.9c4.5,0.4,7.9,5.3,7.9,5.3l0-0.1l0.5,1.4c0.5,1.4,2.1,2.1,3.5,1.5l9.1-3.6
						c1.4-0.5,2.1-2.1,1.5-3.5l-1-2.4c-0.1-0.2-0.1-0.4-0.2-0.6c0-0.1,0-0.1-0.1-0.2c-0.8-2.2,0-4.7,3.4-7.7c3.4-3,9.3-2,9.3-2l0,0
						l1.4,0.6c1.4,0.6,2.9,0,3.5-1.4l3.9-9C716.8,175.8,716.2,174.2,714.8,173.6z M664.1,187.5c-13.7-5.4-19.9-21.2-13.6-34.5
						c5.7-12,19.9-17.7,32.3-12.8c13.7,5.4,19.9,21.2,13.6,34.5C690.8,186.8,676.5,192.4,664.1,187.5z"/>
				</g>
			</g>
			<g>
				<g>
					<g>
						<g>
							<g>
								<path class="st93" d="M715,191.4c-3.1,5.1-6.9,9.5-11.5,13.2c-0.2,0.1-0.4,0.1-0.6-0.1c-0.1-0.2-0.1-0.4,0.1-0.6
									c4.5-3.6,8.3-8,11.3-13c0.1-0.2,0.4-0.3,0.6-0.1S715.1,191.2,715,191.4z"/>
							</g>
						</g>
						<g>
							<g>
								<path class="st93" d="M697.2,208.9c0,0.1-0.1,0.1-0.1,0.1c-6.7,3.9-14.3,6.2-22.1,6.7c-0.2,0-0.4-0.2-0.4-0.4
									c0-0.2,0.2-0.4,0.4-0.4c7.6-0.5,15.1-2.8,21.7-6.6c0.2-0.1,0.4,0,0.6,0.1C697.3,208.6,697.3,208.7,697.2,208.9z"/>
							</g>
						</g>
						<g>
							<g>
								<path class="st93" d="M670.1,215.6c-0.1,0.1-0.2,0.2-0.4,0.2c-6.1-0.2-12.1-1.5-17.7-3.9c-0.2-0.1-0.3-0.3-0.2-0.5
									c0.1-0.2,0.3-0.3,0.5-0.2c5.5,2.3,11.4,3.6,17.4,3.9c0.2,0,0.4,0.2,0.4,0.4C670.1,215.5,670.1,215.6,670.1,215.6z"/>
							</g>
						</g>
						<g>
							<g>
								<polygon class="st93" points="652.6,214.3 645.7,208.2 654.7,210.1 								"/>
							</g>
						</g>
					</g>
					<g>
						<g>
							<path class="st93" d="M701.7,206c0,0-0.1,0.1-0.1,0.1l-2.3,1.6c-0.2,0.1-0.4,0.1-0.6-0.1c-0.1-0.2-0.1-0.4,0.1-0.6l2.3-1.6
								c0.2-0.1,0.4-0.1,0.6,0.1C701.7,205.7,701.7,205.9,701.7,206z"/>
						</g>
					</g>
					<g>
						<g>
							<path class="st93" d="M672.3,215.6c-0.1,0.1-0.2,0.2-0.4,0.2l-1,0c-0.2,0-0.4-0.2-0.4-0.4c0-0.2,0.2-0.4,0.4-0.4l1,0
								c0.2,0,0.4,0.2,0.4,0.4C672.4,215.5,672.3,215.6,672.3,215.6z"/>
						</g>
					</g>
				</g>
				<g>
					<g>
						<g>
							<g>
								<path class="st93" d="M639.7,121c0,0-0.1,0.1-0.1,0.1c-4.5,3.6-8.3,8-11.3,13c-0.1,0.2-0.4,0.3-0.6,0.1
									c-0.2-0.1-0.3-0.4-0.1-0.6c3.1-5.1,6.9-9.5,11.5-13.2c0.2-0.1,0.4-0.1,0.6,0.1C639.8,120.6,639.8,120.8,639.7,121z"/>
							</g>
						</g>
						<g>
							<g>
								<path class="st93" d="M667.9,109.9c-0.1,0.1-0.2,0.2-0.3,0.2c-7.6,0.5-15.1,2.8-21.7,6.6c-0.2,0.1-0.4,0-0.6-0.1
									c-0.1-0.2,0-0.4,0.1-0.6c6.7-3.9,14.3-6.2,22.1-6.7c0.2,0,0.4,0.2,0.4,0.4C668,109.8,667.9,109.9,667.9,109.9z"/>
							</g>
						</g>
						<g>
							<g>
								<path class="st93" d="M690.7,113.7c-0.1,0.2-0.3,0.2-0.5,0.2c-5.5-2.3-11.4-3.6-17.4-3.9c-0.2,0-0.4-0.2-0.4-0.4
									c0-0.2,0.2-0.4,0.4-0.4c6.1,0.2,12.1,1.5,17.7,3.9C690.7,113.2,690.8,113.5,690.7,113.7
									C690.7,113.7,690.7,113.7,690.7,113.7z"/>
							</g>
						</g>
						<g>
							<g>
								<polygon class="st93" points="689.9,110.7 696.8,116.8 687.8,115 								"/>
							</g>
						</g>
					</g>
					<g>
						<g>
							<path class="st93" d="M643.9,117.9c0,0-0.1,0.1-0.1,0.1l-2.3,1.6c-0.2,0.1-0.4,0.1-0.6-0.1c-0.1-0.2-0.1-0.4,0.1-0.6l2.3-1.6
								c0.2-0.1,0.4-0.1,0.6,0.1C644,117.6,644,117.8,643.9,117.9z"/>
						</g>
					</g>
					<g>
						<g>
							<path class="st93" d="M671.9,109.8c-0.1,0.1-0.2,0.2-0.4,0.2l-1,0c-0.2,0-0.4-0.2-0.4-0.4c0-0.2,0.2-0.4,0.4-0.4l1,0
								c0.2,0,0.4,0.2,0.4,0.4C672,109.7,671.9,109.8,671.9,109.8z"/>
						</g>
					</g>
				</g>
			</g>
		</g>
		<g>
			<g>
				<g>
					<path class="st93" d="M630,365.5l-3.3-1.5c-0.1,0-0.1-0.1-0.2-0.1c-2-1.1-3.1-3.4-2.9-7.8c0.2-3.7,3.4-6.7,4.6-7.7
						c0.2-0.2,0.5-0.3,0.7-0.4l1.3-0.5c1.4-0.5,2.1-2.1,1.5-3.5l-3.6-9.1c-0.5-1.4-2.1-2.1-3.5-1.5l-3.3,1.3c-0.1,0-0.3,0.1-0.4,0.1
						c-2,0.4-4.3-0.4-7-3.3c-3.2-3.2-2.5-9.2-2.5-9.2l-0.1,0.2l0.9-2c0.6-1.4,0-2.9-1.4-3.5l-9-3.9c-1.4-0.6-2.9,0-3.5,1.4l-1.3,3
						c-0.9,2.2-3.3,3.4-7.8,3.3c-3.7-0.1-6.9-3.4-7.9-4.5c-0.2-0.2-0.4-0.5-0.5-0.8l-0.5-1.3c-0.5-1.4-2.1-2.1-3.5-1.5l-9.1,3.6
						c-1.4,0.5-2.1,2.1-1.5,3.5l1.3,3.3c0.1,0.2,0.1,0.4,0.2,0.7c0.2,1.8-0.7,4-3.1,6.5c-2.5,2.7-6.8,2.9-8.4,2.9
						c-0.4,0-0.7-0.1-1.1-0.2l-1.8-0.8c-1.4-0.6-2.9,0-3.5,1.4l-3.9,9c-0.6,1.4,0,2.9,1.4,3.5l2.7,1.2c0,0,0,0,0,0
						c2.2,0.8,3.6,3,3.8,7.6c0.1,3.3-2.3,6.3-3.6,7.6c-0.3,0.3-0.6,0.5-1,0.7l-2.2,0.9c-1.4,0.5-2.1,2.1-1.5,3.5l3.6,9.1
						c0.5,1.4,2.1,2.1,3.5,1.5l2.1-0.8c0.2-0.1,0.3-0.1,0.5-0.1c0.1,0,0.1,0,0.2-0.1c2.2-0.9,4.7-0.3,7.9,3c2.5,2.5,2.6,6.8,2.6,8.4
						c0,0.3-0.1,0.7-0.2,1l-0.7,1.5c-0.6,1.4,0,2.9,1.4,3.5l9,3.9c1.4,0.6,2.9,0,3.5-1.4l1.2-2.8c0.1-0.2,0.2-0.3,0.3-0.5
						c0,0,0.1-0.1,0.1-0.1c1.1-2.1,3.4-3.3,7.9-2.9c4.5,0.4,7.9,5.3,7.9,5.3l0-0.1l0.5,1.4c0.5,1.4,2.1,2.1,3.5,1.5l9.1-3.6
						c1.4-0.5,2.1-2.1,1.5-3.5l-1-2.4c-0.1-0.2-0.1-0.4-0.2-0.6c0-0.1,0-0.1-0.1-0.2c-0.8-2.2,0-4.7,3.4-7.7c3.4-3,9.3-2,9.3-2l0,0
						l1.4,0.6c1.4,0.6,2.9,0,3.5-1.4l3.9-9C632,367.7,631.3,366.1,630,365.5z M579.3,379.5c-13.7-5.4-19.9-21.2-13.6-34.5
						c5.7-12,19.9-17.7,32.3-12.8c13.7,5.4,19.9,21.2,13.6,34.5C605.9,378.7,591.7,384.4,579.3,379.5z"/>
				</g>
			</g>
			<g>
				<g>
					<g>
						<g>
							<g>
								<path class="st93" d="M593.1,410.8c-5.9,0.9-11.8,0.7-17.5-0.5c-0.2,0-0.4-0.3-0.3-0.5c0-0.2,0.3-0.4,0.5-0.3
									c5.7,1.2,11.5,1.3,17.3,0.4c0.2,0,0.4,0.1,0.5,0.3C593.5,410.5,593.4,410.7,593.1,410.8z"/>
							</g>
						</g>
						<g>
							<g>
								<path class="st93" d="M568.4,408.2c-0.1,0-0.1,0-0.2,0c-7.3-2.7-13.9-7.1-19.3-12.7c-0.2-0.2-0.1-0.4,0-0.6
									c0.2-0.2,0.4-0.1,0.6,0c5.2,5.5,11.8,9.9,18.9,12.5c0.2,0.1,0.3,0.3,0.2,0.5C568.6,408.1,568.5,408.2,568.4,408.2z"/>
							</g>
						</g>
						<g>
							<g>
								<path class="st93" d="M545.9,391.6c-0.1,0-0.3,0-0.4-0.2c-3.7-4.8-6.5-10.3-8.2-16.1c-0.1-0.2,0.1-0.4,0.3-0.5
									c0.2-0.1,0.4,0.1,0.5,0.3c1.7,5.8,4.5,11.1,8.1,15.9c0.1,0.2,0.1,0.4-0.1,0.6C546,391.5,545.9,391.6,545.9,391.6z"/>
							</g>
						</g>
						<g>
							<g>
								<polygon class="st93" points="535.7,377.3 536,368.1 540.4,376.2 								"/>
							</g>
						</g>
					</g>
					<g>
						<g>
							<path class="st93" d="M573.4,409.8c-0.1,0-0.1,0-0.2,0l-2.7-0.8c-0.2-0.1-0.3-0.3-0.3-0.5c0.1-0.2,0.3-0.3,0.5-0.3l2.7,0.8
								c0.2,0.1,0.3,0.3,0.3,0.5C573.7,409.7,573.5,409.8,573.4,409.8z"/>
						</g>
					</g>
					<g>
						<g>
							<path class="st93" d="M547.2,393.3c-0.1,0-0.3,0-0.4-0.1l-0.6-0.7c-0.1-0.2-0.1-0.4,0.1-0.6c0.2-0.1,0.4-0.1,0.6,0.1l0.6,0.7
								c0.1,0.2,0.1,0.4-0.1,0.6C547.4,393.3,547.3,393.3,547.2,393.3z"/>
						</g>
					</g>
				</g>
				<g>
					<g>
						<g>
							<g>
								<path class="st93" d="M599.5,307.9c0,0-0.1,0-0.1,0c-5.7-1.2-11.5-1.3-17.3-0.4c-0.2,0-0.4-0.1-0.5-0.3
									c0-0.2,0.1-0.4,0.3-0.5c5.9-0.9,11.8-0.7,17.5,0.5c0.2,0,0.4,0.3,0.3,0.5C599.8,307.7,599.6,307.8,599.5,307.9z"/>
							</g>
						</g>
						<g>
							<g>
								<path class="st93" d="M625.9,322.6c-0.1,0-0.3,0-0.4-0.1c-5.2-5.5-11.8-9.9-18.9-12.5c-0.2-0.1-0.3-0.3-0.2-0.5
									c0.1-0.2,0.3-0.3,0.5-0.2c7.3,2.7,13.9,7.1,19.3,12.7c0.2,0.2,0.1,0.4,0,0.6C626.1,322.5,626,322.6,625.9,322.6z"/>
							</g>
						</g>
						<g>
							<g>
								<path class="st93" d="M637.5,342.6c-0.2,0-0.4-0.1-0.5-0.3c-1.7-5.8-4.5-11.1-8.1-15.9c-0.1-0.2-0.1-0.4,0.1-0.6
									c0.2-0.1,0.4-0.1,0.6,0.1c3.7,4.8,6.5,10.3,8.2,16.1C637.9,342.3,637.8,342.5,637.5,342.6
									C637.6,342.6,637.5,342.6,637.5,342.6z"/>
							</g>
						</g>
						<g>
							<g>
								<polygon class="st93" points="639.4,340.1 639,349.3 634.7,341.1 								"/>
							</g>
						</g>
					</g>
					<g>
						<g>
							<path class="st93" d="M604.5,309.1c-0.1,0-0.1,0-0.2,0l-2.7-0.8c-0.2-0.1-0.3-0.3-0.3-0.5c0.1-0.2,0.3-0.3,0.5-0.3l2.7,0.8
								c0.2,0.1,0.3,0.3,0.3,0.5C604.8,309,604.6,309.1,604.5,309.1z"/>
						</g>
					</g>
					<g>
						<g>
							<path class="st93" d="M628.6,325.6c-0.1,0-0.3,0-0.4-0.1l-0.6-0.7c-0.1-0.2-0.1-0.4,0.1-0.6c0.2-0.1,0.4-0.1,0.6,0.1l0.6,0.7
								c0.1,0.2,0.1,0.4-0.1,0.6C628.7,325.6,628.6,325.6,628.6,325.6z"/>
						</g>
					</g>
				</g>
			</g>
		</g>
		<g>
			<g>
				<g>
					<path class="st93" d="M438.1,282.7l-3.3-1.5c-0.1,0-0.1-0.1-0.2-0.1c-2-1.1-3.1-3.4-2.9-7.8c0.2-3.7,3.4-6.7,4.6-7.7
						c0.2-0.2,0.5-0.3,0.7-0.4l1.3-0.5c1.4-0.5,2.1-2.1,1.5-3.5l-3.6-9.1c-0.5-1.4-2.1-2.1-3.5-1.5l-3.3,1.3c-0.1,0-0.3,0.1-0.4,0.1
						c-2,0.4-4.3-0.4-7-3.3c-3.2-3.2-2.5-9.2-2.5-9.2l-0.1,0.2l0.9-2c0.6-1.4,0-2.9-1.4-3.5l-9-3.9c-1.4-0.6-2.9,0-3.5,1.4l-1.3,3
						c-0.9,2.2-3.3,3.4-7.8,3.3c-3.7-0.1-6.9-3.4-7.9-4.5c-0.2-0.2-0.4-0.5-0.5-0.8l-0.5-1.3c-0.5-1.4-2.1-2.1-3.5-1.5l-9.1,3.6
						c-1.4,0.5-2.1,2.1-1.5,3.5l1.3,3.3c0.1,0.2,0.1,0.4,0.2,0.7c0.2,1.8-0.7,4-3.1,6.5c-2.5,2.7-6.8,2.9-8.4,2.9
						c-0.4,0-0.7-0.1-1.1-0.2l-1.8-0.8c-1.4-0.6-2.9,0-3.5,1.4l-3.9,9c-0.6,1.4,0,2.9,1.4,3.5l2.7,1.2c0,0,0,0,0,0
						c2.2,0.8,3.6,3,3.8,7.6c0.1,3.3-2.3,6.3-3.6,7.6c-0.3,0.3-0.6,0.5-1,0.7l-2.2,0.9c-1.4,0.5-2.1,2.1-1.5,3.5l3.6,9.1
						c0.5,1.4,2.1,2.1,3.5,1.5l2.1-0.8c0.2-0.1,0.3-0.1,0.5-0.1c0.1,0,0.1,0,0.2-0.1c2.2-0.9,4.7-0.3,7.9,3c2.5,2.5,2.6,6.8,2.6,8.4
						c0,0.3-0.1,0.7-0.2,1l-0.7,1.5c-0.6,1.4,0,2.9,1.4,3.5l9,3.9c1.4,0.6,2.9,0,3.5-1.4l1.2-2.8c0.1-0.2,0.2-0.3,0.3-0.5
						c0,0,0.1-0.1,0.1-0.1c1.1-2.1,3.4-3.3,7.9-2.9c4.5,0.4,7.9,5.3,7.9,5.3l0-0.1l0.5,1.4c0.5,1.4,2.1,2.1,3.5,1.5l9.1-3.6
						c1.4-0.5,2.1-2.1,1.5-3.5l-1-2.4c-0.1-0.2-0.1-0.4-0.2-0.6c0-0.1,0-0.1-0.1-0.2c-0.8-2.2,0-4.7,3.4-7.7c3.4-3,9.3-2,9.3-2l0,0
						l1.4,0.6c1.4,0.6,2.9,0,3.5-1.4l3.9-9C440,284.9,439.4,283.3,438.1,282.7z M387.4,296.7c-13.7-5.4-19.9-21.2-13.6-34.5
						c5.7-12,19.9-17.7,32.3-12.8c13.7,5.4,19.9,21.2,13.6,34.5C414,296,399.8,301.6,387.4,296.7z"/>
				</g>
			</g>
			<g>
				<g>
					<g>
						<g>
							<path class="st93" d="M421.4,325.3c-5.3,2.7-10.9,4.5-16.7,5.3c-0.2,0-0.4-0.1-0.5-0.4c0-0.2,0.1-0.4,0.4-0.5
								c5.7-0.7,11.3-2.5,16.5-5.2c0.2-0.1,0.4,0,0.6,0.2C421.7,324.9,421.6,325.2,421.4,325.3z"/>
						</g>
					</g>
					<g>
						<g>
							<path class="st93" d="M397.1,330.9c-0.1,0-0.1,0-0.2,0c-7.7-0.2-15.5-2.2-22.3-5.8c-0.2-0.1-0.3-0.4-0.2-0.6
								c0.1-0.2,0.4-0.3,0.6-0.2c6.8,3.5,14.4,5.5,22,5.7c0.2,0,0.4,0.2,0.4,0.4C397.4,330.7,397.3,330.8,397.1,330.9z"/>
						</g>
					</g>
					<g>
						<g>
							<path class="st93" d="M370.5,322.5c-0.1,0.1-0.3,0.1-0.4,0c-5.1-3.4-9.5-7.6-13-12.6c-0.1-0.2-0.1-0.4,0.1-0.6
								c0.2-0.1,0.4-0.1,0.6,0.1c3.5,4.9,7.8,9,12.8,12.4c0.2,0.1,0.2,0.4,0.1,0.6C370.6,322.4,370.5,322.4,370.5,322.5z"/>
						</g>
					</g>
					<g>
						<g>
							<polygon class="st93" points="356.2,312.2 353.6,303.4 360.3,309.7 							"/>
						</g>
					</g>
				</g>
				<g>
					<g>
						<path class="st93" d="M402.4,330.8c-0.1,0-0.1,0-0.2,0l-2.8,0.1c-0.2,0-0.4-0.2-0.4-0.4c0-0.2,0.2-0.4,0.4-0.4l2.8-0.1
							c0.2,0,0.4,0.2,0.4,0.4C402.6,330.6,402.5,330.7,402.4,330.8z"/>
					</g>
				</g>
				<g>
					<g>
						<path class="st93" d="M372.3,323.6c-0.1,0.1-0.3,0.1-0.4,0l-0.8-0.5c-0.2-0.1-0.3-0.4-0.1-0.6c0.1-0.2,0.4-0.3,0.6-0.1
							l0.8,0.5c0.2,0.1,0.3,0.4,0.1,0.6C372.5,323.6,372.4,323.6,372.3,323.6z"/>
					</g>
				</g>
			</g>
		</g>
		<g>
			<g>
				<g>
					<path class="st93" d="M354.2,267.1l-2.6-0.6c-0.1,0-0.1,0-0.1,0c-1.6-0.5-2.8-2-3.2-5.2c-0.4-2.7,1.5-5.3,2.3-6.2
						c0.1-0.2,0.3-0.3,0.5-0.4l0.9-0.6c0.9-0.6,1.2-1.8,0.6-2.7l-3.9-6.1c-0.6-0.9-1.8-1.2-2.7-0.6l-2.2,1.4
						c-0.1,0.1-0.2,0.1-0.3,0.1c-1.4,0.6-3.2,0.3-5.6-1.4c-2.8-1.9-3.1-6.3-3.1-6.3l-0.1,0.1l0.3-1.6c0.2-1.1-0.4-2.1-1.5-2.4
						l-7.1-1.5c-1.1-0.2-2.1,0.4-2.4,1.5l-0.5,2.4c-0.4,1.7-1.9,3-5.2,3.5c-2.7,0.4-5.5-1.5-6.3-2.2c-0.2-0.1-0.3-0.3-0.4-0.5
						l-0.6-0.9c-0.6-0.9-1.8-1.2-2.7-0.6l-6.1,3.9c-0.9,0.6-1.2,1.8-0.6,2.7l1.4,2.2c0.1,0.1,0.2,0.3,0.2,0.5c0.4,1.3,0.1,3-1.3,5.2
						c-1.4,2.3-4.5,3.1-5.7,3.3c-0.3,0.1-0.5,0.1-0.8,0l-1.4-0.3c-1.1-0.2-2.1,0.4-2.4,1.5l-1.5,7.1c-0.2,1.1,0.4,2.1,1.5,2.4
						l2.1,0.5c0,0,0,0,0,0c1.7,0.3,3.1,1.7,3.8,5c0.5,2.4-0.8,4.9-1.5,6c-0.2,0.2-0.4,0.5-0.6,0.6l-1.5,0.9
						c-0.9,0.6-1.2,1.8-0.6,2.7l3.9,6.1c0.6,0.9,1.8,1.2,2.7,0.6l1.4-0.9c0.1-0.1,0.2-0.1,0.3-0.2c0,0,0.1,0,0.2-0.1
						c1.5-1,3.4-0.9,6.2,1c2.2,1.5,2.9,4.5,3.1,5.7c0,0.2,0,0.5,0,0.7l-0.3,1.2c-0.2,1.1,0.4,2.1,1.5,2.4l7.1,1.5
						c1.1,0.2,2.1-0.4,2.4-1.5l0.5-2.2c0-0.1,0.1-0.2,0.1-0.4c0,0,0-0.1,0-0.1c0.5-1.7,2-2.9,5.3-3.2c3.3-0.4,6.5,2.7,6.5,2.7l0-0.1
						l0.6,0.9c0.6,0.9,1.8,1.2,2.7,0.6l6.1-3.9c0.9-0.6,1.2-1.8,0.6-2.7l-1-1.6c-0.1-0.1-0.2-0.3-0.2-0.4c0,0,0-0.1-0.1-0.2
						c-0.9-1.5-0.7-3.4,1.4-6.1c2-2.7,6.5-2.8,6.5-2.8l0,0l1.1,0.2c1.1,0.2,2.1-0.4,2.4-1.5l1.5-7.1
						C355.9,268.3,355.2,267.3,354.2,267.1z M319.5,284.4c-10.7-2-17.4-12.5-14.8-23.1c2.4-9.5,11.9-15.6,21.6-13.8
						c10.7,2,17.4,12.5,14.8,23.1C338.6,280.1,329.1,286.2,319.5,284.4z"/>
				</g>
			</g>
			<g>
				<g>
					<g>
						<g>
							<path class="st93" d="M344,303.3c-4.4,2.3-9,3.7-13.8,4.3c-0.2,0-0.4-0.1-0.4-0.3c0-0.2,0.1-0.4,0.3-0.4
								c4.7-0.6,9.3-2.1,13.6-4.3c0.2-0.1,0.4,0,0.5,0.1C344.2,303,344.1,303.2,344,303.3z"/>
						</g>
					</g>
					<g>
						<g>
							<path class="st93" d="M323.9,307.9c0,0-0.1,0-0.2,0c-6.4-0.2-12.8-1.8-18.4-4.8c-0.2-0.1-0.2-0.3-0.1-0.5
								c0.1-0.2,0.3-0.2,0.5-0.1c5.6,2.9,11.9,4.6,18.1,4.7c0.2,0,0.3,0.2,0.3,0.3C324.1,307.7,324,307.8,323.9,307.9z"/>
						</g>
					</g>
					<g>
						<g>
							<path class="st93" d="M301.9,300.9c-0.1,0.1-0.2,0.1-0.3,0c-4.2-2.8-7.8-6.3-10.8-10.4c-0.1-0.2-0.1-0.4,0.1-0.5
								c0.2-0.1,0.4-0.1,0.5,0.1c2.9,4,6.4,7.5,10.6,10.2c0.2,0.1,0.2,0.3,0.1,0.5C302,300.9,301.9,300.9,301.9,300.9z"/>
						</g>
					</g>
					<g>
						<g>
							<polygon class="st93" points="290.1,292.5 287.9,285.2 293.5,290.4 							"/>
						</g>
					</g>
				</g>
				<g>
					<g>
						<path class="st93" d="M328.3,307.8c0,0-0.1,0-0.1,0l-2.3,0.1c-0.2,0-0.3-0.1-0.4-0.3c0-0.2,0.1-0.3,0.3-0.4l2.3-0.1
							c0.2,0,0.3,0.1,0.4,0.3C328.5,307.6,328.4,307.8,328.3,307.8z"/>
					</g>
				</g>
				<g>
					<g>
						<path class="st93" d="M303.4,301.9c-0.1,0.1-0.2,0.1-0.3,0l-0.7-0.4c-0.2-0.1-0.2-0.3-0.1-0.5c0.1-0.2,0.3-0.2,0.5-0.1
							l0.7,0.4c0.2,0.1,0.2,0.3,0.1,0.5C303.5,301.8,303.5,301.9,303.4,301.9z"/>
					</g>
				</g>
			</g>
		</g>
		<g>
			<g>
				<g>
					<path class="st93" d="M385.4,217.6l-2.5-1.1c0,0-0.1,0-0.1-0.1c-1.5-0.8-2.3-2.5-2-5.8c0.2-2.7,2.6-4.9,3.5-5.6
						c0.2-0.1,0.3-0.2,0.5-0.3l1-0.4c1-0.4,1.5-1.5,1.2-2.6l-2.6-6.8c-0.4-1-1.5-1.5-2.6-1.2l-2.4,0.9c-0.1,0-0.2,0.1-0.3,0.1
						c-1.5,0.3-3.1-0.4-5.2-2.5c-2.3-2.4-1.8-6.8-1.8-6.8l-0.1,0.1l0.7-1.5c0.5-1,0-2.2-1-2.6l-6.6-3c-1-0.5-2.2,0-2.6,1l-1,2.2
						c-0.7,1.6-2.4,2.5-5.8,2.3c-2.8-0.1-5-2.6-5.8-3.4c-0.1-0.2-0.3-0.4-0.3-0.6l-0.4-1c-0.4-1-1.5-1.5-2.6-1.2l-6.8,2.6
						c-1,0.4-1.5,1.5-1.2,2.6l0.9,2.5c0.1,0.2,0.1,0.3,0.1,0.5c0.1,1.4-0.5,2.9-2.3,4.8c-1.9,1.9-5,2.1-6.2,2.1
						c-0.3,0-0.5-0.1-0.8-0.2l-1.3-0.6c-1-0.5-2.2,0-2.6,1l-3,6.6c-0.5,1,0,2.2,1,2.6l2,0.9c0,0,0,0,0,0c1.6,0.6,2.6,2.3,2.7,5.6
						c0,2.4-1.8,4.6-2.7,5.6c-0.2,0.2-0.4,0.4-0.7,0.5l-1.6,0.6c-1,0.4-1.5,1.5-1.2,2.6l2.6,6.8c0.4,1,1.5,1.5,2.6,1.2l1.6-0.6
						c0.1,0,0.2-0.1,0.3-0.1c0,0,0.1,0,0.2,0c1.6-0.7,3.5-0.1,5.8,2.3c1.8,1.9,1.9,5,1.8,6.3c0,0.2-0.1,0.5-0.2,0.7l-0.5,1.1
						c-0.5,1,0,2.2,1,2.6l6.6,3c1,0.5,2.2,0,2.6-1l0.9-2c0.1-0.1,0.1-0.2,0.2-0.3c0,0,0-0.1,0.1-0.1c0.8-1.6,2.6-2.4,5.9-2
						c3.3,0.3,5.8,4,5.8,4l0-0.1l0.4,1c0.4,1,1.5,1.5,2.6,1.2l6.8-2.6c1-0.4,1.5-1.5,1.2-2.6l-0.7-1.8c-0.1-0.1-0.1-0.3-0.1-0.4
						c0,0,0-0.1,0-0.2c-0.6-1.7,0.1-3.5,2.6-5.7c2.5-2.2,6.9-1.4,6.9-1.4l0,0l1,0.5c1,0.5,2.2,0,2.6-1l3-6.6
						C386.8,219.3,386.4,218.1,385.4,217.6z M347.8,227.4c-10-4.1-14.5-15.9-9.7-25.6c4.3-8.8,14.9-12.8,24-9.1
						c10,4.1,14.5,15.9,9.7,25.6C367.5,227.2,356.9,231.2,347.8,227.4z"/>
				</g>
			</g>
			<g>
				<g>
					<g>
						<g>
							<path class="st93" d="M312.4,204.7c0.9-4.8,2.7-9.4,5.2-13.5c0.1-0.2,0.3-0.2,0.5-0.1c0.2,0.1,0.2,0.3,0.1,0.5
								c-2.5,4.1-4.2,8.6-5.1,13.3c0,0.2-0.2,0.3-0.4,0.3C312.4,205,312.3,204.8,312.4,204.7z"/>
						</g>
					</g>
					<g>
						<g>
							<path class="st93" d="M321.2,186.1c0-0.1,0-0.1,0.1-0.2c4.1-4.9,9.4-8.9,15.2-11.5c0.2-0.1,0.4,0,0.4,0.2
								c0.1,0.2,0,0.4-0.2,0.4c-5.8,2.6-10.9,6.5-15,11.3c-0.1,0.1-0.3,0.2-0.5,0C321.2,186.3,321.1,186.2,321.2,186.1z"/>
						</g>
					</g>
					<g>
						<g>
							<path class="st93" d="M340.3,173.1c0-0.1,0.1-0.2,0.2-0.3c4.8-1.6,9.8-2.2,14.8-2c0.2,0,0.3,0.2,0.3,0.4
								c0,0.2-0.2,0.3-0.4,0.3c-5-0.2-9.9,0.4-14.6,1.9c-0.2,0.1-0.4,0-0.4-0.2C340.3,173.2,340.3,173.2,340.3,173.1z"/>
						</g>
					</g>
					<g>
						<g>
							<polygon class="st93" points="354.2,169.2 361.3,171.9 353.8,173.1 							"/>
						</g>
					</g>
				</g>
				<g>
					<g>
						<path class="st93" d="M318.5,189.5c0,0,0-0.1,0.1-0.1l1.4-1.9c0.1-0.2,0.3-0.2,0.5-0.1c0.2,0.1,0.2,0.3,0.1,0.5l-1.4,1.9
							c-0.1,0.2-0.3,0.2-0.5,0.1C318.6,189.8,318.5,189.7,318.5,189.5z"/>
					</g>
				</g>
				<g>
					<g>
						<path class="st93" d="M338.6,173.7c0-0.1,0.1-0.2,0.2-0.3l0.7-0.3c0.2-0.1,0.4,0,0.4,0.2c0.1,0.2,0,0.4-0.2,0.4l-0.7,0.3
							c-0.2,0.1-0.4,0-0.4-0.2C338.6,173.8,338.6,173.8,338.6,173.7z"/>
					</g>
				</g>
			</g>
		</g>
		<g>
			<g>
				<g>
					<path class="st93" d="M783.6,173.1l-2.6-0.6c-0.1,0-0.1,0-0.1,0c-1.6-0.5-2.8-2-3.2-5.2c-0.4-2.7,1.5-5.3,2.3-6.2
						c0.1-0.2,0.3-0.3,0.5-0.4l0.9-0.6c0.9-0.6,1.2-1.8,0.6-2.7l-3.9-6.1c-0.6-0.9-1.8-1.2-2.7-0.6L773,152
						c-0.1,0.1-0.2,0.1-0.3,0.1c-1.4,0.6-3.2,0.3-5.6-1.4c-2.8-1.9-3.1-6.3-3.1-6.3l-0.1,0.1l0.3-1.6c0.2-1.1-0.4-2.1-1.5-2.4
						l-7.1-1.5c-1.1-0.2-2.1,0.4-2.4,1.5l-0.5,2.4c-0.4,1.7-1.9,3-5.2,3.5c-2.7,0.4-5.5-1.5-6.3-2.2c-0.2-0.1-0.3-0.3-0.4-0.5
						l-0.6-0.9c-0.6-0.9-1.8-1.2-2.7-0.6l-6.1,3.9c-0.9,0.6-1.2,1.8-0.6,2.7l1.4,2.2c0.1,0.1,0.2,0.3,0.2,0.5c0.4,1.3,0.1,3-1.3,5.2
						c-1.4,2.3-4.5,3.1-5.7,3.3c-0.3,0.1-0.5,0.1-0.8,0l-1.4-0.3c-1.1-0.2-2.1,0.4-2.4,1.5l-1.5,7.1c-0.2,1.1,0.4,2.1,1.5,2.4
						l2.1,0.5c0,0,0,0,0,0c1.7,0.3,3.1,1.7,3.8,5c0.5,2.4-0.8,4.9-1.5,6c-0.2,0.2-0.4,0.5-0.6,0.6l-1.5,0.9
						c-0.9,0.6-1.2,1.8-0.6,2.7l3.9,6.1c0.6,0.9,1.8,1.2,2.7,0.6l1.4-0.9c0.1-0.1,0.2-0.1,0.3-0.2c0,0,0.1,0,0.2-0.1
						c1.5-1,3.4-0.9,6.2,1c2.2,1.5,2.9,4.5,3.1,5.7c0,0.2,0,0.5,0,0.7l-0.3,1.2c-0.2,1.1,0.4,2.1,1.5,2.4l7.1,1.5
						c1.1,0.2,2.1-0.4,2.4-1.5l0.5-2.2c0-0.1,0.1-0.2,0.1-0.4c0,0,0-0.1,0-0.1c0.5-1.7,2-2.9,5.3-3.2c3.3-0.4,6.5,2.7,6.5,2.7l0-0.1
						l0.6,0.9c0.6,0.9,1.8,1.2,2.7,0.6l6.1-3.9c0.9-0.6,1.2-1.8,0.6-2.7l-1-1.6c-0.1-0.1-0.2-0.3-0.2-0.4c0,0,0-0.1-0.1-0.2
						c-0.9-1.5-0.7-3.4,1.4-6.1c2-2.7,6.5-2.8,6.5-2.8l0,0l1.1,0.2c1.1,0.2,2.1-0.4,2.4-1.5l1.5-7.1
						C785.4,174.4,784.7,173.3,783.6,173.1z M748.9,190.4c-10.7-2-17.4-12.5-14.8-23.1c2.4-9.5,11.9-15.6,21.6-13.8
						c10.7,2,17.4,12.5,14.8,23.1C768.1,186.1,758.6,192.2,748.9,190.4z"/>
				</g>
			</g>
			<g>
				<g>
					<g>
						<g>
							<path class="st93" d="M771.1,137.8c4.2,2.5,7.9,5.7,11,9.5c0.1,0.1,0.1,0.4,0,0.5c-0.1,0.1-0.4,0.1-0.5,0
								c-3-3.7-6.7-6.8-10.8-9.3c-0.2-0.1-0.2-0.3-0.1-0.5C770.7,137.8,770.9,137.7,771.1,137.8z"/>
						</g>
					</g>
					<g>
						<g>
							<path class="st93" d="M785.6,152.4c0,0,0.1,0.1,0.1,0.1c3.2,5.5,5.2,11.8,5.6,18.2c0,0.2-0.1,0.3-0.3,0.4
								c-0.2,0-0.3-0.1-0.4-0.3c-0.5-6.3-2.4-12.5-5.6-17.9c-0.1-0.2,0-0.4,0.1-0.5C785.3,152.4,785.5,152.4,785.6,152.4z"/>
						</g>
					</g>
					<g>
						<g>
							<path class="st93" d="M791.2,174.8c0.1,0.1,0.2,0.2,0.2,0.3c-0.2,5-1.2,10-3.2,14.6c-0.1,0.2-0.3,0.3-0.4,0.2
								c-0.2-0.1-0.3-0.3-0.2-0.4c1.9-4.6,3-9.4,3.1-14.4c0-0.2,0.2-0.3,0.4-0.3C791.1,174.8,791.2,174.8,791.2,174.8z"/>
						</g>
					</g>
					<g>
						<g>
							<polygon class="st93" points="790.3,189.3 785.2,195 786.7,187.5 							"/>
						</g>
					</g>
				</g>
				<g>
					<g>
						<path class="st93" d="M783.2,148.8c0,0,0.1,0.1,0.1,0.1l1.3,1.9c0.1,0.2,0.1,0.4-0.1,0.5c-0.2,0.1-0.4,0.1-0.5-0.1l-1.3-1.9
							c-0.1-0.2-0.1-0.4,0.1-0.5C782.9,148.7,783.1,148.7,783.2,148.8z"/>
					</g>
				</g>
				<g>
					<g>
						<path class="st93" d="M791.3,173c0.1,0.1,0.2,0.2,0.2,0.3l0,0.8c0,0.2-0.2,0.3-0.3,0.3c-0.2,0-0.3-0.2-0.3-0.3l0-0.8
							c0-0.2,0.2-0.3,0.3-0.3C791.1,172.9,791.2,173,791.3,173z"/>
					</g>
				</g>
			</g>
		</g>
		<g>
			<g>
				<g>
					<path class="st95" d="M212.2,224.4h66l10,10c1.1,1.1,3,0.3,3-1.3v-8.7h10.2c2.7,0,4.9-2.2,4.9-4.9v-43.4c0-2.7-2.2-4.9-4.9-4.9
						H168.2c-2.7,0-4.9,2.2-4.9,4.9v43.4c0,2.7,2.2,4.9,4.9,4.9h25.7H212.2z"/>
				</g>
				<g>
					<path class="st96" d="M289.4,235.5c-0.6,0-1.2-0.2-1.6-0.7L278,225h-65.8c-0.3,0-0.5-0.2-0.5-0.5c0-0.3,0.2-0.5,0.5-0.5h66.3
						l10.1,10.1c0.4,0.4,1,0.4,1.3,0.3c0.4-0.2,0.8-0.5,0.8-1.1v-9.3h10.7c2.4,0,4.4-2,4.4-4.4v-43.4c0-2.4-2-4.4-4.4-4.4H168.2
						c-2.4,0-4.4,2-4.4,4.4v43.4c0,2.4,2,4.4,4.4,4.4h25.7c0.3,0,0.5,0.2,0.5,0.5c0,0.3-0.2,0.5-0.5,0.5h-25.7c-3,0-5.5-2.5-5.5-5.5
						v-43.4c0-3,2.5-5.5,5.5-5.5h133.2c3,0,5.5,2.5,5.5,5.5v43.4c0,3-2.5,5.5-5.5,5.5h-9.6v8.2c0,1-0.6,1.8-1.4,2.2
						C290.1,235.4,289.7,235.5,289.4,235.5z"/>
				</g>
			</g>
			<g>
				<g>
					<path class="st96" d="M160.1,173.1c-0.3,0-0.5-0.2-0.5-0.5c0-3,2.5-5.5,5.5-5.5h20.9c0.3,0,0.5,0.2,0.5,0.5
						c0,0.3-0.2,0.5-0.5,0.5H165c-2.4,0-4.4,2-4.4,4.4C160.7,172.9,160.4,173.1,160.1,173.1z"/>
				</g>
				<g>
					<g>
						<path class="st96" d="M160.1,181.1c-0.3,0-0.5-0.2-0.5-0.5v-3.9c0-0.3,0.2-0.5,0.5-0.5c0.3,0,0.5,0.2,0.5,0.5v3.9
							C160.7,180.8,160.4,181.1,160.1,181.1z"/>
					</g>
				</g>
			</g>
			<g>
				<g>
					<path class="st96" d="M303.2,228.8h-7.3c-0.3,0-0.5-0.2-0.5-0.5c0-0.3,0.2-0.5,0.5-0.5h7.3c3.2,0,5.8-2.6,5.8-5.8V214
						c0-0.3,0.2-0.5,0.5-0.5c0.3,0,0.5,0.2,0.5,0.5v7.9C310.1,225.7,307,228.8,303.2,228.8z"/>
				</g>
			</g>
			<g>
				<g>
					<path class="st96" d="M283.7,235.3c-0.1,0-0.3-0.1-0.4-0.2l-3.8-3.8c-0.2-0.2-0.2-0.6,0-0.8c0.2-0.2,0.6-0.2,0.8,0l3.8,3.8
						c0.2,0.2,0.2,0.6,0,0.8C283.9,235.2,283.8,235.3,283.7,235.3z"/>
				</g>
			</g>
			<g>
				<g>
					<path class="st96" d="M272.5,227.6h-17.8c-0.3,0-0.5-0.2-0.5-0.5c0-0.3,0.2-0.5,0.5-0.5h17.8c0.3,0,0.5,0.2,0.5,0.5
						C273,227.4,272.8,227.6,272.5,227.6z"/>
				</g>
			</g>
			<g>
				<g>
					<path class="st96" d="M264.7,187.8H174c-1.5,0-2.6-1.2-2.6-2.6l0,0c0-1.5,1.2-2.6,2.6-2.6h90.6c1.5,0,2.6,1.2,2.6,2.6l0,0
						C267.3,186.6,266.1,187.8,264.7,187.8z"/>
				</g>
				<g>
					<path class="st96" d="M207.3,200.3H174c-1.5,0-2.6-1.2-2.6-2.6l0,0c0-1.5,1.2-2.6,2.6-2.6h33.3c1.5,0,2.6,1.2,2.6,2.6l0,0
						C210,199.1,208.8,200.3,207.3,200.3z"/>
				</g>
				<g>
					<path class="st96" d="M238.7,214.6H174c-1.5,0-2.6-1.2-2.6-2.6l0,0c0-1.5,1.2-2.6,2.6-2.6h64.7c1.5,0,2.6,1.2,2.6,2.6l0,0
						C241.4,213.4,240.2,214.6,238.7,214.6z"/>
				</g>
				<g>
					<path class="st96" d="M272.6,214.6h-23.2c-1.5,0-2.6-1.2-2.6-2.6l0,0c0-1.5,1.2-2.6,2.6-2.6h23.2c1.5,0,2.6,1.2,2.6,2.6l0,0
						C275.2,213.4,274,214.6,272.6,214.6z"/>
				</g>
				<g>
					<path class="st96" d="M251.4,200.3h-33.3c-1.5,0-2.6-1.2-2.6-2.6l0,0c0-1.5,1.2-2.6,2.6-2.6h33.3c1.5,0,2.6,1.2,2.6,2.6l0,0
						C254.1,199.1,252.9,200.3,251.4,200.3z"/>
				</g>
				<g>
					<path class="st96" d="M295.6,200.3h-33.3c-1.5,0-2.6-1.2-2.6-2.6l0,0c0-1.5,1.2-2.6,2.6-2.6h33.3c1.5,0,2.6,1.2,2.6,2.6l0,0
						C298.2,199.1,297,200.3,295.6,200.3z"/>
				</g>
			</g>
			<g>
				<g>
					<path class="st96" d="M304.1,180.3c-0.3,0-0.5-0.2-0.5-0.5v-2.3c0-1.8-1.5-3.3-3.3-3.3h-9.1c-0.3,0-0.5-0.2-0.5-0.5
						c0-0.3,0.2-0.5,0.5-0.5h9.1c2.4,0,4.4,2,4.4,4.4v2.3C304.7,180,304.4,180.3,304.1,180.3z"/>
				</g>
			</g>
			<g>
				<g>
					<path class="st96" d="M304.1,187.8c-0.3,0-0.5-0.2-0.5-0.5v-4.7c0-0.3,0.2-0.5,0.5-0.5s0.5,0.2,0.5,0.5v4.7
						C304.7,187.5,304.4,187.8,304.1,187.8z"/>
				</g>
			</g>
			<g>
				<g>
					<path class="st97" d="M200.1,224.9h-3.4c-0.3,0-0.5-0.2-0.5-0.5c0-0.3,0.2-0.5,0.5-0.5h3.4c0.3,0,0.5,0.2,0.5,0.5
						C200.7,224.7,200.4,224.9,200.1,224.9z"/>
				</g>
			</g>
			<g>
				<g>
					<path class="st97" d="M207.3,224.9h-3.4c-0.3,0-0.5-0.2-0.5-0.5c0-0.3,0.2-0.5,0.5-0.5h3.4c0.3,0,0.5,0.2,0.5,0.5
						C207.8,224.7,207.6,224.9,207.3,224.9z"/>
				</g>
			</g>
		</g>
		<g>
			<g>
				<g>
					<g>
						<path class="st95" d="M640.4,68.5h-86.7c-3.6,0-6.6-2.9-6.6-6.6V32.3c0-3.6,2.9-6.6,6.6-6.6h86.7c3.6,0,6.6,2.9,6.6,6.6v29.6
							C647,65.5,644,68.5,640.4,68.5z"/>
					</g>
					<g>
						<path class="st96" d="M640.4,69.3h-86.7c-4.1,0-7.4-3.3-7.4-7.4V32.3c0-4.1,3.3-7.4,7.4-7.4h86.7c4.1,0,7.4,3.3,7.4,7.4v29.6
							C647.8,66,644.5,69.3,640.4,69.3z M553.7,26.6c-3.2,0-5.8,2.6-5.8,5.8v29.6c0,3.2,2.6,5.8,5.8,5.8h86.7c3.2,0,5.8-2.6,5.8-5.8
							V32.3c0-3.2-2.6-5.8-5.8-5.8H553.7z"/>
					</g>
				</g>
				<g>
					<path class="st96" d="M646.6,32.3v0.4h-99.9v-0.4c0-3.6,2.9-6.6,6.6-6.6H640C643.6,25.8,646.6,28.7,646.6,32.3z"/>
				</g>
				<g>
					<g>
						<path class="st98" d="M627.8,29.2c0,0.8-0.6,1.4-1.4,1.4s-1.4-0.6-1.4-1.4c0-0.8,0.6-1.4,1.4-1.4S627.8,28.4,627.8,29.2z"/>
					</g>
					<g>
						<path class="st99" d="M633,29.2c0,0.8-0.6,1.4-1.4,1.4c-0.8,0-1.4-0.6-1.4-1.4c0-0.8,0.6-1.4,1.4-1.4
							C632.3,27.8,633,28.4,633,29.2z"/>
					</g>
					<g>
						<path class="st100" d="M638.2,29.2c0,0.8-0.6,1.4-1.4,1.4c-0.8,0-1.4-0.6-1.4-1.4c0-0.8,0.6-1.4,1.4-1.4
							C637.6,27.8,638.2,28.4,638.2,29.2z"/>
					</g>
				</g>
			</g>
			<g>
				<g>
					<path class="st96" d="M630,42.3h-37.8c-0.6,0-1.1-0.5-1.1-1.1l0,0c0-0.6,0.5-1.1,1.1-1.1H630c0.6,0,1.1,0.5,1.1,1.1l0,0
						C631.1,41.8,630.7,42.3,630,42.3z"/>
				</g>
				<g>
					<path class="st96" d="M606.1,47.5h-13.9c-0.6,0-1.1-0.5-1.1-1.1l0,0c0-0.6,0.5-1.1,1.1-1.1h13.9c0.6,0,1.1,0.5,1.1,1.1l0,0
						C607.2,47,606.7,47.5,606.1,47.5z"/>
				</g>
				<g>
					<path class="st96" d="M606.1,58.4h-13.9c-0.6,0-1.1-0.5-1.1-1.1l0,0c0-0.6,0.5-1.1,1.1-1.1h13.9c0.6,0,1.1,0.5,1.1,1.1l0,0
						C607.2,57.9,606.7,58.4,606.1,58.4z"/>
				</g>
				<g>
					<path class="st96" d="M619.7,53.4h-27.9c-0.4,0-0.6-0.3-0.6-0.6v-0.9c0-0.4,0.3-0.6,0.6-0.6h27.9c0.4,0,0.6,0.3,0.6,0.6v0.9
						C620.3,53.2,620,53.4,619.7,53.4z"/>
				</g>
				<g>
					<path class="st96" d="M633.8,53.4h-10.6c-0.4,0-0.6-0.3-0.6-0.6v-0.9c0-0.4,0.3-0.6,0.6-0.6h10.6c0.4,0,0.6,0.3,0.6,0.6v0.9
						C634.4,53.2,634.2,53.4,633.8,53.4z"/>
				</g>
				<g>
					<path class="st96" d="M624.5,47.5h-13.9c-0.6,0-1.1-0.5-1.1-1.1l0,0c0-0.6,0.5-1.1,1.1-1.1h13.9c0.6,0,1.1,0.5,1.1,1.1l0,0
						C625.6,47,625.1,47.5,624.5,47.5z"/>
				</g>
				<g>
					<path class="st96" d="M642.9,47.5H629c-0.6,0-1.1-0.5-1.1-1.1l0,0c0-0.6,0.5-1.1,1.1-1.1h13.9c0.6,0,1.1,0.5,1.1,1.1l0,0
						C644,47,643.5,47.5,642.9,47.5z"/>
				</g>
			</g>
			<g>
				<g>
					<path class="st97" d="M552.1,72.8c-5.1,0-9.2-4.1-9.2-9.2V50.9c0-0.4,0.3-0.7,0.7-0.7c0.4,0,0.7,0.3,0.7,0.7v12.8
						c0,4.3,3.5,7.7,7.7,7.7c0.4,0,0.7,0.3,0.7,0.7C552.8,72.5,552.5,72.8,552.1,72.8z"/>
				</g>
			</g>
			<g>
				<g>
					<path class="st97" d="M543.6,46c-0.4,0-0.7-0.3-0.7-0.7v-6c0-0.4,0.3-0.7,0.7-0.7c0.4,0,0.7,0.3,0.7,0.7v6
						C544.4,45.7,544,46,543.6,46z"/>
				</g>
			</g>
			<g>
				<g>
					<path class="st97" d="M638.2,72.8h-11.8c-0.4,0-0.7-0.3-0.7-0.7c0-0.4,0.3-0.7,0.7-0.7h11.8c0.4,0,0.7,0.3,0.7,0.7
						C638.9,72.5,638.6,72.8,638.2,72.8z"/>
				</g>
			</g>
			<g>
				<g>
					<path class="st97" d="M638.2,23.4h-14.8c-0.4,0-0.7-0.3-0.7-0.7c0-0.4,0.3-0.7,0.7-0.7h14.8c0.4,0,0.7,0.3,0.7,0.7
						C638.9,23.1,638.6,23.4,638.2,23.4z"/>
				</g>
			</g>
			<g>
				<g>
					<path class="st97" d="M567,72.8h-4.2c-0.4,0-0.7-0.3-0.7-0.7c0-0.4,0.3-0.7,0.7-0.7h4.2c0.4,0,0.7,0.3,0.7,0.7
						C567.7,72.5,567.4,72.8,567,72.8z"/>
				</g>
			</g>
			<g>
				<g>
					<path class="st101" d="M581,48.9h-1c0,0,0,0-0.1,0c-0.6,0-1.1-0.5-1.5-1.6c-0.3-0.9,0.1-2,0.3-2.3c0-0.1,0.1-0.1,0.1-0.2
						l0.3-0.3c0.3-0.3,0.3-0.7,0-1l-1.8-1.8c-0.3-0.3-0.7-0.3-1,0l-0.7,0.7c0,0-0.1,0-0.1,0.1c-0.4,0.3-1.1,0.3-2-0.1
						c-1.1-0.4-1.6-1.9-1.6-1.9l0,0.1v-0.6c0-0.4-0.3-0.7-0.7-0.7h-2.6c-0.4,0-0.7,0.3-0.7,0.7v0.9c0,0.6-0.4,1.2-1.5,1.6
						c-0.9,0.4-2-0.1-2.4-0.3c-0.1,0-0.1-0.1-0.2-0.1l-0.3-0.3c-0.3-0.3-0.7-0.3-1,0l-1.8,1.8c-0.3,0.3-0.3,0.7,0,1l0.7,0.7
						c0,0,0.1,0.1,0.1,0.1c0.2,0.4,0.3,1-0.1,1.9c-0.3,0.9-1.3,1.4-1.7,1.6c-0.1,0-0.2,0.1-0.3,0.1h-0.5c-0.4,0-0.7,0.3-0.7,0.7v2.6
						c0,0.4,0.3,0.7,0.7,0.7h0.8c0,0,0,0,0,0c0.6,0,1.2,0.4,1.7,1.4c0.4,0.8,0.1,1.7-0.1,2.2c0,0.1-0.1,0.2-0.2,0.3l-0.4,0.4
						c-0.3,0.3-0.3,0.7,0,1l1.8,1.8c0.3,0.3,0.7,0.3,1,0l0.4-0.4c0,0,0.1-0.1,0.1-0.1c0,0,0,0,0,0c0.4-0.5,1.1-0.6,2.2-0.1
						c0.9,0.3,1.3,1.3,1.5,1.8c0,0.1,0,0.2,0,0.3v0.4c0,0.4,0.3,0.7,0.7,0.7h2.6c0.4,0,0.7-0.3,0.7-0.7V61c0,0,0-0.1,0-0.1
						c0,0,0,0,0,0c0-0.6,0.5-1.1,1.6-1.5c1.1-0.4,2.4,0.5,2.4,0.5l0,0l0.3,0.3c0.3,0.3,0.7,0.3,1,0l1.8-1.8c0.3-0.3,0.3-0.7,0-1
						l-0.5-0.5c0,0-0.1-0.1-0.1-0.1c0,0,0,0,0,0c-0.4-0.5-0.5-1.1,0-2.2c0.5-1.1,2-1.5,2-1.5l0,0h0.4c0.4,0,0.7-0.3,0.7-0.7v-2.6
						C581.7,49.2,581.4,48.9,581,48.9z M570.3,57.5c-3.8,0.1-7-3-6.9-6.9c0.1-3.5,2.9-6.3,6.4-6.4c3.8-0.1,7,3,6.9,6.9
						C576.6,54.6,573.8,57.4,570.3,57.5z"/>
				</g>
			</g>
		</g>
		<g>
			<path class="st96" d="M741.8,111.6h-1.1v8.4c0,0.8-0.7,1.5-1.5,1.5h-6v-6.2c0-0.6-0.5-1.1-1.1-1.1l0,0c-0.6,0-1.1,0.5-1.1,1.1
				v6.2h-5.5c-0.8,0-1.5-0.7-1.5-1.5v-8.4h-1.1c-1.3,0-2-1.2-1.1-1.9l4.1-3.5l4.8-4.1c0.9-0.7,2.4-0.7,3.2,0l4.8,4.1l4.1,3.5
				C743.7,110.4,743.1,111.6,741.8,111.6z"/>
			<path class="st96" d="M694,162.3c0-0.3-0.2-0.5-0.4-0.7l-1.4-1.1c-0.7-0.5-0.4-1.6,0.4-1.7l0.7-0.1c0.3,0,0.5-0.2,0.7-0.5
				c0.2-0.3,0.2-0.7,0-1l0-0.1c-0.2-0.3-0.5-0.5-0.8-0.5l-2.8-0.1c-0.2,0-0.3,0-0.5,0.1l-0.2,0.1c-0.5,0.2-1.1,0-1.3-0.5l-1-2.5
				c-0.4-1.1-1.2-1.9-2.3-2.4l-2.1-1c-0.1-0.1-0.2-0.1-0.4-0.1l-8-0.2l-8,0.2c-0.1,0-0.2,0-0.4,0.1l-2.1,1c-1,0.5-1.8,1.4-2.3,2.4
				l-1,2.5c-0.2,0.5-0.8,0.8-1.3,0.5l-0.2-0.1c-0.1-0.1-0.3-0.1-0.5-0.1l-2.8,0.1c-0.3,0-0.6,0.2-0.8,0.5l0,0
				c-0.2,0.4-0.2,0.9,0.1,1.2c0.2,0.2,0.4,0.3,0.6,0.3l0.7,0.1c0.9,0.1,1.1,1.2,0.4,1.7l-1.4,1.1c-0.2,0.2-0.4,0.4-0.4,0.7l-0.4,6.1
				c0,0.2,0,0.5,0.2,0.6l2.2,3c0.1,0.2,0.2,0.4,0.2,0.6v2.5c0,0.8,0.7,1.5,1.5,1.5h5.1c0.8,0,1.5-0.7,1.5-1.5v-1.1c0-0.5,0.4-1,1-1
				h8.2h8.2c0.5,0,1,0.4,1,1v1.1c0,0.8,0.7,1.5,1.5,1.5h5.1c0.8,0,1.5-0.7,1.5-1.5v-2.5c0-0.2,0.1-0.4,0.2-0.6l2.2-3
				c0.1-0.2,0.2-0.4,0.2-0.6L694,162.3z M668,167.2l-1.1,0.7c-0.1,0.1-0.2,0.1-0.3,0.1l-5.7,0.2c-0.2,0-0.3-0.1-0.5-0.2l-1.9-1.7
				c-0.2-0.2-0.3-0.6-0.1-0.9l1.2-1.8c0.2-0.2,0.5-0.4,0.7-0.3c1.5,0.4,6,1.6,6,1.6c0,0,1,0.6,1.8,1.1
				C668.4,166.4,668.4,167,668,167.2z M660.9,159.1l0.2-0.3l1.9-4.6c0,0,0.8-2.5,5.3-2.7c4.5-0.2,14.1,0,14.1,0s2.7,0.3,3.9,3.1
				c1.2,2.8,2,4.2,2,4.2S663.8,158.4,660.9,159.1z M690.8,166.3l-1.9,1.7c-0.1,0.1-0.3,0.2-0.5,0.2l-5.7-0.2c-0.1,0-0.2,0-0.3-0.1
				l-1.1-0.7c-0.4-0.3-0.4-0.9,0-1.1c0.8-0.5,1.7-1.1,1.8-1.1c0.1,0,4.6-1.2,6-1.6c0.3-0.1,0.6,0,0.7,0.3l1.2,1.8
				C691.1,165.7,691,166.1,690.8,166.3z"/>
			<g>
				<path class="st96" d="M478.4,73.4c-0.4-1.9-2-3.3-4-3.3h0c-2.3,0-4.2,1.9-4.2,4.2c0,2.3,1.9,4.2,4.2,4.2c2.3,0,4.2-1.9,4.2-4.2
					C478.5,73.9,478.5,73.6,478.4,73.4z M474.4,77c-1.5,0-2.8-1.2-2.8-2.8c0-1.5,1.2-2.8,2.8-2.8c0.2,0,0.5,0,0.7,0.1
					c1,0.2,1.7,1,2,2c0.1,0.2,0.1,0.4,0.1,0.7C477.1,75.7,475.9,77,474.4,77z"/>
				<path class="st96" d="M488.6,61.6c-0.3-1.1-1.3-1.9-2.4-1.9c-1.4,0-2.5,1.1-2.5,2.4v0.1c0,1.3,1,2.4,2.2,2.5c0,0,0.1,0,0.1,0
					c0.1,0,0.1,0,0.2,0c1.4,0,2.5-1.1,2.5-2.5C488.7,62,488.6,61.8,488.6,61.6z M486.2,63.3C486.2,63.3,486.2,63.3,486.2,63.3
					c-0.7,0-1.2-0.5-1.2-1.1c0-0.6,0.5-1.1,1.1-1.1c0.6,0,1.1,0.5,1.1,1.1c0,0.1,0,0.2-0.1,0.3C487.1,63,486.7,63.3,486.2,63.3z"/>
				<path class="st96" d="M482.2,88.8H476c-0.3,0-0.5,0-0.8,0.1l-2-9.8c0.4,0.1,0.8,0.1,1.2,0.1c1.3,0,2.5-0.5,3.4-1.3L482.2,88.8z"
					/>
				<path class="st96" d="M485.3,65.4l-6.1,7.2c-0.6-1.7-2.1-3-3.8-3.3l7.6-6.5C483.1,64.1,484,65.1,485.3,65.4z"/>
				<path class="st96" d="M493.9,69.8l-2,1.5l-5.2-5.8c1.4-0.2,2.4-1.3,2.7-2.6L493.9,69.8z"/>
				<polygon class="st96" points="492.3,76.1 491.7,72.1 494.9,69.6 498.6,71.1 499.2,75.1 498.9,75.3 498.4,74.7 498,71.6 
					495,70.4 492.5,72.4 493,75.6 495.9,76.7 496.4,77.3 496,77.6 				"/>
				<path class="st96" d="M484,95.4h-9.8v-2.9c0-1.6,1.3-2.9,2.9-2.9h4.1c1.6,0,2.9,1.3,2.9,2.9V95.4z"/>
				<path class="st96" d="M491.4,98h-23.8l0,0c0-1.1,0.9-1.9,1.9-1.9h19.9C490.5,96.1,491.4,97,491.4,98L491.4,98z"/>
			</g>
			<path class="st96" d="M606.8,357.8v-2.2h-3.4v-3.8H600v-4.7h-1.8V337h-4.9v10.1h-1.8v4.7h-0.7v-4.4c0-0.4-0.3-0.7-0.7-0.7
				c-0.1,0-0.1-1.6-0.1-1.6c0-0.1-0.1-0.2-0.2-0.2h-0.6h-4.5v-5.5h-3.7v5.5h-8.1c-0.2,0-0.4,0.2-0.4,0.4v0.4v1.1
				c-0.5,0-0.8,0.4-0.8,0.9v10.3h-1.3v8.6h39.2v-8.6H606.8z M581,352.4v1.7h-5.7v-1.7H581z M581,355.4v1.7h-5.7v-1.7H581z
				 M573.3,346.7c0,0,0-1.1,0-1.1h7.6v6.1h-6.1v3.8v0.5v1.7h-0.6v-10.3C574.2,347.1,573.8,346.7,573.3,346.7z M578.5,365.9h-4.2
				v-4.2h4.2V365.9z M584.2,365.9h-4.2v-4.2h4.2V365.9z M589.2,346.7c-0.4,0-0.6,0.3-0.6,0.7v4.4h-3.9v-6.1h4.5V346.7z M596.1,347.8
				h3.1v1.7h-3.1V347.8z M596.1,349.8h3.1v1.7h-3.1V349.8z M592.3,347.8h3.1v1.7h-3.1V347.8z M592.3,349.8h3.1v1.7h-3.1V349.8z
				 M593.1,358h-2.7v-1.6h2.7V358z M596.3,362h-2.7v-1.6h2.7V362z M596.3,360h-2.7v-1.6h2.7V360z M596.3,358h-2.7v-1.6h2.7V358z
				 M599.5,362h-2.7v-1.6h2.7V362z M599.5,360h-2.7v-1.6h2.7V360z M599.5,358h-2.7v-1.6h2.7V358z M602.7,362H600v-1.6h2.7V362z
				 M602.7,360H600v-1.6h2.7V360z M602.7,358H600v-1.6h2.7V358z M605.9,362h-2.7v-1.6h2.7V362z M605.9,360h-2.7v-1.6h2.7V360z
				 M605.9,358h-2.7v-1.6h2.7V358z M609.1,362h-2.7v-1.6h2.7V362z M609.1,360h-2.7v-1.6h2.7V360z"/>
			<g>
				<g>
					<path class="st96" d="M379.8,258.6l6.6,13.1c0.2,0.3,0.6,0.5,1,0.3l2-1c0.4-0.2,0.5-0.6,0.3-0.9l-6.5-13.1
						c-0.2-0.3-0.6-0.5-1-0.3l-2,1C379.8,257.8,379.6,258.2,379.8,258.6z M388.4,268.8c0.1-0.1,0.2,0,0.3,0.1l0.5,1
						c0.1,0.1,0,0.2-0.1,0.3l-0.8,0.4c-0.1,0.1-0.2,0-0.3-0.1l-0.5-1c-0.1-0.1,0-0.2,0.1-0.3L388.4,268.8z M386.9,269.6
						c0.1-0.1,0.2,0,0.3,0.1l0.5,1c0.1,0.1,0,0.2-0.1,0.3l-0.8,0.4c-0.1,0.1-0.2,0-0.3-0.1l-0.5-1c-0.1-0.1,0-0.2,0.1-0.3
						L386.9,269.6z M387.3,266.5c0.1-0.1,0.2,0,0.3,0.1l0.5,1c0.1,0.1,0,0.2-0.1,0.3l-0.8,0.4c-0.1,0.1-0.2,0-0.3-0.1l-0.5-1
						c-0.1-0.1,0-0.2,0.1-0.3L387.3,266.5z M385.7,267.3c0.1-0.1,0.2,0,0.3,0.1l0.5,1c0.1,0.1,0,0.2-0.1,0.3l-0.8,0.4
						c-0.1,0.1-0.2,0-0.3-0.1l-0.5-1c-0.1-0.1,0-0.2,0.1-0.3L385.7,267.3z M386.1,264.2c0.1-0.1,0.2,0,0.3,0.1l0.5,1
						c0.1,0.1,0,0.2-0.1,0.3l-0.8,0.4c-0.1,0.1-0.2,0-0.3-0.1l-0.5-1c-0.1-0.1,0-0.2,0.1-0.3L386.1,264.2z M384.6,264.9
						c0.1-0.1,0.2,0,0.3,0.1l0.5,1c0.1,0.1,0,0.2-0.1,0.3l-0.8,0.4c-0.1,0.1-0.2,0-0.3-0.1l-0.5-1c-0.1-0.1,0-0.2,0.1-0.3
						L384.6,264.9z M384.9,261.8c0.1-0.1,0.2,0,0.3,0.1l0.5,1c0.1,0.1,0,0.2-0.1,0.3l-0.8,0.4c-0.1,0.1-0.2,0-0.3-0.1l-0.5-1
						c-0.1-0.1,0-0.2,0.1-0.3L384.9,261.8z M383.4,262.6c0.1-0.1,0.2,0,0.3,0.1l0.5,1c0.1,0.1,0,0.2-0.1,0.3l-0.8,0.4
						c-0.1,0.1-0.2,0-0.3-0.1l-0.5-1c-0.1-0.1,0-0.2,0.1-0.3L383.4,262.6z M383.8,259.5c0.1-0.1,0.2,0,0.3,0.1l0.5,1
						c0.1,0.1,0,0.2-0.1,0.3l-0.8,0.4c-0.1,0.1-0.2,0-0.3-0.1l-0.5-1c-0.1-0.1,0-0.2,0.1-0.3L383.8,259.5z M382.2,260.3
						c0.1-0.1,0.2,0,0.3,0.1l0.5,1c0.1,0.1,0,0.2-0.1,0.3l-0.8,0.4c-0.1,0.1-0.2,0-0.3-0.1l-0.5-1c-0.1-0.1,0-0.2,0.1-0.3
						L382.2,260.3z M382.6,257.2c0.1-0.1,0.2,0,0.3,0.1l0.5,1c0.1,0.1,0,0.2-0.1,0.3l-0.8,0.4c-0.1,0.1-0.2,0-0.3-0.1l-0.5-1
						c-0.1-0.1,0-0.2,0.1-0.3L382.6,257.2z M381.1,258c0.1-0.1,0.2,0,0.3,0.1l0.5,1c0.1,0.1,0,0.2-0.1,0.3l-0.8,0.4
						c-0.1,0.1-0.2,0-0.3-0.1l-0.5-1c-0.1-0.1,0-0.2,0.1-0.3L381.1,258z"/>
					<path class="st96" d="M400.6,268.5l-1.6,0.8c-0.3-0.4-0.9-0.6-1.4-0.4l-8,4l-0.8-1.6l-0.8,0.4l0.8,1.6l-3.4,1.7
						c-0.6,0.3-0.8,0.9-0.5,1.5l1.9,3.7c0.3,0.6,1,0.8,1.5,0.5l3.4-1.7l0.8,1.6l-0.6,0.3c-0.3,0.2-0.5,0.6-0.3,0.9L398,295
						c0.2,0.3,0.6,0.5,1,0.3l2-1c0.4-0.2,0.5-0.6,0.3-0.9l-6.5-13.1c-0.2-0.3-0.6-0.5-1-0.3l-0.6,0.3l-0.8-1.6l8-4
						c0.5-0.2,0.7-0.8,0.6-1.3l1.6-0.8c1,1.8,3.3,2.5,5.2,1.6l0,0l-1.7-3.4c-0.9,0.3-1.9-0.2-2.4-1c-0.4-0.9-0.2-1.9,0.6-2.5
						l-1.9-3.8l0,0C400.5,264.4,399.7,266.6,400.6,268.5z M400.1,292.1c0.1-0.1,0.2,0,0.3,0.1l0.5,1c0.1,0.1,0,0.2-0.1,0.3l-0.8,0.4
						c-0.1,0.1-0.2,0-0.3-0.1l-0.5-1c-0.1-0.1,0-0.2,0.1-0.3L400.1,292.1z M398.6,292.9c0.1-0.1,0.2,0,0.3,0.1l0.5,1
						c0.1,0.1,0,0.2-0.1,0.3l-0.8,0.4c-0.1,0.1-0.2,0-0.3-0.1l-0.5-1c-0.1-0.1,0-0.2,0.1-0.3L398.6,292.9z M398.9,289.8
						c0.1-0.1,0.2,0,0.3,0.1l0.5,1c0.1,0.1,0,0.2-0.1,0.3l-0.8,0.4c-0.1,0.1-0.2,0-0.3-0.1l-0.5-1c-0.1-0.1,0-0.2,0.1-0.3
						L398.9,289.8z M397.4,290.6c0.1-0.1,0.2,0,0.3,0.1l0.5,1c0.1,0.1,0,0.2-0.1,0.3l-0.8,0.4c-0.1,0.1-0.2,0-0.3-0.1l-0.5-1
						c-0.1-0.1,0-0.2,0.1-0.3L397.4,290.6z M397.8,287.5c0.1-0.1,0.2,0,0.3,0.1l0.5,1c0.1,0.1,0,0.2-0.1,0.3l-0.8,0.4
						c-0.1,0.1-0.2,0-0.3-0.1l-0.5-1c-0.1-0.1,0-0.2,0.1-0.3L397.8,287.5z M396.2,288.2c0.1-0.1,0.2,0,0.3,0.1l0.5,1
						c0.1,0.1,0,0.2-0.1,0.3l-0.8,0.4c-0.1,0.1-0.2,0-0.3-0.1l-0.5-1c-0.1-0.1,0-0.2,0.1-0.3L396.2,288.2z M396.6,285.2
						c0.1-0.1,0.2,0,0.3,0.1l0.5,1c0.1,0.1,0,0.2-0.1,0.3l-0.8,0.4c-0.1,0.1-0.2,0-0.3-0.1l-0.5-1c-0.1-0.1,0-0.2,0.1-0.3
						L396.6,285.2z M395.1,285.9c0.1-0.1,0.2,0,0.3,0.1l0.5,1c0.1,0.1,0,0.2-0.1,0.3l-0.8,0.4c-0.1,0.1-0.2,0-0.3-0.1l-0.5-1
						c-0.1-0.1,0-0.2,0.1-0.3L395.1,285.9z M395.4,282.8c0.1-0.1,0.2,0,0.3,0.1l0.5,1c0.1,0.1,0,0.2-0.1,0.3l-0.8,0.4
						c-0.1,0.1-0.2,0-0.3-0.1l-0.5-1c-0.1-0.1,0-0.2,0.1-0.3L395.4,282.8z M393.9,283.6c0.1-0.1,0.2,0,0.3,0.1l0.5,1
						c0.1,0.1,0,0.2-0.1,0.3l-0.8,0.4c-0.1,0.1-0.2,0-0.3-0.1l-0.5-1c-0.1-0.1,0-0.2,0.1-0.3L393.9,283.6z M394.3,280.5
						c0.1-0.1,0.2,0,0.3,0.1l0.5,1c0.1,0.1,0,0.2-0.1,0.3l-0.8,0.4c-0.1,0.1-0.2,0-0.3-0.1l-0.5-1c-0.1-0.1,0-0.2,0.1-0.3
						L394.3,280.5z M392.7,281.3c0.1-0.1,0.2,0,0.3,0.1l0.5,1c0.1,0.1,0,0.2-0.1,0.3l-0.8,0.4c-0.1,0.1-0.2,0-0.3-0.1l-0.5-1
						c-0.1-0.1,0-0.2,0.1-0.3L392.7,281.3z"/>
				</g>
				<path class="st96" d="M405,267.1c0.8-0.4,1.7-0.1,2.1,0.7c0.4,0.8,0.1,1.7-0.7,2.1c-0.8,0.4-1.7,0.1-2.1-0.7
					C403.9,268.4,404.2,267.5,405,267.1z"/>
				<g>
					<g>
						<path class="st96" d="M409.5,273.3c0.8-2.7,0.7-5-0.4-7c-1.6-2.9-5-3.9-5-3.9l0.2-0.6c0.1,0,3.6,1,5.4,4.2
							c1.2,2.1,1.3,4.6,0.4,7.5L409.5,273.3z"/>
					</g>
					<g>
						<path class="st96" d="M412.4,274.6c1.1-3.7,0.9-6.9-0.5-9.5c-2.3-4-6.8-5.3-6.9-5.3l0.2-0.6c0.2,0.1,4.9,1.4,7.3,5.6
							c1.6,2.8,1.8,6.2,0.6,10L412.4,274.6z"/>
					</g>
					<g>
						<path class="st96" d="M415.4,275c1.3-4.5,1.1-8.4-0.7-11.6c-2.7-4.9-8.3-6.5-8.4-6.5l0.2-0.6c0.2,0.1,5.9,1.7,8.8,6.8
							c1.9,3.4,2.1,7.4,0.7,12.1L415.4,275z"/>
					</g>
				</g>
			</g>
			<g>
				<g>
					<g>
						<g>
							<rect x="754" y="173.3" class="st96" width="0.5" height="13.8"/>
						</g>
						<g>
							<path class="st96" d="M754.3,172.6c-0.7,0-1.3-0.6-1.3-1.3c0-0.7,0.6-1.3,1.3-1.3c0.7,0,1.3,0.6,1.3,1.3
								C755.5,172.1,755,172.6,754.3,172.6z M754.3,170.5c-0.5,0-0.9,0.4-0.9,0.9c0,0.5,0.4,0.9,0.9,0.9c0.5,0,0.9-0.4,0.9-0.9
								C755.2,170.9,754.8,170.5,754.3,170.5z"/>
						</g>
						<path class="st96" d="M754.2,159.2l0.5,4.9l0.4,3.9c0.1,0.5-0.4,1-0.9,1l0,0l0,0c-0.5,0-0.9-0.4-0.9-1l0.4-3.9L754.2,159.2z"
							/>
						<path class="st96" d="M766,174.4l-4.8-0.8l-3.9-0.6c-0.5-0.1-0.8-0.6-0.7-1.1l0,0l0,0c0.1-0.5,0.7-0.8,1.1-0.6l3.7,1.4
							L766,174.4z"/>
						<path class="st96" d="M742.4,174.4l4.8-0.8l3.9-0.6c0.5-0.1,0.8-0.6,0.7-1.1l0,0l0,0c-0.1-0.5-0.7-0.8-1.1-0.6l-3.7,1.4
							L742.4,174.4z"/>
					</g>
				</g>
				<g>
					<rect x="741.6" y="160.9" class="st96" width="9.1" height="0.5"/>
				</g>
				<g>
					<rect x="745.4" y="163.6" class="st96" width="4.6" height="0.5"/>
				</g>
				<g>
					<rect x="743.6" y="166.4" class="st96" width="6.3" height="0.5"/>
				</g>
			</g>
			<g>
				<g>
					<path class="st96" d="M670.9,372.2h-15.5v-15.4h15.5V372.2z M656.5,371.2h13.4v-13.3h-13.4V371.2z"/>
				</g>
				<g>
					<path class="st96" d="M666.8,368.2h-7.7v-7.7h7.7V368.2z M659.6,367.6h6.7V361h-6.7V367.6z"/>
				</g>
				<g>
					<g>
						<rect x="658.3" y="352.4" class="st96" width="0.5" height="3.7"/>
					</g>
					<g>
						<rect x="660.8" y="352.4" class="st96" width="0.5" height="3.7"/>
					</g>
					<g>
						<rect x="663.2" y="352.4" class="st96" width="0.5" height="3.7"/>
					</g>
					<g>
						<rect x="665.6" y="352.4" class="st96" width="0.5" height="3.7"/>
					</g>
					<g>
						<rect x="668.1" y="352.4" class="st96" width="0.5" height="3.7"/>
					</g>
				</g>
				<g>
					<g>
						<rect x="672.2" y="359.2" class="st96" width="3.7" height="0.5"/>
					</g>
					<g>
						<rect x="672.2" y="361.6" class="st96" width="3.7" height="0.5"/>
					</g>
					<g>
						<rect x="672.2" y="364.1" class="st96" width="3.7" height="0.5"/>
					</g>
					<g>
						<rect x="672.2" y="366.5" class="st96" width="3.7" height="0.5"/>
					</g>
					<g>
						<rect x="672.2" y="368.9" class="st96" width="3.7" height="0.5"/>
					</g>
				</g>
				<g>
					<g>
						<rect x="650.8" y="359.2" class="st96" width="3.7" height="0.5"/>
					</g>
					<g>
						<rect x="650.8" y="361.6" class="st96" width="3.7" height="0.5"/>
					</g>
					<g>
						<rect x="650.8" y="364.1" class="st96" width="3.7" height="0.5"/>
					</g>
					<g>
						<rect x="650.8" y="366.5" class="st96" width="3.7" height="0.5"/>
					</g>
					<g>
						<rect x="650.8" y="368.9" class="st96" width="3.7" height="0.5"/>
					</g>
				</g>
				<g>
					<g>
						<rect x="668.1" y="372.4" class="st96" width="0.5" height="3.7"/>
					</g>
					<g>
						<rect x="665.6" y="372.4" class="st96" width="0.5" height="3.7"/>
					</g>
					<g>
						<rect x="663.2" y="372.4" class="st96" width="0.5" height="3.7"/>
					</g>
					<g>
						<rect x="660.8" y="372.4" class="st96" width="0.5" height="3.7"/>
					</g>
					<g>
						<rect x="658.3" y="372.4" class="st96" width="0.5" height="3.7"/>
					</g>
				</g>
			</g>
			<g>
				<path class="st96" d="M361.3,200.3c-0.1,0.2-0.2,0.3-0.2,0.5c-0.3-0.2-0.6-0.3-1-0.3c-1,0-1.8,0.9-1.8,1.9v0c-0.1,0-0.1,0-0.2,0
					c-0.8,0-1.4,0.8-1.4,1.9H346c0-0.1,0-0.2,0-0.3c0-0.1,0-0.2,0-0.3c0-1.5,0.9-2.8,2.1-2.8c0.1,0,0.2,0,0.3,0v0
					c0-1.5,1.1-2.8,2.5-2.8c0.5,0,1,0.2,1.4,0.4c0.3-1.1,1.1-1.9,2-1.9c0.6,0,1.1,0.3,1.4,0.8c0.3-0.2,0.6-0.3,1-0.3
					c0.7,0,1.4,0.5,1.8,1.3c0.8,0.1,1.1,0.3,1.3,0.5c0.2,0.2,0.1,0.5,0.3,0.9c0.1,0,0.2,0,0.2,0C360.6,199.9,361,200,361.3,200.3z"
					/>
				<path class="st96" d="M365.7,202c0,0-0.1,0-0.1,0l0,0c-0.2-0.4,0-0.7-0.9-0.8c-0.2-0.4-0.6-0.7-1-0.7c-0.2,0-0.4,0.1-0.6,0.2
					c-0.2-0.3-0.5-0.4-0.8-0.4c-0.5,0-1,0.5-1.1,1.1c-0.2-0.2-0.5-0.2-0.8-0.2c-0.8,0-1.4,0.7-1.4,1.6c0,0,0,0,0,0
					c-0.1,0-0.1,0-0.2,0c-0.6,0-1.2,0.7-1.2,1.6c0,0.1,0,0.1,0,0.2c0,0,0,0.1,0,0.1h2.3h1.9h2.2h0.6h1.9c0,0,0-0.1,0.1-0.1
					c0.1-0.2,0.2-0.5,0.2-0.8C366.8,202.7,366.3,202,365.7,202z"/>
				<g>
					<g>
						<path class="st96" d="M350.5,210.2h-5.6c-0.3,0-0.6,0.3-0.6,0.6v0.5c0,0.4,0.3,0.6,0.6,0.6h5.6c0.3,0,0.6-0.3,0.6-0.6v-0.5
							C351.1,210.5,350.8,210.2,350.5,210.2z M344.9,210.6h3.6v0.2h-3.6V210.6z M345.3,211.5c-0.1,0-0.2-0.1-0.2-0.2
							c0-0.1,0.1-0.2,0.2-0.2c0.1,0,0.2,0.1,0.2,0.2C345.5,211.4,345.4,211.5,345.3,211.5z M346,211.5c-0.1,0-0.2-0.1-0.2-0.2
							c0-0.1,0.1-0.2,0.2-0.2c0.1,0,0.2,0.1,0.2,0.2C346.2,211.4,346.1,211.5,346,211.5z M346.7,211.5c-0.1,0-0.2-0.1-0.2-0.2
							c0-0.1,0.1-0.2,0.2-0.2c0.1,0,0.2,0.1,0.2,0.2C346.8,211.4,346.8,211.5,346.7,211.5z M347.3,211.5c-0.1,0-0.2-0.1-0.2-0.2
							c0-0.1,0.1-0.2,0.2-0.2c0.1,0,0.2,0.1,0.2,0.2C347.5,211.4,347.4,211.5,347.3,211.5z M348,211.5c-0.1,0-0.2-0.1-0.2-0.2
							c0-0.1,0.1-0.2,0.2-0.2c0.1,0,0.2,0.1,0.2,0.2C348.2,211.4,348.1,211.5,348,211.5z M348.7,211.5c-0.1,0-0.2-0.1-0.2-0.2
							c0-0.1,0.1-0.2,0.2-0.2c0.1,0,0.2,0.1,0.2,0.2C348.9,211.4,348.8,211.5,348.7,211.5z M349.4,211.5c-0.1,0-0.2-0.1-0.2-0.2
							c0-0.1,0.1-0.2,0.2-0.2c0.1,0,0.2,0.1,0.2,0.2C349.5,211.4,349.5,211.5,349.4,211.5z M349.7,210.9h-0.6v-0.3h0.6V210.9z
							 M350,211.5c-0.1,0-0.2-0.1-0.2-0.2c0-0.1,0.1-0.2,0.2-0.2c0.1,0,0.2,0.1,0.2,0.2C350.2,211.4,350.1,211.5,350,211.5z
							 M350.5,210.9h-0.6v-0.3h0.6V210.9z M350.7,211.5c-0.1,0-0.2-0.1-0.2-0.2c0-0.1,0.1-0.2,0.2-0.2c0.1,0,0.2,0.1,0.2,0.2
							C350.9,211.4,350.8,211.5,350.7,211.5z"/>
						<path class="st96" d="M350.5,212.3h-5.6c-0.3,0-0.6,0.3-0.6,0.6v0.5c0,0.4,0.3,0.6,0.6,0.6h5.6c0.3,0,0.6-0.3,0.6-0.6v-0.5
							C351.1,212.6,350.8,212.3,350.5,212.3z M344.9,212.7h3.6v0.2h-3.6V212.7z M345.3,213.6c-0.1,0-0.2-0.1-0.2-0.2
							c0-0.1,0.1-0.2,0.2-0.2c0.1,0,0.2,0.1,0.2,0.2C345.5,213.5,345.4,213.6,345.3,213.6z M346,213.6c-0.1,0-0.2-0.1-0.2-0.2
							c0-0.1,0.1-0.2,0.2-0.2c0.1,0,0.2,0.1,0.2,0.2C346.2,213.5,346.1,213.6,346,213.6z M346.7,213.6c-0.1,0-0.2-0.1-0.2-0.2
							c0-0.1,0.1-0.2,0.2-0.2c0.1,0,0.2,0.1,0.2,0.2C346.8,213.5,346.8,213.6,346.7,213.6z M347.3,213.6c-0.1,0-0.2-0.1-0.2-0.2
							c0-0.1,0.1-0.2,0.2-0.2c0.1,0,0.2,0.1,0.2,0.2C347.5,213.5,347.4,213.6,347.3,213.6z M348,213.6c-0.1,0-0.2-0.1-0.2-0.2
							c0-0.1,0.1-0.2,0.2-0.2c0.1,0,0.2,0.1,0.2,0.2C348.2,213.5,348.1,213.6,348,213.6z M348.7,213.6c-0.1,0-0.2-0.1-0.2-0.2
							c0-0.1,0.1-0.2,0.2-0.2c0.1,0,0.2,0.1,0.2,0.2C348.9,213.5,348.8,213.6,348.7,213.6z M349.4,213.6c-0.1,0-0.2-0.1-0.2-0.2
							c0-0.1,0.1-0.2,0.2-0.2c0.1,0,0.2,0.1,0.2,0.2C349.5,213.5,349.5,213.6,349.4,213.6z M349.7,213h-0.6v-0.3h0.6V213z
							 M350,213.6c-0.1,0-0.2-0.1-0.2-0.2c0-0.1,0.1-0.2,0.2-0.2c0.1,0,0.2,0.1,0.2,0.2C350.2,213.5,350.1,213.6,350,213.6z
							 M350.5,213h-0.6v-0.3h0.6V213z M350.7,213.6c-0.1,0-0.2-0.1-0.2-0.2c0-0.1,0.1-0.2,0.2-0.2c0.1,0,0.2,0.1,0.2,0.2
							C350.9,213.5,350.8,213.6,350.7,213.6z"/>
						<path class="st96" d="M350.5,214.4h-5.6c-0.3,0-0.6,0.3-0.6,0.6v0.5c0,0.4,0.3,0.6,0.6,0.6h5.6c0.3,0,0.6-0.3,0.6-0.6V215
							C351.1,214.7,350.8,214.4,350.5,214.4z M344.9,214.8h3.6v0.2h-3.6V214.8z M345.3,215.7c-0.1,0-0.2-0.1-0.2-0.2
							c0-0.1,0.1-0.2,0.2-0.2c0.1,0,0.2,0.1,0.2,0.2C345.5,215.6,345.4,215.7,345.3,215.7z M346,215.7c-0.1,0-0.2-0.1-0.2-0.2
							c0-0.1,0.1-0.2,0.2-0.2c0.1,0,0.2,0.1,0.2,0.2C346.2,215.6,346.1,215.7,346,215.7z M346.7,215.7c-0.1,0-0.2-0.1-0.2-0.2
							c0-0.1,0.1-0.2,0.2-0.2c0.1,0,0.2,0.1,0.2,0.2C346.8,215.6,346.8,215.7,346.7,215.7z M347.3,215.7c-0.1,0-0.2-0.1-0.2-0.2
							c0-0.1,0.1-0.2,0.2-0.2c0.1,0,0.2,0.1,0.2,0.2C347.5,215.6,347.4,215.7,347.3,215.7z M348,215.7c-0.1,0-0.2-0.1-0.2-0.2
							c0-0.1,0.1-0.2,0.2-0.2c0.1,0,0.2,0.1,0.2,0.2C348.2,215.6,348.1,215.7,348,215.7z M348.7,215.7c-0.1,0-0.2-0.1-0.2-0.2
							c0-0.1,0.1-0.2,0.2-0.2c0.1,0,0.2,0.1,0.2,0.2C348.9,215.6,348.8,215.7,348.7,215.7z M349.4,215.7c-0.1,0-0.2-0.1-0.2-0.2
							c0-0.1,0.1-0.2,0.2-0.2c0.1,0,0.2,0.1,0.2,0.2C349.5,215.6,349.5,215.7,349.4,215.7z M349.7,215.1h-0.6v-0.3h0.6V215.1z
							 M350,215.7c-0.1,0-0.2-0.1-0.2-0.2c0-0.1,0.1-0.2,0.2-0.2c0.1,0,0.2,0.1,0.2,0.2C350.2,215.6,350.1,215.7,350,215.7z
							 M350.5,215.1h-0.6v-0.3h0.6V215.1z M350.7,215.7c-0.1,0-0.2-0.1-0.2-0.2c0-0.1,0.1-0.2,0.2-0.2c0.1,0,0.2,0.1,0.2,0.2
							C350.9,215.6,350.8,215.7,350.7,215.7z"/>
						<path class="st96" d="M350.5,216.5h-5.6c-0.3,0-0.6,0.3-0.6,0.6v0.5c0,0.4,0.3,0.6,0.6,0.6h5.6c0.3,0,0.6-0.3,0.6-0.6v-0.5
							C351.1,216.8,350.8,216.5,350.5,216.5z M344.9,216.9h3.6v0.2h-3.6V216.9z M345.3,217.8c-0.1,0-0.2-0.1-0.2-0.2
							c0-0.1,0.1-0.2,0.2-0.2c0.1,0,0.2,0.1,0.2,0.2C345.5,217.7,345.4,217.8,345.3,217.8z M346,217.8c-0.1,0-0.2-0.1-0.2-0.2
							c0-0.1,0.1-0.2,0.2-0.2c0.1,0,0.2,0.1,0.2,0.2C346.2,217.7,346.1,217.8,346,217.8z M346.7,217.8c-0.1,0-0.2-0.1-0.2-0.2
							c0-0.1,0.1-0.2,0.2-0.2c0.1,0,0.2,0.1,0.2,0.2C346.8,217.7,346.8,217.8,346.7,217.8z M347.3,217.8c-0.1,0-0.2-0.1-0.2-0.2
							c0-0.1,0.1-0.2,0.2-0.2c0.1,0,0.2,0.1,0.2,0.2C347.5,217.7,347.4,217.8,347.3,217.8z M348,217.8c-0.1,0-0.2-0.1-0.2-0.2
							c0-0.1,0.1-0.2,0.2-0.2c0.1,0,0.2,0.1,0.2,0.2C348.2,217.7,348.1,217.8,348,217.8z M348.7,217.8c-0.1,0-0.2-0.1-0.2-0.2
							c0-0.1,0.1-0.2,0.2-0.2c0.1,0,0.2,0.1,0.2,0.2C348.9,217.7,348.8,217.8,348.7,217.8z M349.4,217.8c-0.1,0-0.2-0.1-0.2-0.2
							c0-0.1,0.1-0.2,0.2-0.2c0.1,0,0.2,0.1,0.2,0.2C349.5,217.7,349.5,217.8,349.4,217.8z M349.7,217.2h-0.6v-0.3h0.6V217.2z
							 M350,217.8c-0.1,0-0.2-0.1-0.2-0.2c0-0.1,0.1-0.2,0.2-0.2c0.1,0,0.2,0.1,0.2,0.2C350.2,217.7,350.1,217.8,350,217.8z
							 M350.5,217.2h-0.6v-0.3h0.6V217.2z M350.7,217.8c-0.1,0-0.2-0.1-0.2-0.2c0-0.1,0.1-0.2,0.2-0.2c0.1,0,0.2,0.1,0.2,0.2
							C350.9,217.7,350.8,217.8,350.7,217.8z"/>
						<path class="st96" d="M350.5,218.6h-5.6c-0.3,0-0.6,0.3-0.6,0.6v0.5c0,0.4,0.3,0.6,0.6,0.6h5.6c0.3,0,0.6-0.3,0.6-0.6v-0.5
							C351.1,218.9,350.8,218.6,350.5,218.6z M344.9,219h3.6v0.2h-3.6V219z M345.3,219.9c-0.1,0-0.2-0.1-0.2-0.2
							c0-0.1,0.1-0.2,0.2-0.2c0.1,0,0.2,0.1,0.2,0.2C345.5,219.8,345.4,219.9,345.3,219.9z M346,219.9c-0.1,0-0.2-0.1-0.2-0.2
							c0-0.1,0.1-0.2,0.2-0.2c0.1,0,0.2,0.1,0.2,0.2C346.2,219.8,346.1,219.9,346,219.9z M346.7,219.9c-0.1,0-0.2-0.1-0.2-0.2
							c0-0.1,0.1-0.2,0.2-0.2c0.1,0,0.2,0.1,0.2,0.2C346.8,219.8,346.8,219.9,346.7,219.9z M347.3,219.9c-0.1,0-0.2-0.1-0.2-0.2
							c0-0.1,0.1-0.2,0.2-0.2c0.1,0,0.2,0.1,0.2,0.2C347.5,219.8,347.4,219.9,347.3,219.9z M348,219.9c-0.1,0-0.2-0.1-0.2-0.2
							c0-0.1,0.1-0.2,0.2-0.2c0.1,0,0.2,0.1,0.2,0.2C348.2,219.8,348.1,219.9,348,219.9z M348.7,219.9c-0.1,0-0.2-0.1-0.2-0.2
							c0-0.1,0.1-0.2,0.2-0.2c0.1,0,0.2,0.1,0.2,0.2C348.9,219.8,348.8,219.9,348.7,219.9z M349.4,219.9c-0.1,0-0.2-0.1-0.2-0.2
							c0-0.1,0.1-0.2,0.2-0.2c0.1,0,0.2,0.1,0.2,0.2C349.5,219.8,349.5,219.9,349.4,219.9z M349.7,219.3h-0.6V219h0.6V219.3z
							 M350,219.9c-0.1,0-0.2-0.1-0.2-0.2c0-0.1,0.1-0.2,0.2-0.2c0.1,0,0.2,0.1,0.2,0.2C350.2,219.8,350.1,219.9,350,219.9z
							 M350.5,219.3h-0.6V219h0.6V219.3z M350.7,219.9c-0.1,0-0.2-0.1-0.2-0.2c0-0.1,0.1-0.2,0.2-0.2c0.1,0,0.2,0.1,0.2,0.2
							C350.9,219.8,350.8,219.9,350.7,219.9z"/>
					</g>
					<g>
						<path class="st96" d="M363.8,210.2h-5.6c-0.3,0-0.6,0.3-0.6,0.6v0.5c0,0.4,0.3,0.6,0.6,0.6h5.6c0.3,0,0.6-0.3,0.6-0.6v-0.5
							C364.4,210.5,364.2,210.2,363.8,210.2z M358.3,210.6h3.6v0.2h-3.6V210.6z M358.6,211.5c-0.1,0-0.2-0.1-0.2-0.2
							c0-0.1,0.1-0.2,0.2-0.2c0.1,0,0.2,0.1,0.2,0.2C358.8,211.4,358.7,211.5,358.6,211.5z M359.3,211.5c-0.1,0-0.2-0.1-0.2-0.2
							c0-0.1,0.1-0.2,0.2-0.2c0.1,0,0.2,0.1,0.2,0.2C359.5,211.4,359.4,211.5,359.3,211.5z M360,211.5c-0.1,0-0.2-0.1-0.2-0.2
							c0-0.1,0.1-0.2,0.2-0.2c0.1,0,0.2,0.1,0.2,0.2C360.2,211.4,360.1,211.5,360,211.5z M360.7,211.5c-0.1,0-0.2-0.1-0.2-0.2
							c0-0.1,0.1-0.2,0.2-0.2c0.1,0,0.2,0.1,0.2,0.2C360.8,211.4,360.8,211.5,360.7,211.5z M361.3,211.5c-0.1,0-0.2-0.1-0.2-0.2
							c0-0.1,0.1-0.2,0.2-0.2c0.1,0,0.2,0.1,0.2,0.2C361.5,211.4,361.4,211.5,361.3,211.5z M362,211.5c-0.1,0-0.2-0.1-0.2-0.2
							c0-0.1,0.1-0.2,0.2-0.2c0.1,0,0.2,0.1,0.2,0.2C362.2,211.4,362.1,211.5,362,211.5z M362.7,211.5c-0.1,0-0.2-0.1-0.2-0.2
							c0-0.1,0.1-0.2,0.2-0.2c0.1,0,0.2,0.1,0.2,0.2C362.9,211.4,362.8,211.5,362.7,211.5z M363,210.9h-0.6v-0.3h0.6V210.9z
							 M363.4,211.5c-0.1,0-0.2-0.1-0.2-0.2c0-0.1,0.1-0.2,0.2-0.2c0.1,0,0.2,0.1,0.2,0.2C363.6,211.4,363.5,211.5,363.4,211.5z
							 M363.8,210.9h-0.6v-0.3h0.6V210.9z M364,211.5c-0.1,0-0.2-0.1-0.2-0.2c0-0.1,0.1-0.2,0.2-0.2c0.1,0,0.2,0.1,0.2,0.2
							C364.2,211.4,364.2,211.5,364,211.5z"/>
						<path class="st96" d="M363.8,212.3h-5.6c-0.3,0-0.6,0.3-0.6,0.6v0.5c0,0.4,0.3,0.6,0.6,0.6h5.6c0.3,0,0.6-0.3,0.6-0.6v-0.5
							C364.4,212.6,364.2,212.3,363.8,212.3z M358.3,212.7h3.6v0.2h-3.6V212.7z M358.6,213.6c-0.1,0-0.2-0.1-0.2-0.2
							c0-0.1,0.1-0.2,0.2-0.2c0.1,0,0.2,0.1,0.2,0.2C358.8,213.5,358.7,213.6,358.6,213.6z M359.3,213.6c-0.1,0-0.2-0.1-0.2-0.2
							c0-0.1,0.1-0.2,0.2-0.2c0.1,0,0.2,0.1,0.2,0.2C359.5,213.5,359.4,213.6,359.3,213.6z M360,213.6c-0.1,0-0.2-0.1-0.2-0.2
							c0-0.1,0.1-0.2,0.2-0.2c0.1,0,0.2,0.1,0.2,0.2C360.2,213.5,360.1,213.6,360,213.6z M360.7,213.6c-0.1,0-0.2-0.1-0.2-0.2
							c0-0.1,0.1-0.2,0.2-0.2c0.1,0,0.2,0.1,0.2,0.2C360.8,213.5,360.8,213.6,360.7,213.6z M361.3,213.6c-0.1,0-0.2-0.1-0.2-0.2
							c0-0.1,0.1-0.2,0.2-0.2c0.1,0,0.2,0.1,0.2,0.2C361.5,213.5,361.4,213.6,361.3,213.6z M362,213.6c-0.1,0-0.2-0.1-0.2-0.2
							c0-0.1,0.1-0.2,0.2-0.2c0.1,0,0.2,0.1,0.2,0.2C362.2,213.5,362.1,213.6,362,213.6z M362.7,213.6c-0.1,0-0.2-0.1-0.2-0.2
							c0-0.1,0.1-0.2,0.2-0.2c0.1,0,0.2,0.1,0.2,0.2C362.9,213.5,362.8,213.6,362.7,213.6z M363,213h-0.6v-0.3h0.6V213z
							 M363.4,213.6c-0.1,0-0.2-0.1-0.2-0.2c0-0.1,0.1-0.2,0.2-0.2c0.1,0,0.2,0.1,0.2,0.2C363.6,213.5,363.5,213.6,363.4,213.6z
							 M363.8,213h-0.6v-0.3h0.6V213z M364,213.6c-0.1,0-0.2-0.1-0.2-0.2c0-0.1,0.1-0.2,0.2-0.2c0.1,0,0.2,0.1,0.2,0.2
							C364.2,213.5,364.2,213.6,364,213.6z"/>
						<path class="st96" d="M363.8,214.4h-5.6c-0.3,0-0.6,0.3-0.6,0.6v0.5c0,0.4,0.3,0.6,0.6,0.6h5.6c0.3,0,0.6-0.3,0.6-0.6V215
							C364.4,214.7,364.2,214.4,363.8,214.4z M358.3,214.8h3.6v0.2h-3.6V214.8z M358.6,215.7c-0.1,0-0.2-0.1-0.2-0.2
							c0-0.1,0.1-0.2,0.2-0.2c0.1,0,0.2,0.1,0.2,0.2C358.8,215.6,358.7,215.7,358.6,215.7z M359.3,215.7c-0.1,0-0.2-0.1-0.2-0.2
							c0-0.1,0.1-0.2,0.2-0.2c0.1,0,0.2,0.1,0.2,0.2C359.5,215.6,359.4,215.7,359.3,215.7z M360,215.7c-0.1,0-0.2-0.1-0.2-0.2
							c0-0.1,0.1-0.2,0.2-0.2c0.1,0,0.2,0.1,0.2,0.2C360.2,215.6,360.1,215.7,360,215.7z M360.7,215.7c-0.1,0-0.2-0.1-0.2-0.2
							c0-0.1,0.1-0.2,0.2-0.2c0.1,0,0.2,0.1,0.2,0.2C360.8,215.6,360.8,215.7,360.7,215.7z M361.3,215.7c-0.1,0-0.2-0.1-0.2-0.2
							c0-0.1,0.1-0.2,0.2-0.2c0.1,0,0.2,0.1,0.2,0.2C361.5,215.6,361.4,215.7,361.3,215.7z M362,215.7c-0.1,0-0.2-0.1-0.2-0.2
							c0-0.1,0.1-0.2,0.2-0.2c0.1,0,0.2,0.1,0.2,0.2C362.2,215.6,362.1,215.7,362,215.7z M362.7,215.7c-0.1,0-0.2-0.1-0.2-0.2
							c0-0.1,0.1-0.2,0.2-0.2c0.1,0,0.2,0.1,0.2,0.2C362.9,215.6,362.8,215.7,362.7,215.7z M363,215.1h-0.6v-0.3h0.6V215.1z
							 M363.4,215.7c-0.1,0-0.2-0.1-0.2-0.2c0-0.1,0.1-0.2,0.2-0.2c0.1,0,0.2,0.1,0.2,0.2C363.6,215.6,363.5,215.7,363.4,215.7z
							 M363.8,215.1h-0.6v-0.3h0.6V215.1z M364,215.7c-0.1,0-0.2-0.1-0.2-0.2c0-0.1,0.1-0.2,0.2-0.2c0.1,0,0.2,0.1,0.2,0.2
							C364.2,215.6,364.2,215.7,364,215.7z"/>
						<path class="st96" d="M363.8,216.5h-5.6c-0.3,0-0.6,0.3-0.6,0.6v0.5c0,0.4,0.3,0.6,0.6,0.6h5.6c0.3,0,0.6-0.3,0.6-0.6v-0.5
							C364.4,216.8,364.2,216.5,363.8,216.5z M358.3,216.9h3.6v0.2h-3.6V216.9z M358.6,217.8c-0.1,0-0.2-0.1-0.2-0.2
							c0-0.1,0.1-0.2,0.2-0.2c0.1,0,0.2,0.1,0.2,0.2C358.8,217.7,358.7,217.8,358.6,217.8z M359.3,217.8c-0.1,0-0.2-0.1-0.2-0.2
							c0-0.1,0.1-0.2,0.2-0.2c0.1,0,0.2,0.1,0.2,0.2C359.5,217.7,359.4,217.8,359.3,217.8z M360,217.8c-0.1,0-0.2-0.1-0.2-0.2
							c0-0.1,0.1-0.2,0.2-0.2c0.1,0,0.2,0.1,0.2,0.2C360.2,217.7,360.1,217.8,360,217.8z M360.7,217.8c-0.1,0-0.2-0.1-0.2-0.2
							c0-0.1,0.1-0.2,0.2-0.2c0.1,0,0.2,0.1,0.2,0.2C360.8,217.7,360.8,217.8,360.7,217.8z M361.3,217.8c-0.1,0-0.2-0.1-0.2-0.2
							c0-0.1,0.1-0.2,0.2-0.2c0.1,0,0.2,0.1,0.2,0.2C361.5,217.7,361.4,217.8,361.3,217.8z M362,217.8c-0.1,0-0.2-0.1-0.2-0.2
							c0-0.1,0.1-0.2,0.2-0.2c0.1,0,0.2,0.1,0.2,0.2C362.2,217.7,362.1,217.8,362,217.8z M362.7,217.8c-0.1,0-0.2-0.1-0.2-0.2
							c0-0.1,0.1-0.2,0.2-0.2c0.1,0,0.2,0.1,0.2,0.2C362.9,217.7,362.8,217.8,362.7,217.8z M363,217.2h-0.6v-0.3h0.6V217.2z
							 M363.4,217.8c-0.1,0-0.2-0.1-0.2-0.2c0-0.1,0.1-0.2,0.2-0.2c0.1,0,0.2,0.1,0.2,0.2C363.6,217.7,363.5,217.8,363.4,217.8z
							 M363.8,217.2h-0.6v-0.3h0.6V217.2z M364,217.8c-0.1,0-0.2-0.1-0.2-0.2c0-0.1,0.1-0.2,0.2-0.2c0.1,0,0.2,0.1,0.2,0.2
							C364.2,217.7,364.2,217.8,364,217.8z"/>
						<path class="st96" d="M363.8,218.6h-5.6c-0.3,0-0.6,0.3-0.6,0.6v0.5c0,0.4,0.3,0.6,0.6,0.6h5.6c0.3,0,0.6-0.3,0.6-0.6v-0.5
							C364.4,218.9,364.2,218.6,363.8,218.6z M358.3,219h3.6v0.2h-3.6V219z M358.6,219.9c-0.1,0-0.2-0.1-0.2-0.2
							c0-0.1,0.1-0.2,0.2-0.2c0.1,0,0.2,0.1,0.2,0.2C358.8,219.8,358.7,219.9,358.6,219.9z M359.3,219.9c-0.1,0-0.2-0.1-0.2-0.2
							c0-0.1,0.1-0.2,0.2-0.2c0.1,0,0.2,0.1,0.2,0.2C359.5,219.8,359.4,219.9,359.3,219.9z M360,219.9c-0.1,0-0.2-0.1-0.2-0.2
							c0-0.1,0.1-0.2,0.2-0.2c0.1,0,0.2,0.1,0.2,0.2C360.2,219.8,360.1,219.9,360,219.9z M360.7,219.9c-0.1,0-0.2-0.1-0.2-0.2
							c0-0.1,0.1-0.2,0.2-0.2c0.1,0,0.2,0.1,0.2,0.2C360.8,219.8,360.8,219.9,360.7,219.9z M361.3,219.9c-0.1,0-0.2-0.1-0.2-0.2
							c0-0.1,0.1-0.2,0.2-0.2c0.1,0,0.2,0.1,0.2,0.2C361.5,219.8,361.4,219.9,361.3,219.9z M362,219.9c-0.1,0-0.2-0.1-0.2-0.2
							c0-0.1,0.1-0.2,0.2-0.2c0.1,0,0.2,0.1,0.2,0.2C362.2,219.8,362.1,219.9,362,219.9z M362.7,219.9c-0.1,0-0.2-0.1-0.2-0.2
							c0-0.1,0.1-0.2,0.2-0.2c0.1,0,0.2,0.1,0.2,0.2C362.9,219.8,362.8,219.9,362.7,219.9z M363,219.3h-0.6V219h0.6V219.3z
							 M363.4,219.9c-0.1,0-0.2-0.1-0.2-0.2c0-0.1,0.1-0.2,0.2-0.2c0.1,0,0.2,0.1,0.2,0.2C363.6,219.8,363.5,219.9,363.4,219.9z
							 M363.8,219.3h-0.6V219h0.6V219.3z M364,219.9c-0.1,0-0.2-0.1-0.2-0.2c0-0.1,0.1-0.2,0.2-0.2c0.1,0,0.2,0.1,0.2,0.2
							C364.2,219.8,364.2,219.9,364,219.9z"/>
					</g>
					<g>
						<g>
							<path class="st96" d="M354.4,205c0,0.1,0,10.3,0,10.3S354.4,204.8,354.4,205z"/>
							<path class="st96" d="M354.4,215.7c-0.2,0-0.4-0.2-0.4-0.4c0-10.3,0-10.4,0-10.4c0.1-0.2,0.3-0.3,0.5-0.3
								c0.2,0.1,0.3,0.3,0.3,0.5c0,0.4,0,6.3,0,10.3C354.8,215.5,354.6,215.7,354.4,215.7L354.4,215.7z"/>
						</g>
						<g>
							<path class="st96" d="M356.8,215.7H352c-0.2,0-0.4-0.2-0.4-0.4c0-0.2,0.2-0.4,0.4-0.4h4.8c0.2,0,0.4,0.2,0.4,0.4
								C357.2,215.5,357,215.7,356.8,215.7z"/>
						</g>
					</g>
				</g>
			</g>
			<g>
				<g>
					<rect x="320.2" y="260.9" class="st96" width="4.8" height="0.9"/>
				</g>
				<g>
					<polygon class="st96" points="317.8,268.9 314.7,265.9 315.3,265.3 318.4,268.3 					"/>
				</g>
				<g>
					<polygon class="st96" points="330.1,269.1 329.5,268.5 332.7,265.3 333.4,265.9 					"/>
				</g>
				<g>
					<g>
						<g>
							<path class="st96" d="M336.7,262.1h-10.8v-6.6h10.8V262.1z M326.5,261.6h9.7v-5.5h-9.7V261.6z"/>
						</g>
						<g>
							<path class="st96" d="M338,264.9l-13.1-0.1l1.2-3.3h10.6L338,264.9z M325.6,264.3l11.5,0.1l-0.9-2.3h-9.8L325.6,264.3z"/>
						</g>
						<polygon class="st96" points="337,263.7 325.7,263.6 326.2,261.8 336.4,261.8 						"/>
						<rect x="330.2" y="263.5" class="st96" width="2.1" height="1"/>
					</g>
					<g>
						<g>
							<path class="st96" d="M319.4,262.1h-10.8v-6.6h10.8V262.1z M309.2,261.6h9.7v-5.5h-9.7V261.6z"/>
						</g>
						<g>
							<path class="st96" d="M320.7,264.9l-13.1-0.1l1.2-3.3h10.6L320.7,264.9z M308.3,264.3l11.5,0.1l-0.9-2.3h-9.8L308.3,264.3z"
								/>
						</g>
						<polygon class="st96" points="319.7,263.7 308.4,263.6 308.9,261.8 319.1,261.8 						"/>
						<rect x="312.9" y="263.5" class="st96" width="2.1" height="1"/>
					</g>
					<g>
						<g>
							<path class="st96" d="M329.4,276.2h-10.8v-6.6h10.8V276.2z M319.1,275.6h9.7v-5.5h-9.7V275.6z"/>
						</g>
						<g>
							<path class="st96" d="M330.6,279l-13.1-0.1l1.2-3.3h10.6L330.6,279z M318.3,278.4l11.5,0.1l-0.9-2.3h-9.8L318.3,278.4z"/>
						</g>
						<polygon class="st96" points="329.6,277.7 318.3,277.7 318.9,275.9 329.1,275.9 						"/>
						<rect x="322.9" y="277.5" class="st96" width="2.1" height="1.1"/>
					</g>
				</g>
			</g>
		</g>
		<g>
			<path class="st96" d="M499,194.6v45.6h-5.9v-45.6H499z"/>
			<path class="st96" d="M548.2,216.9c0,15.7-9.5,24-21.2,24c-12,0-20.5-9.3-20.5-23.1c0-14.5,9-24,21.2-24
				C540.2,193.8,548.2,203.4,548.2,216.9z M512.8,217.6c0,9.7,5.3,18.5,14.6,18.5c9.3,0,14.6-8.6,14.6-19c0-9.1-4.7-18.5-14.6-18.5
				C517.7,198.6,512.8,207.6,512.8,217.6z"/>
			<path class="st96" d="M562.9,199.6H549v-5h33.8v5h-13.9v40.6h-6V199.6z"/>
		</g>
	</g>
</g>
</svg>
