<?xml version="1.0" encoding="utf-8"?>
<!-- Generator: Adobe Illustrator 25.2.3, SVG Export Plug-In . SVG Version: 6.00 Build 0)  -->
<svg version="1.1" id="Ñëîé_1" xmlns="http://www.w3.org/2000/svg" xmlns:xlink="http://www.w3.org/1999/xlink" x="0px" y="0px"
	 viewBox="0 0 951 425" style="enable-background:new 0 0 951 425;" xml:space="preserve">
<style type="text/css">
	.st0{fill:url(#SVGID_1_);}
	.st1{opacity:0.73;fill:url(#SVGID_2_);}
	.st2{opacity:0.36;fill:url(#SVGID_3_);}
	.st3{fill:url(#SVGID_4_);}
	.st4{fill:url(#SVGID_5_);}
	.st5{fill:url(#SVGID_6_);}
	.st6{fill:#BEBBF8;}
	.st7{fill:url(#SVGID_7_);}
	.st8{fill:#FFFFFF;}
	.st9{fill:url(#SVGID_8_);}
	.st10{fill:url(#SVGID_9_);}
	.st11{fill:url(#SVGID_10_);}
	.st12{opacity:0.36;fill:url(#SVGID_11_);}
	.st13{fill:url(#SVGID_12_);}
	.st14{fill:url(#SVGID_13_);}
	.st15{fill:url(#SVGID_14_);}
	.st16{opacity:0.35;}
	.st17{fill:#D8E8EF;}
	.st18{fill:url(#SVGID_15_);}
	.st19{opacity:0.39;fill:url(#SVGID_16_);}
	.st20{opacity:0.41;fill:url(#SVGID_17_);}
	.st21{opacity:0.6;fill:url(#SVGID_18_);}
	.st22{opacity:0.6;fill:url(#SVGID_19_);}
	.st23{opacity:0.6;fill:url(#SVGID_20_);}
	.st24{opacity:0.6;fill:url(#SVGID_21_);}
	.st25{opacity:0.6;fill:url(#SVGID_22_);}
	.st26{opacity:0.36;fill:url(#SVGID_23_);}
	.st27{opacity:0.41;fill:url(#SVGID_24_);}
	.st28{opacity:0.36;fill:url(#SVGID_25_);}
	.st29{opacity:0.36;fill:url(#SVGID_26_);}
	.st30{opacity:0.36;fill:url(#SVGID_27_);}
	.st31{opacity:0.36;fill:url(#SVGID_28_);}
	.st32{opacity:0.31;fill:url(#SVGID_29_);}
	.st33{fill:url(#SVGID_30_);}
	.st34{fill:url(#SVGID_31_);}
	.st35{opacity:0.31;fill:url(#SVGID_32_);}
	.st36{fill:url(#SVGID_33_);}
	.st37{fill:url(#SVGID_34_);}
	.st38{fill:url(#SVGID_35_);}
	.st39{opacity:0.81;}
	.st40{fill:#DCEDFF;}
	.st41{fill:url(#SVGID_36_);}
	.st42{fill:url(#SVGID_37_);}
	.st43{fill:url(#SVGID_38_);}
	.st44{opacity:0.63;fill:url(#SVGID_39_);}
	.st45{fill:url(#SVGID_40_);}
	.st46{opacity:0.63;fill:url(#SVGID_41_);}
	.st47{fill:url(#SVGID_42_);}
	.st48{opacity:0.63;fill:url(#SVGID_43_);}
	.st49{fill:url(#SVGID_44_);}
	.st50{opacity:0.63;fill:url(#SVGID_45_);}
	.st51{opacity:0.63;fill:url(#SVGID_46_);}
	.st52{opacity:0.38;fill:#DCEDFF;}
	.st53{fill:url(#SVGID_47_);}
	.st54{fill:#D2E0FF;}
	.st55{fill:#B7C9EA;}
	.st56{fill:url(#SVGID_48_);}
	.st57{fill:url(#SVGID_49_);}
	.st58{opacity:0.38;fill:url(#SVGID_50_);}
	.st59{fill:#D8D5FF;}
	.st60{fill:#FF8C00;}
	.st61{fill:#C8CADC;}
	.st62{fill:#FEFEFD;}
	.st63{fill:#888888;}
	.st64{fill:#8676A7;}
	.st65{fill:#FF88AE;}
	.st66{fill:#5CBEFF;}
	.st67{fill:#F8CE82;}
	.st68{fill:#BCBCBC;}
	.st69{opacity:0.73;fill:url(#SVGID_51_);}
	.st70{opacity:0.36;fill:url(#SVGID_52_);}
	.st71{fill:url(#SVGID_53_);}
	.st72{fill:url(#SVGID_54_);}
	.st73{fill:url(#SVGID_55_);}
	.st74{fill:url(#SVGID_56_);}
	.st75{fill:url(#SVGID_57_);}
	.st76{opacity:0.39;fill:#FFFFFF;}
	.st77{opacity:0.41;fill:#FFFFFF;}
	.st78{opacity:0.6;fill:url(#SVGID_58_);}
	.st79{opacity:0.6;fill:url(#SVGID_59_);}
	.st80{opacity:0.6;fill:url(#SVGID_60_);}
	.st81{opacity:0.6;fill:url(#SVGID_61_);}
	.st82{opacity:0.6;fill:url(#SVGID_62_);}
	.st83{opacity:0.31;fill:url(#SVGID_63_);}
	.st84{fill:url(#SVGID_64_);}
	.st85{fill:url(#SVGID_65_);}
	.st86{opacity:0.31;fill:url(#SVGID_66_);}
	.st87{fill:url(#SVGID_67_);}
	.st88{fill:url(#SVGID_68_);}
	.st89{fill:url(#SVGID_69_);}
	.st90{fill:#A7A9AC;}
	.st91{fill:#F15A5A;}
	.st92{fill:#F3947D;}
	.st93{fill:#F0795C;}
	.st94{fill:#F9C9BE;}
	.st95{fill:#B45B45;}
	.st96{fill:#F6AF9D;}
	.st97{fill:#231F20;}
	.st98{fill:#B55435;}
	.st99{fill:#F17046;}
	.st100{fill:#793823;}
	.st101{fill:#303E4A;}
	.st102{fill:#405262;}
	.st103{fill:#202931;}
	.st104{fill:#ECF0F1;}
	.st105{fill:#FBFCFC;}
	.st106{fill:#B1B4B5;}
	.st107{fill:#E6E7E8;}
	.st108{fill:#F7DC6F;}
	.st109{fill:#F1C40F;}
	.st110{fill:#F48D6B;}
	.st111{fill:#2E86A4;}
	.st112{fill:#F6A489;}
	.st113{fill:#1F5A6E;}
	.st114{fill:#4E767E;}
	.st115{fill:#8BD1E9;}
	.st116{fill:#86B1B9;}
	.st117{fill:#64C2E2;}
	.st118{fill:#F1F2F2;}
	.st119{clip-path:url(#SVGID_71_);fill:#D1D3D4;}
	.st120{fill:#17212B;}
	.st121{fill:#2D4255;}
	.st122{fill:#6D6E71;}
	.st123{fill:#E74C3C;}
	.st124{fill:#F1582C;}
	.st125{fill:#298299;}
	.st126{fill:#36ADCC;}
	.st127{fill:#B76A50;}
	.st128{fill:#BCBEC0;}
	.st129{clip-path:url(#SVGID_73_);}
	.st130{fill:url(#SVGID_74_);}
	.st131{fill:url(#SVGID_75_);}
	.st132{fill:#3C3019;}
	.st133{fill:#EFC164;}
	.st134{clip-path:url(#SVGID_77_);}
	.st135{fill:url(#SVGID_78_);}
	.st136{fill:url(#SVGID_79_);}
	.st137{fill:url(#SVGID_80_);}
	.st138{fill:#69AFC4;}
	.st139{fill:#337488;}
	.st140{fill:#449BB5;}
	.st141{fill:#F9C82E;}
	.st142{fill:#F9E6C1;}
	.st143{fill:#F5DAA2;}
	.st144{fill:#B3914B;}
	.st145{clip-path:url(#SVGID_82_);}
	.st146{fill:url(#SVGID_83_);}
	.st147{fill:url(#SVGID_84_);}
	.st148{fill:url(#SVGID_85_);}
	.st149{fill:#FFD800;}
	.st150{fill:#FFF7CC;}
	.st151{fill:#32333B;}
	.st152{fill:#ADADB1;}
	.st153{clip-path:url(#SVGID_87_);}
	.st154{fill:url(#SVGID_88_);}
	.st155{fill:url(#SVGID_89_);}
	.st156{fill:#FFFCF5;}
	.st157{fill:#B4B4B4;}
	.st158{fill:#0CC6E8;}
	.st159{fill:#444444;}
	.st160{clip-path:url(#SVGID_91_);}
	.st161{fill:#F2B33D;}
	.st162{fill:#043D5D;}
	.st163{fill:#EB5055;}
	.st164{fill:#F7D18B;}
	.st165{fill:url(#SVGID_92_);}
	.st166{fill:url(#SVGID_93_);}
	.st167{fill:#C7C4BE;}
	.st168{fill:#F2EFE9;}
	.st169{fill:#939598;}
	.st170{clip-path:url(#SVGID_95_);}
	.st171{fill:#030B0F;}
	.st172{fill:#0B2C3C;}
	.st173{fill:#A33A2F;}
	.st174{fill:url(#SVGID_96_);}
	.st175{fill:#D94D3F;}
	.st176{fill:#361310;}
	.st177{fill:url(#SVGID_97_);}
	.st178{fill:url(#SVGID_98_);}
	.st179{fill:url(#SVGID_99_);}
	.st180{fill:url(#SVGID_100_);}
	.st181{fill:#FFCF01;}
	.st182{clip-path:url(#SVGID_102_);}
	.st183{fill:#FABDBB;}
	.st184{fill:#7A2D2B;}
	.st185{fill:#F35955;}
	.st186{fill:#6D2720;}
	.st187{fill:url(#SVGID_103_);}
	.st188{fill:url(#SVGID_104_);}
	.st189{fill:url(#SVGID_105_);}
	.st190{fill:#818E99;}
	.st191{fill:#A97C50;}
	.st192{fill:#CBB096;}
	.st193{fill:#D1D3D4;}
	.st194{fill:#E86F40;}
	.st195{fill:#F2F2F2;}
	.st196{fill:#353C4F;}
	.st197{opacity:0.3;fill:#FFFFFF;}
</style>
<g>
	<g>
		<ellipse class="st107" cx="491" cy="381.4" rx="239.5" ry="37.3"/>
		<path class="st107" d="M663.4,381.4c0,14.8-77.2,26.9-172.4,26.9c-95.2,0-172.4-12-172.4-26.9c0-14.8,77.2-26.9,172.4-26.9
			C586.2,354.5,663.4,366.5,663.4,381.4z"/>
		<path class="st107" d="M618.6,381.4c0,11-57.1,19.9-127.6,19.9c-70.5,0-127.6-8.9-127.6-19.9c0-11,57.1-19.9,127.6-19.9
			C561.5,361.5,618.6,370.4,618.6,381.4z"/>
	</g>
	<g>
		<polygon class="st90" points="546.2,264.3 429.1,264.3 420.4,371.8 558.1,371.8 		"/>
		<rect x="395.9" y="367.4" class="st90" width="186.5" height="22.5"/>
		<polygon class="st118" points="547.5,263 430.4,263 421.7,370.5 559.4,370.5 		"/>
		<rect x="397.2" y="366.1" class="st193" width="186.5" height="22.5"/>
		<polygon class="st107" points="553.9,327.4 547.9,263 430.8,263 424.3,342.6 		"/>
		<path class="st169" d="M726.9,274.4V47.2c0-10.8-8.6-19.6-19.2-19.6H271.6c-10.6,0-19.2,8.8-19.2,19.6v227.2c0,9.3,0,16.8,0,16.8
			l0,2.8h0.1c0.3,12.7,10.8,22.8,23.7,22.8h426.1c13.1,0,24.4-10.4,24.4-23.3h0v-2.2C726.8,291.2,726.9,283.6,726.9,274.4z"/>
		<path class="st195" d="M728.2,272.4V45.2c0-10.8-8.6-19.6-19.2-19.6H273c-10.6,0-19.2,8.8-19.2,19.6v227.2c0,9.3,0,16.8,0,16.8
			l0,2.8h0.1c0.3,12.7,10.8,22.7,23.8,22.7h426.1c13.1,0,24.4-10.4,24.4-23.2h0v-2.2C728.1,289.3,728.2,281.6,728.2,272.4z"/>
		<path class="st196" d="M717.2,53.6c0-9-7.1-16.2-15.8-16.2H280.6c-8.7,0-15.8,7.2-15.8,16.2v219.3c0,9,0,16.2,0,16.2l452.3,0.1
			c0,0,0.1-7.3,0.1-16.3V53.6z"/>
		<rect x="277.9" y="51.1" class="st110" width="428" height="224"/>
		<rect x="275.7" y="52" class="st102" width="96.3" height="224"/>
		<rect x="287.6" y="65.8" class="st8" width="53.8" height="6.8"/>
		<rect x="287.6" y="75.3" class="st8" width="36.2" height="3.7"/>
		<rect x="287.6" y="87.1" class="st8" width="14.4" height="1.5"/>
		<rect x="304.5" y="87.1" class="st8" width="4.3" height="1.5"/>
		<rect x="311" y="87.1" class="st8" width="9.2" height="1.5"/>
		<rect x="321.5" y="87.1" class="st8" width="20" height="1.5"/>
		<rect x="287.6" y="89.9" class="st8" width="18.1" height="1.5"/>
		<rect x="306.7" y="89.9" class="st8" width="10.2" height="1.5"/>
		<rect x="318.2" y="89.9" class="st8" width="23.3" height="1.5"/>
		<rect x="287.6" y="92.8" class="st8" width="9.8" height="1.5"/>
		<rect x="299.3" y="92.8" class="st8" width="13.4" height="1.5"/>
		<rect x="313.6" y="92.8" class="st8" width="15.3" height="1.5"/>
		<rect x="332.5" y="92.8" class="st8" width="9" height="1.5"/>
		<rect x="287.6" y="95.7" class="st8" width="14.4" height="1.5"/>
		<rect x="304.6" y="95.7" class="st8" width="6.4" height="1.5"/>
		<rect x="313.6" y="95.7" class="st8" width="6.6" height="1.5"/>
		<rect x="321.5" y="95.7" class="st8" width="11" height="1.5"/>
		<g>
			<rect x="319.5" y="151.3" class="st8" width="52.4" height="0.4"/>
		</g>
		<g>
			<rect x="319.5" y="165.7" class="st8" width="52.4" height="0.4"/>
		</g>
		<g>
			<rect x="319.5" y="179.7" class="st8" width="52.4" height="0.4"/>
		</g>
		<g>
			<rect x="319.5" y="193.7" class="st8" width="52.4" height="0.4"/>
		</g>
		<rect x="325" y="142.3" class="st8" width="24" height="3.3"/>
		<rect x="325" y="157.2" class="st8" width="16.3" height="3.3"/>
		<rect x="325" y="172.1" class="st8" width="16.8" height="3.3"/>
		<rect x="325" y="185.4" class="st8" width="14.4" height="3.3"/>
		<rect x="341.8" y="185.4" class="st8" width="4.2" height="3.3"/>
		<rect x="319.8" y="122.4" class="st101" width="52.2" height="13.9"/>
		<g>
			<rect x="319.5" y="122.4" class="st8" width="52.4" height="0.4"/>
		</g>
		<g>
			<rect x="319.5" y="136.5" class="st8" width="52.4" height="0.4"/>
		</g>
		<rect x="325" y="127.4" class="st8" width="20.8" height="3.3"/>
		<rect x="374.9" y="122.4" class="st8" width="50.8" height="14"/>
		<rect x="374.9" y="136.9" class="st8" width="50.8" height="14"/>
		<rect x="374.9" y="151.4" class="st101" width="50.8" height="14"/>
		<rect x="374.9" y="165.9" class="st8" width="50.8" height="14"/>
		<polygon class="st101" points="377.8,129.4 372,125.8 372,133.4 		"/>
		<rect x="382.1" y="127.9" class="st8" width="24" height="3.3"/>
		<rect x="382.1" y="142.3" class="st8" width="19.8" height="3.3"/>
		<rect x="382.1" y="156.7" class="st8" width="19.8" height="3.3"/>
		<rect x="382.1" y="171" class="st8" width="13.5" height="3.3"/>
		<rect x="428.9" y="151.3" class="st8" width="50.8" height="14"/>
		<rect x="428.9" y="165.8" class="st8" width="50.8" height="14"/>
		<rect x="428.9" y="180.3" class="st101" width="50.8" height="14"/>
		<rect x="428.9" y="194.8" class="st8" width="50.8" height="14"/>
		<rect x="436.2" y="156.8" class="st8" width="16.1" height="3.3"/>
		<rect x="436.2" y="171.2" class="st8" width="24" height="3.3"/>
		<rect x="436.2" y="185.6" class="st8" width="14.6" height="3.3"/>
		<rect x="436.2" y="199.9" class="st8" width="10.8" height="3.3"/>
		<rect x="562.3" y="71.3" class="st8" width="42.9" height="11.8"/>
		<rect x="562.3" y="83.5" class="st8" width="42.9" height="11.8"/>
		<rect x="562.3" y="95.8" class="st101" width="42.9" height="11.8"/>
		<rect x="562.3" y="108" class="st8" width="42.9" height="11.8"/>
		<rect x="568.5" y="75.9" class="st8" width="13.6" height="2.8"/>
		<rect x="568.5" y="88" class="st8" width="20.3" height="2.8"/>
		<rect x="568.5" y="100.2" class="st8" width="12.3" height="2.8"/>
		<rect x="568.5" y="112.3" class="st8" width="9.1" height="2.8"/>
		<rect x="609.3" y="95.6" class="st8" width="42.9" height="11.8"/>
		<rect x="609.3" y="107.8" class="st8" width="42.9" height="11.8"/>
		<rect x="609.3" y="120" class="st8" width="42.9" height="11.8"/>
		<rect x="609.3" y="132.3" class="st101" width="42.9" height="11.8"/>
		<rect x="615.4" y="100.2" class="st8" width="13.6" height="2.8"/>
		<rect x="615.4" y="112.3" class="st8" width="20.3" height="2.8"/>
		<rect x="615.4" y="124.4" class="st8" width="12.3" height="2.8"/>
		<rect x="615.4" y="136.6" class="st8" width="9.1" height="2.8"/>
		<polygon class="st101" points="430.7,158.7 425,155 425,162.7 		"/>
		<rect x="493.7" y="55.2" class="st102" width="20.3" height="14"/>
		<rect x="516.7" y="55.2" class="st102" width="42.9" height="14"/>
		<rect x="562.3" y="55.2" class="st101" width="42.9" height="14"/>
		<rect x="607.9" y="55.2" class="st102" width="89.4" height="14"/>
		<rect x="526.2" y="60.5" class="st8" width="24" height="3.3"/>
		<rect x="571.8" y="60.5" class="st8" width="24" height="3.3"/>
		<path class="st8" d="M508.1,60.9l-0.6,0c-0.2,0-0.4-0.2-0.4-0.4l-6.5,0c0,0.3-0.2,0.5-0.4,0.5l-0.6,0c-0.2,0-0.4-0.2-0.4-0.4
			c0-0.2,0.1-0.5,0.3-0.6l4.2-3c0.2-0.1,0.5-0.1,0.6,0l4,3c0.2,0.1,0.3,0.3,0.3,0.5C508.5,60.7,508.3,60.9,508.1,60.9z M507.1,60
			c0.1,0,0.2,0,0.3,0.1c0.1,0.1,0.1,0.2,0.1,0.3l0.6,0c0-0.1,0-0.2-0.1-0.2l-4.3-3.2l0.1,0.2l-4.2,3c0,0-0.1,0.1-0.1,0.2l0.6,0
			c0-0.3,0.2-0.5,0.4-0.5L507.1,60z M506.9,67.6h-1.7c-0.2,0-0.4-0.2-0.4-0.4v-2.5l-1.9,0v2.5c0,0.2-0.2,0.4-0.4,0.4h-1.7
			c-0.2,0-0.4-0.2-0.4-0.4l0-5.9c0-0.1,0-0.2,0.1-0.3c0.1-0.1,0.2-0.1,0.3-0.1l6.1,0c0.1,0,0.2,0,0.3,0.1c0.1,0.1,0.1,0.2,0.1,0.3
			v5.9C507.3,67.4,507.1,67.6,506.9,67.6z M502.9,64.2l1.9,0c0.2,0,0.4,0.2,0.4,0.4v2.5h1.7l0-5.9l-6.1,0l0,5.9l1.7,0v-2.5
			C502.4,64.4,502.6,64.2,502.9,64.2z"/>
		<path class="st8" d="M684.4,59.2c-0.9,0.9-0.9,2.2,0,3.1c0.7,0.7,1.8,0.8,2.6,0.4c0.2-0.1,0.3-0.2,0.5-0.4
			c0.1-0.1,0.3-0.3,0.4-0.5c0.5-0.8,0.4-1.9-0.4-2.6C686.6,58.4,685.2,58.4,684.4,59.2z M687,61.9c-0.6,0.6-1.6,0.6-2.2,0
			c-0.6-0.6-0.6-1.6,0-2.2c0.6-0.6,1.6-0.6,2.2,0C687.6,60.3,687.6,61.3,687,61.9z M688.1,62.1l2.6,2.6c0.1,0.1,0.2,0.3,0.2,0.5
			l-3-3c0-0.1,0.1-0.1,0.1-0.2C688,62,688.1,62.1,688.1,62.1z M690.8,65.4c0,0.1-0.1,0.1-0.1,0.2c-0.2,0.2-0.6,0.2-0.9,0l-2.6-2.6
			c-0.1-0.1-0.1-0.1-0.1-0.2c0.2-0.1,0.3-0.2,0.5-0.4c0-0.1,0.1-0.1,0.1-0.1L690.8,65.4z"/>
		<polygon class="st101" points="583.6,72.9 580,67.1 587.6,67.1 		"/>
		<polygon class="st101" points="610.5,101.5 604.7,97.9 604.7,105.5 		"/>
		<path class="st197" d="M602.9,25.6H273c-10.6,0-19.2,8.8-19.2,19.6l-1,250.2L602.9,25.6z"/>
	</g>
	<g>
		<path class="st90" d="M843.1,279.8l0.2,0.1c-0.5-5.8-1.7-11.4-3.5-16.9l-0.1,0.2l-14.9,0l-7.4-12.9l7.5-12.9l0.2,0
			c-3.6-4.2-7.8-8-12.4-11.3l0,0.3l-12.1,8.7l-13.5-6.2l-1.4-14.8l0.2-0.1c-2.9-0.7-5.8-1.2-8.7-1.5v0c-2.8-0.3-5.7-0.4-8.5-0.5
			l0.2,0.2l-4.7,14.2l-14.6,3l-9.8-11.2l0-0.3c-5.3,2.3-10.3,5.1-15,8.6l0.3,0l4.5,14.2l-10.1,11l-14.6-3.2l0-0.3
			c-1.5,2.5-3,5.2-4.2,8c-1.1,2.6-2.1,5.1-2.9,7.7l0.3-0.1l12,8.8l-1.6,14.8l-13.7,6l-0.2-0.1c0.5,5.8,1.7,11.5,3.5,16.9l0.1-0.2
			l14.9,0.1l7.4,13l-7.5,12.8l-0.3,0c3.7,4.3,8.1,8.3,12.8,11.7l0-0.3l12.1-8.7l13.6,6.1l1.5,14.8l-0.2,0.2
			c5.7,1.3,11.5,1.9,17.2,1.9l-0.2-0.2l4.6-14.1l14.6-3l9.9,11.1l-0.1,0.2c5.3-2.3,10.3-5.1,15-8.6l-0.2,0l-4.5-14.2l10-11l14.6,3.1
			l0.1,0.2c1.5-2.5,2.8-5.1,4-7.8c1.2-2.6,2.2-5.3,3-8l-0.2,0.1l-12-8.8l1.6-14.8L843.1,279.8z M798.1,302.5
			c-6.4,12-19.3,18.3-32.1,17l0,0c-2.1-0.2-4.1-0.6-6.2-1.2c-2-0.6-4.1-1.4-6-2.5c-15.9-8.5-21.8-28.3-13.3-44.2
			c1-1.8,2.1-3.4,3.4-5c0.4-0.5,0.8-0.9,1.2-1.3c0.9-1,2-2,3-2.9c0.4-0.4,0.9-0.8,1.4-1.1c1.3-1,2.7-1.9,4.2-2.7
			c0.2-0.1,0.4-0.3,0.6-0.4c1.6-0.9,3.3-1.5,5.1-2.1c0.6-0.2,1.3-0.4,2-0.5c1.2-0.3,2.3-0.5,3.5-0.7c0.7-0.1,1.5-0.2,2.2-0.3
			c1.3-0.1,2.6-0.1,4,0c0.6,0,1.1,0,1.7,0l0,0c4.1,0.4,8.3,1.6,12.2,3.7C800.7,266.8,806.7,286.6,798.1,302.5z"/>
		<g>
			<path class="st127" d="M798.9,235.7c-26-14-58.4-4.3-72.4,21.7c-14,26-4.3,58.4,21.7,72.4c26,14,58.4,4.3,72.4-21.7
				C834.6,282.2,824.9,249.7,798.9,235.7z M758.1,311.6c-15.9-8.5-21.8-28.3-13.3-44.2c8.6-15.9,28.4-21.8,44.3-13.3
				c15.9,8.6,21.8,28.4,13.2,44.2C793.8,314.2,774,320.1,758.1,311.6z"/>
			<path class="st110" d="M844.3,305l-0.2,0.1l-12-8.8l1.6-14.8l13.6-6l0.2,0.2c-0.5-5.8-1.7-11.5-3.5-16.9l-0.1,0.2l-14.9,0
				l-7.4-12.9l7.5-12.9l0.2,0c-3.6-4.1-7.8-8-12.4-11.3l0,0.3l-12.1,8.6l-13.5-6.2l-1.4-14.8l0.2-0.1c-5.7-1.3-11.5-2-17.2-2
				l0.2,0.2l-4.7,14.2l-14.6,3l-9.8-11.2l0-0.3c-5.3,2.3-10.3,5.1-15,8.6l0.3,0l4.5,14.2l-10.1,11l-14.6-3.2l0-0.3
				c-1.5,2.5-3,5.2-4.2,8c-1.1,2.6-2.1,5.1-2.9,7.7l0.3-0.1l12,8.8l-1.6,14.8l-13.7,6l-0.2-0.1c0.5,5.8,1.7,11.5,3.5,16.9l0.1-0.2
				l14.9,0.1l7.4,13l-7.5,12.8l-0.3,0c3.7,4.3,8.1,8.3,12.8,11.7l0-0.3l12.1-8.7l13.6,6.1l1.5,14.8l-0.2,0.2
				c5.7,1.3,11.5,1.9,17.2,1.9l-0.2-0.2L778,343l14.6-3l9.9,11.1l-0.1,0.2c5.3-2.3,10.3-5.1,15-8.6l-0.2,0l-4.6-14.2l10-11l14.6,3.1
				l0.1,0.2c1.5-2.5,2.8-5.1,4-7.8C842.5,310.4,843.5,307.7,844.3,305z M755,322.9c-22.3-10-32.3-36.2-22.4-58.4
				c10-22.3,36.1-32.3,58.4-22.3c22.3,9.9,32.3,36.1,22.4,58.5C803.5,322.9,777.3,332.8,755,322.9z"/>
			<path class="st193" d="M758.1,311.6c-15.9-8.5-21.8-28.3-13.3-44.2c6.5-12,19.3-18.3,32.1-17l4.3-42.2c-2.8-0.3-5.7-0.4-8.5-0.5
				l0.2,0.2l-4.7,14.2l-14.6,3l-9.8-11.2l0-0.3c-5.3,2.3-10.3,5.1-15,8.6l0.3,0l4.5,14.2l-10.1,11l-14.6-3.2l0-0.3
				c-1.5,2.5-3,5.2-4.2,8c-1.1,2.6-2.1,5.1-2.9,7.7l0.3-0.1l12,8.8l-1.6,14.8l-13.7,6l-0.2-0.1c0.5,5.8,1.7,11.5,3.5,16.9l0.1-0.2
				l14.9,0.1l7.4,13l-7.5,12.8l-0.3,0c3.7,4.3,8.1,8.3,12.8,11.7l0-0.3l12.1-8.7l13.6,6.1l1.5,14.8l-0.2,0.2
				c3.2,0.7,6.4,1.2,9.6,1.5l4.3-41.6C766.1,314.9,762,313.7,758.1,311.6z"/>
		</g>
	</g>
	<g>
		<path class="st90" d="M894.4,366.1L894.4,366.1c-0.1-2.5-0.7-5-1.5-7.5l-0.1,0.1l-6.6,0l-3.3-5.7l3.3-5.7l0.1,0
			c-1.6-1.8-3.5-3.6-5.5-5l0,0.1l-5.4,3.8l-6-2.7l-0.6-6.6l0.1-0.1c-1.3-0.3-2.6-0.5-3.9-0.7v0c-1.3-0.1-2.5-0.2-3.8-0.2l0.1,0.1
			l-2.1,6.3l-6.5,1.3l-4.4-5l0-0.1c-2.3,1-4.6,2.3-6.7,3.8l0.1,0l2,6.3l-4.5,4.9l-6.5-1.4l0-0.1c-0.7,1.1-1.3,2.3-1.9,3.6
			c-0.5,1.1-0.9,2.3-1.3,3.4l0.1,0l5.3,3.9l-0.7,6.6l-6.1,2.6l-0.1-0.1c0.2,2.6,0.7,5.1,1.5,7.5l0.1-0.1l6.6,0l3.3,5.8l-3.3,5.7
			l-0.1,0c1.7,1.9,3.6,3.7,5.7,5.2l0-0.1l5.4-3.9l6,2.7l0.6,6.6l-0.1,0.1c2.5,0.6,5.1,0.8,7.6,0.8l-0.1-0.1l2.1-6.3l6.5-1.4l4.4,4.9
			l0,0.1c2.4-1,4.6-2.3,6.7-3.8l-0.1,0l-2-6.3l4.4-4.9l6.5,1.4l0,0.1c0.7-1.1,1.3-2.3,1.8-3.5c0.5-1.2,1-2.3,1.3-3.5l-0.1,0
			l-5.3-3.9l0.7-6.6L894.4,366.1z M874.4,376.2c-2.9,5.3-8.6,8.1-14.2,7.6l0,0c-0.9-0.1-1.8-0.3-2.7-0.5c-0.9-0.3-1.8-0.6-2.7-1.1
			c-7.1-3.8-9.7-12.6-5.9-19.7c0.4-0.8,0.9-1.5,1.5-2.2c0.2-0.2,0.3-0.4,0.5-0.6c0.4-0.5,0.9-0.9,1.3-1.3c0.2-0.2,0.4-0.3,0.6-0.5
			c0.6-0.5,1.2-0.9,1.9-1.2c0.1-0.1,0.2-0.1,0.3-0.2c0.7-0.4,1.5-0.7,2.2-0.9c0.3-0.1,0.6-0.2,0.9-0.2c0.5-0.1,1-0.2,1.6-0.3
			c0.3,0,0.7-0.1,1-0.1c0.6,0,1.2,0,1.8,0c0.2,0,0.5,0,0.8,0l0,0c1.8,0.2,3.7,0.7,5.4,1.7C875.5,360.4,878.2,369.2,874.4,376.2z"/>
		<g>
			<path class="st127" d="M874.8,346.6c-11.6-6.2-26-1.9-32.2,9.7c-6.2,11.6-1.9,26,9.7,32.2c11.6,6.2,26,1.9,32.2-9.7
				C890.6,367.2,886.3,352.8,874.8,346.6z M856.6,380.2c-7.1-3.8-9.7-12.6-5.9-19.7c3.8-7.1,12.6-9.7,19.7-5.9
				c7.1,3.8,9.7,12.6,5.9,19.7C872.5,381.4,863.7,384.1,856.6,380.2z"/>
			<path class="st110" d="M894.9,377.3l-0.1,0l-5.3-3.9l0.7-6.6l6.1-2.7l0.1,0.1c-0.2-2.6-0.8-5.1-1.6-7.5l-0.1,0.1l-6.6,0l-3.3-5.7
				l3.3-5.7l0.1,0c-1.6-1.8-3.5-3.5-5.5-5l0,0.1l-5.4,3.8l-6-2.7l-0.6-6.6l0.1-0.1c-2.5-0.6-5.1-0.9-7.6-0.9l0.1,0.1l-2.1,6.3
				l-6.5,1.3l-4.4-5l0-0.1c-2.3,1-4.6,2.3-6.7,3.8l0.1,0l2,6.3l-4.5,4.9l-6.5-1.4l0-0.1c-0.7,1.1-1.3,2.3-1.9,3.6
				c-0.5,1.1-0.9,2.3-1.3,3.4l0.1,0l5.3,3.9l-0.7,6.6l-6.1,2.6l-0.1-0.1c0.2,2.6,0.8,5.1,1.5,7.5l0.1-0.1l6.6,0l3.3,5.8l-3.3,5.7
				l-0.1,0c1.7,1.9,3.6,3.7,5.7,5.2l0-0.1l5.4-3.9l6,2.7l0.6,6.6l-0.1,0.1c2.5,0.6,5.1,0.8,7.6,0.8l-0.1-0.1l2.1-6.3l6.5-1.4
				l4.4,4.9l0,0.1c2.4-1,4.6-2.3,6.7-3.8l-0.1,0l-2-6.3l4.4-4.9l6.5,1.4l0,0.1c0.7-1.1,1.3-2.3,1.8-3.5
				C894.1,379.7,894.6,378.5,894.9,377.3z M855.2,385.3c-9.9-4.4-14.4-16.1-9.9-26c4.4-9.9,16.1-14.4,26-9.9
				c9.9,4.4,14.4,16.1,10,26C876.8,385.3,865.1,389.7,855.2,385.3z"/>
			<path class="st193" d="M856.6,380.2c-7.1-3.8-9.7-12.6-5.9-19.7c2.9-5.3,8.6-8.1,14.3-7.6l1.9-18.8c-1.3-0.1-2.5-0.2-3.8-0.2
				l0.1,0.1l-2.1,6.3l-6.5,1.3l-4.4-5l0-0.1c-2.3,1-4.6,2.3-6.7,3.8l0.1,0l2,6.3l-4.5,4.9l-6.5-1.4l0-0.1c-0.7,1.1-1.3,2.3-1.9,3.6
				c-0.5,1.1-0.9,2.3-1.3,3.4l0.1,0l5.3,3.9l-0.7,6.6l-6.1,2.6l-0.1-0.1c0.2,2.6,0.8,5.1,1.5,7.5l0.1-0.1l6.6,0l3.3,5.8l-3.3,5.7
				l-0.1,0c1.7,1.9,3.6,3.7,5.7,5.2l0-0.1l5.4-3.9l6,2.7l0.6,6.6l-0.1,0.1c1.4,0.3,2.9,0.5,4.3,0.7l1.9-18.5
				C860.1,381.7,858.3,381.2,856.6,380.2z"/>
		</g>
	</g>
	<g>
		<rect x="143" y="220.8" class="st63" width="92.2" height="41.8"/>
		<path class="st63" d="M235.2,277.2H143v-6.3h92.2V277.2z M187.5,280.3H143v6.3h44.4V280.3z M214.1,280.3h-23.3v6.3h23.3V280.3z
			 M235.2,293.3H143v1.7h92.2V293.3z M169,297.5H143v1.7H169V297.5z M235.2,306.6H143v1.7h92.2V306.6z M235.2,297.5h-62.4v1.7h62.4
			V297.5z M197.5,301.8H143v1.7h54.5V301.8z M235.2,301.8h-34.1v1.7h34.1V301.8z M184.4,311H143v1.7h41.4V311z"/>
	</g>
	<g>
		<rect x="143" y="99.5" class="st63" width="92.2" height="41.8"/>
		<path class="st63" d="M235.2,155.9H143v-6.3h92.2V155.9z M187.5,159H143v6.3h44.4V159z M214.1,159h-23.3v6.3h23.3V159z M235.2,172
			H143v1.7h92.2V172z M169,176.2H143v1.7H169V176.2z M235.2,185.3H143v1.7h92.2V185.3z M235.2,176.2h-62.4v1.7h62.4V176.2z
			 M197.5,180.5H143v1.7h54.5V180.5z M235.2,180.5h-34.1v1.7h34.1V180.5z M184.4,189.7H143v1.7h41.4V189.7z"/>
	</g>
</g>
</svg>
